#N canvas 128 100 1075 655 10;
#X declare -path ./biblioteca;
#X obj 889 10 declare -path ./biblioteca;
#X text 970 52 Dependências \; Cyclone \; Zexy \; list-abs, f 14
;
#X obj 949 29 dados_interscity;
#X msg 77 536 disconnect;
#X obj 48 581 netsend -u -b;
#X obj 48 389 list prepend send;
#X obj 48 408 list trim;
#N canvas 213 60 1044 546 drone 0;
#X obj 483 512 outlet mensagem_oscformat;
#X floatatom 141 88 5 0 0 0 - - -;
#X obj 49 89 tgl 15 0 empty empty empty 17 7 0 10 -262144 -1 -1 1 1
;
#X obj 256 87 r \$0-hora;
#X obj 367 93 r \$0-dia;
#X obj 49 129 metro 1200;
#X obj 459 10 inlet intervalo_entre_retorno_de_dados;
#X msg 21 253 list taxa_de_variacao_de_velocidade_media \$1;
#X obj 21 274 t a b;
#X obj 483 469 oscformat /buzu/drone;
#X obj 312 274 t a b;
#X msg 312 253 list avgspeed_inválido \$1;
#X obj 503 324 t a b;
#X msg 503 303 list velocidade_do_trajeto_atual \$1;
#X obj 739 354 t a b;
#X msg 739 333 list velocidade_media_da_linha \$1;
#X obj 49 10 inlet bang_requisição_de_dado/idx_da_linha_de_onibus
;
#X obj 49 60 route bang;
#X msg 53 293 format sf;
#X msg 343 292 format sf;
#X msg 534 342 format sf;
#X msg 770 372 format sf;
#X obj 101 172 bng 12 250 50 0 empty empty empty 17 7 0 10 -262144
-1 -1;
#X floatatom 800 422 8 0 0 0 - - -;
#X obj 800 477 outlet;
#N canvas 432 310 586 300 ultima_linha_de_onibus 0;
#X floatatom 363 188 5 0 0 0 - - -;
#X obj 63 54 r id_linha_test;
#X obj 164 54 r id_linha_puts;
#X obj 378 54 r id_linha_bean;
#X obj 270 54 r id_linha_anuns;
#X obj 363 158 f;
#X obj 63 75 t f b;
#X obj 164 75 t f b;
#X obj 270 75 t f b;
#X obj 378 75 t f b;
#X obj 90 122 del 200;
#X obj 363 232 outlet última_linha_de_ônibus;
#X text 39 192 retorna o número identificador da última linha de
ônibus analisada no subpatch [pd melodias_linhas_de_onibus], f 40
;
#X connect 0 0 11 0;
#X connect 1 0 6 0;
#X connect 2 0 7 0;
#X connect 3 0 9 0;
#X connect 4 0 8 0;
#X connect 5 0 0 0;
#X connect 6 0 5 1;
#X connect 6 1 10 0;
#X connect 7 0 5 1;
#X connect 7 1 10 0;
#X connect 8 0 5 1;
#X connect 8 1 10 0;
#X connect 9 0 5 1;
#X connect 9 1 10 0;
#X connect 10 0 5 0;
#X restore 66 33 pd ultima_linha_de_onibus;
#X obj 167 186 pd~ -s ./biblioteca;
#X msg 527 144 pd~ stop;
#X msg 141 121 pd~_id \$1;
#X msg 255 119 pd~_hora \$1;
#X msg 368 117 pd~_dia \$1;
#X obj 21 220 route taxa_de_variação_de_velocidade_média;
#X obj 312 220 route bang_de_dado_inválido;
#X obj 503 219 route velocidade_do_trajeto_atual;
#X obj 739 219 route velocidade_média_da_linha;
#X obj 530 56 loadbang;
#X msg 108 412 velocidade_média_da_linha 31.4317;
#X obj 108 391 prepend set;
#X msg 528 100 pd~ start /Volumes/Troca/gDrive_MacbookPro/Programacao/Pd/Projetos/NuSom/Interscity-Buzu/biblioteca/dados_para_drone.pd
;
#X connect 1 0 28 0;
#X connect 2 0 5 0;
#X connect 3 0 29 0;
#X connect 4 0 30 0;
#X connect 5 0 22 0;
#X connect 6 0 5 1;
#X connect 7 0 8 0;
#X connect 8 0 9 0;
#X connect 8 1 18 0;
#X connect 9 0 0 0;
#X connect 10 0 9 0;
#X connect 10 1 19 0;
#X connect 11 0 10 0;
#X connect 12 0 9 0;
#X connect 12 1 20 0;
#X connect 13 0 12 0;
#X connect 14 0 9 0;
#X connect 14 1 21 0;
#X connect 15 0 14 0;
#X connect 16 0 17 0;
#X connect 17 0 2 0;
#X connect 17 1 1 0;
#X connect 18 0 9 0;
#X connect 19 0 9 0;
#X connect 20 0 9 0;
#X connect 21 0 9 0;
#X connect 23 0 24 0;
#X connect 25 0 17 0;
#X connect 26 0 31 0;
#X connect 26 0 37 0;
#X connect 27 0 26 0;
#X connect 28 0 26 0;
#X connect 29 0 26 0;
#X connect 30 0 26 0;
#X connect 31 0 7 0;
#X connect 31 1 32 0;
#X connect 32 0 11 0;
#X connect 32 1 33 0;
#X connect 33 0 13 0;
#X connect 33 1 34 0;
#X connect 34 0 15 0;
#X connect 34 0 23 0;
#X connect 35 0 38 0;
#X connect 37 0 36 0;
#X connect 38 0 26 0;
#X coords 0 -1 1 1 87 16 1 30 170;
#X restore 288 269 pd drone;
#X obj 586 101 buzuTempo;
#X obj 586 303 s \$0-dia;
#X obj 586 54 loadbang;
#X msg 586 75 1;
#X obj 671 303 s \$0-hora;
#X obj 757 303 s \$0-min;
#X obj 843 303 s \$0-seg;
#X obj 929 303 s \$0-mseg;
#X obj 581 357 cnv 15 480 280 empty empty Namespaces: 16 20 0 16 -233017
-66577 0;
#X text 623 406 /buzu;
#X text 686 432 /video;
#X text 686 469 /drone;
#X text 746 496 (parâmetros ou mensagens que os patchs precisarem)
;
#X text 746 513 /coordenadas;
#X text 746 533 /avgspeed;
#X text 746 551 /dia_da_semana;
#X text 746 571 /hora;
#X text 746 591 ... etc;
#N canvas 54 95 1184 685 melodias_linhas_de_onibus 0;
#X obj 89 182 spigot;
#X obj 122 157 tgl 15 0 empty \$0-LOOP_1 LOOP_1 17 7 0 10 -262144 -1
-1 1 1;
#X floatatom 89 268 5 0 0 0 - - -;
#X obj 223 380 bng 15 250 50 0 empty empty empty 17 7 0 10 -262144
-1 -1;
#X obj 22 154 tgl 11 0 empty \$0-Som_ON/OFF_1 Som_ON/OFF_1 17 7 0 10
-258113 -1 -1 1 1;
#X obj 89 244 urn 2120;
#X floatatom 156 227 5 0 0 1 tempo_de_interação #0-tempo_de_interação
-;
#X obj 382 615 outlet mensagem_oscformat;
#X obj 223 342 r \$0-dia;
#X obj 89 453 oscformat /buzu/melodias_buzin/test;
#X obj 382 453 oscformat /buzu/melodias_buzin/puts;
#X obj 682 453 oscformat /buzu/melodias_buzin/bean;
#X obj 950 453 oscformat /buzu/melodias_buzin/anuns;
#X obj 382 192 spigot;
#X obj 415 167 tgl 15 0 empty \$0-LOOP_2 LOOP_2 17 7 0 10 -262144 -1
-1 1 1;
#X floatatom 382 268 5 0 0 0 - - -;
#X obj 516 379 bng 15 250 50 0 empty empty empty 17 7 0 10 -262144
-1 -1;
#X obj 315 164 tgl 11 0 empty \$0-Som_ON/OFF_2 Som_ON/OFF_2 17 7 0
10 -258113 -1 -1 0 1;
#X obj 382 244 urn 2120;
#X floatatom 449 237 5 0 0 1 tempo_de_interação #0-tempo_de_interação
-;
#X obj 516 342 r \$0-dia;
#X obj 682 189 spigot;
#X obj 715 164 tgl 15 0 empty \$0-LOOP_3 LOOP_3 17 7 0 10 -262144 -1
-1 1 1;
#X floatatom 682 265 5 0 0 0 - - -;
#X obj 816 376 bng 15 250 50 0 empty empty empty 17 7 0 10 -262144
-1 -1;
#X obj 615 161 tgl 11 0 empty \$0-Som_ON/OFF_3 Som_ON/OFF_3 17 7 0
10 -258113 -1 -1 1 1;
#X obj 682 241 urn 2120;
#X floatatom 749 234 5 0 0 1 tempo_de_interação #0-tempo_de_interação
-;
#X obj 816 339 r \$0-dia;
#X obj 950 188 spigot;
#X obj 983 163 tgl 15 0 empty \$0-LOOP_4 LOOP_4 17 7 0 10 -262144 -1
-1 1 1;
#X floatatom 950 264 5 0 0 0 - - -;
#X obj 1084 375 bng 15 250 50 0 empty empty empty 17 7 0 10 -262144
-1 -1;
#X obj 883 160 tgl 11 0 empty \$0-Som_ON/OFF_4 Som_ON/OFF_4 17 7 0
10 -258113 -1 -1 0 1;
#X obj 950 240 urn 2120;
#X floatatom 1017 233 5 0 0 1 tempo_de_interação #0-tempo_de_interação
-;
#X obj 1084 338 r \$0-dia;
#X obj 21 12 inlet On/Off;
#X obj 166 11 inlet loop;
#X obj 296 13 inlet tempo_de_iteração;
#X obj 315 361 dados_para_melodia_buzin, f 34;
#X obj 615 358 dados_para_melodia_buzin, f 34;
#X obj 22 361 dados_para_melodia_buzin, f 34;
#X obj 883 357 dados_para_melodia_buzin, f 34;
#X obj 34 221 r \$0-melodiasbang;
#X obj 343 219 r \$0-melodiasbang;
#X obj 624 220 r \$0-melodiasbang;
#X obj 895 217 r \$0-melodiasbang;
#X obj 296 54 s \$0-tempo_de_interação;
#N canvas 635 138 638 441 densidade 0;
#X obj 34 39 r \$0-hora;
#X obj 275 93 moses 10;
#X obj 344 94 moses 17;
#X obj 34 95 moses 2;
#X obj 105 98 moses 3;
#X obj 405 94 moses 22;
#X obj 473 93 moses 22;
#X obj 540 93 moses 24;
#X obj 162 97 moses 5;
#X obj 217 95 moses 6;
#X msg 285 167 1 1 1 0;
#X msg 394 162 1 1 1 1;
#X obj 148 215 unpack 0 0 0 0;
#X obj 63 255 t f f;
#X obj 184 255 t f f;
#X obj 305 255 t f f;
#X obj 426 255 t f f;
#X obj 90 307 s \$0-LOOP_1;
#X obj 63 328 s \$0-Som_ON/OFF_1;
#X obj 211 307 s \$0-LOOP_2;
#X obj 184 328 s \$0-Som_ON/OFF_2;
#X obj 332 307 s \$0-LOOP_3;
#X obj 305 328 s \$0-Som_ON/OFF_3;
#X obj 453 307 s \$0-LOOP_4;
#X obj 426 328 s \$0-Som_ON/OFF_4;
#X obj 34 71 f;
#X obj 119 34 bng 15 250 50 0 empty empty empty 17 7 0 10 -262144 -1
-1;
#X msg 162 41 14;
#X obj 90 273 change;
#X obj 211 273 change;
#X obj 332 273 change;
#X obj 453 273 change;
#X msg 80 166 1 1 0 0;
#X msg 148 169 1 0 1 0;
#X msg 216 169 0 1 1 1;
#X connect 0 0 25 0;
#X connect 1 0 11 0;
#X connect 1 1 2 0;
#X connect 2 0 10 0;
#X connect 2 1 5 0;
#X connect 3 0 33 0;
#X connect 3 1 4 0;
#X connect 4 0 32 0;
#X connect 4 1 8 0;
#X connect 5 1 6 0;
#X connect 6 0 10 0;
#X connect 6 1 7 0;
#X connect 7 0 34 0;
#X connect 8 0 33 0;
#X connect 8 1 9 0;
#X connect 9 0 34 0;
#X connect 9 1 1 0;
#X connect 10 0 12 0;
#X connect 11 0 12 0;
#X connect 12 0 13 0;
#X connect 12 1 14 0;
#X connect 12 2 15 0;
#X connect 12 3 16 0;
#X connect 13 0 18 0;
#X connect 13 1 28 0;
#X connect 14 0 20 0;
#X connect 14 1 29 0;
#X connect 15 0 22 0;
#X connect 15 1 30 0;
#X connect 16 0 24 0;
#X connect 16 1 31 0;
#X connect 25 0 3 0;
#X connect 26 0 25 0;
#X connect 27 0 25 0;
#X connect 28 0 17 0;
#X connect 29 0 19 0;
#X connect 30 0 21 0;
#X connect 31 0 23 0;
#X connect 32 0 12 0;
#X connect 33 0 12 0;
#X connect 34 0 12 0;
#X restore 698 64 pd densidade;
#N canvas 455 415 450 300 route_messages 0;
#X obj 31 14 inlet On/Off;
#X obj 31 62 route bang, f 20;
#X obj 31 93 s \$0-melodiasbang;
#X obj 148 118 t b b b b;
#X obj 208 137 s \$0-Som_ON/OFF_1;
#X obj 208 156 s \$0-Som_ON/OFF_2;
#X obj 208 175 s \$0-Som_ON/OFF_3;
#X obj 208 194 s \$0-Som_ON/OFF_4;
#X connect 0 0 1 0;
#X connect 1 0 2 0;
#X connect 1 1 3 0;
#X connect 3 0 4 0;
#X connect 3 1 5 0;
#X connect 3 2 6 0;
#X connect 3 3 7 0;
#X restore 21 55 pd route_messages;
#N canvas 455 415 450 300 route_messages 0;
#X obj 111 78 s \$0-LOOP_1;
#X obj 111 108 s \$0-LOOP_2;
#X obj 111 138 s \$0-LOOP_3;
#X obj 111 168 s \$0-LOOP_4;
#X obj 32 59 t f f f f;
#X obj 31 14 inlet LOOP;
#X connect 4 0 0 0;
#X connect 4 1 1 0;
#X connect 4 2 2 0;
#X connect 4 3 3 0;
#X connect 5 0 4 0;
#X restore 166 53 pd route_messages;
#X obj 156 421 s coordenadas_test;
#X obj 449 421 s coordenadas_puts;
#X obj 1017 418 s coordenadas_anuns;
#X obj 749 418 s coordenadas_bean;
#X obj 98 294 s id_linha_test;
#X obj 398 294 s id_linha_puts;
#X obj 695 294 s id_linha_bean;
#X obj 958 294 s id_linha_anuns;
#X obj 180 398 s endbang_test;
#X obj 473 398 s endbang_puts;
#X obj 773 395 s endbang_bean;
#X obj 1041 395 s endbang_anuns;
#X obj 115 561 list prepend set;
#X obj 115 582 list trim;
#X msg 115 603 922.63 234.25;
#X connect 0 0 5 0;
#X connect 1 0 0 1;
#X connect 1 0 3 0;
#X connect 2 0 42 1;
#X connect 2 0 56 0;
#X connect 3 0 0 0;
#X connect 3 0 60 0;
#X connect 4 0 42 0;
#X connect 5 0 2 0;
#X connect 6 0 42 2;
#X connect 8 0 42 3;
#X connect 9 0 7 0;
#X connect 10 0 7 0;
#X connect 11 0 7 0;
#X connect 12 0 7 0;
#X connect 13 0 18 0;
#X connect 14 0 13 1;
#X connect 14 0 16 0;
#X connect 15 0 57 0;
#X connect 15 0 40 1;
#X connect 16 0 13 0;
#X connect 16 0 61 0;
#X connect 17 0 40 0;
#X connect 18 0 15 0;
#X connect 19 0 40 2;
#X connect 20 0 40 3;
#X connect 21 0 26 0;
#X connect 22 0 21 1;
#X connect 22 0 24 0;
#X connect 23 0 58 0;
#X connect 23 0 41 1;
#X connect 24 0 21 0;
#X connect 24 0 62 0;
#X connect 25 0 41 0;
#X connect 26 0 23 0;
#X connect 27 0 41 2;
#X connect 28 0 41 3;
#X connect 29 0 34 0;
#X connect 30 0 29 1;
#X connect 30 0 32 0;
#X connect 31 0 59 0;
#X connect 31 0 43 1;
#X connect 32 0 29 0;
#X connect 32 0 63 0;
#X connect 33 0 43 0;
#X connect 34 0 31 0;
#X connect 35 0 43 2;
#X connect 36 0 43 3;
#X connect 37 0 50 0;
#X connect 38 0 51 0;
#X connect 39 0 48 0;
#X connect 40 1 10 0;
#X connect 40 2 53 0;
#X connect 40 2 64 0;
#X connect 40 3 16 0;
#X connect 41 1 11 0;
#X connect 41 2 55 0;
#X connect 41 3 24 0;
#X connect 42 1 9 0;
#X connect 42 2 52 0;
#X connect 42 3 3 0;
#X connect 43 1 12 0;
#X connect 43 2 54 0;
#X connect 43 3 32 0;
#X connect 44 0 5 0;
#X connect 45 0 18 0;
#X connect 46 0 26 0;
#X connect 47 0 34 0;
#X connect 64 0 65 0;
#X connect 65 0 66 0;
#X restore 48 200 pd melodias_linhas_de_onibus;
#X obj 288 222 bng 15 250 50 0 empty empty Inicia/Interrompe 17 7 0
10 -232576 -1 -1;
#X floatatom 438 229 8 0 0 2 tempo_entre_dados - -;
#X text 686 449 /melodias_buzin;
#X obj 130 169 tgl 15 0 empty empty Loop 17 7 0 10 -262144 -1 -1 1
1;
#X obj 53 147 tgl 11 0 empty empty Som_On/Off 17 7 0 10 -258113 -1
-1 1 1;
#X floatatom 213 154 7 0 0 2 Tempo_de_Iteração_(ms) - -;
#X text 637 421 \; ---->;
#X text 707 485 \; ---->;
#X obj 48 88 bng 15 250 50 0 empty empty inicio 17 7 0 10 -204786 -1
-1;
#X obj 278 395 list prepend send;
#X obj 280 416 list trim;
#X msg 396 454 disconnect;
#X obj 280 576 netsend -u -b;
#X obj 70 481 r stay_connected;
#X obj 753 63 s stay_connected;
#X obj 753 26 r $-hora;
#X obj 753 44 change;
#X obj 742 8 loadbang;
#X obj 89 11 loadbang;
#X obj 89 36 t b b b b, f 25;
#X msg 187 63 1;
#X msg 138 62 1;
#X obj 66 61 del 1000;
#N canvas 12 121 1217 624 video 0;
#X obj 95 342 oscformat test;
#X obj 95 282 pak;
#X obj 394 467 outlet;
#X obj 378 342 oscformat puts;
#X obj 378 282 pak;
#X floatatom 434 270 5 0 0 0 - - -;
#X floatatom 328 240 5 0 0 0 - - -;
#X obj 672 282 pak;
#X floatatom 728 270 5 0 0 0 - - -;
#X floatatom 622 240 5 0 0 0 - - -;
#X obj 672 342 oscformat bean;
#X obj 973 282 pak;
#X floatatom 1029 275 5 0 0 0 - - -;
#X floatatom 930 245 5 0 0 0 - - -;
#X obj 973 342 oscformat anus;
#X obj 47 63 r coordenadas_test;
#X obj 328 71 r coordenadas_puts;
#X obj 622 81 r coordenadas_bean;
#X obj 930 76 r coordenadas_anuns;
#X obj 1007 576 oscformat clear;
#X obj 1007 514 tgl 15 0 empty empty empty 17 7 0 10 -262144 -1 -1
1 1;
#X obj 1007 383 r \$0-dia;
#X obj 1007 419 change;
#X msg 1007 446 1;
#X msg 1066 490 0;
#X obj 1039 468 t b b;
#X msg 1039 490 1;
#X obj 1039 446 del 1000;
#N canvas 170 201 1008 254 LCDs 0;
#X obj 28 46 r id_linha_test;
#X obj 267 47 r id_linha_puts;
#X obj 503 47 r id_linha_bean;
#X obj 733 48 r id_linha_anuns;
#X obj 135 46 r \$0-Som_ON/OFF_1;
#X obj 853 48 r \$0-Som_ON/OFF_4;
#X obj 603 47 r \$0-Som_ON/OFF_3;
#X obj 372 47 r \$0-Som_ON/OFF_2;
#X obj 60 128 r endbang_test;
#X obj 213 128 r endbang_puts;
#X obj 373 128 r endbang_bean;
#X obj 541 128 r endbang_anuns;
#X obj 233 229 outlet mensagensOSC;
#X msg 60 149 0;
#X msg 213 149 0;
#X msg 373 149 0;
#X msg 541 149 0;
#X obj 60 169 oscformat /test;
#X obj 213 169 oscformat /puts;
#X obj 373 169 oscformat /bean;
#X obj 541 169 oscformat /anuns;
#N canvas 369 316 581 367 send-lcdSul 0;
#X obj 30 7 inlet;
#X obj 203 10 inlet;
#X obj 204 313 netsend -u -b;
#X msg 30 57 buzu \$1;
#X obj 30 78 buzuDados;
#X obj 86 60 r \$0-dia;
#X msg 389 211 disconnect;
#X obj 389 12 r stay_connected;
#X msg 204 78 gato_preto;
#X obj 203 58 sel 0;
#X obj 204 214 list prepend send;
#X obj 204 235 list trim;
#X obj 204 144 t a b;
#X msg 231 165 format ss;
#X obj 204 193 oscformat buzu lcdSul;
#X obj 204 120 list append linha_buzu;
#X msg 389 190 connect 192.168.100.255 8888;
#X obj 203 31 change;
#X connect 0 0 3 0;
#X connect 1 0 17 0;
#X connect 3 0 4 0;
#X connect 4 0 15 0;
#X connect 5 0 4 1;
#X connect 6 0 2 0;
#X connect 7 0 16 0;
#X connect 8 0 15 0;
#X connect 9 0 8 0;
#X connect 10 0 11 0;
#X connect 11 0 2 0;
#X connect 12 0 14 0;
#X connect 12 1 13 0;
#X connect 13 0 14 0;
#X connect 14 0 10 0;
#X connect 15 0 12 0;
#X connect 16 0 2 0;
#X connect 17 0 9 0;
#X restore 28 86 pd send-lcdSul;
#N canvas 334 243 579 363 send-lcdLeste 0;
#X obj 30 9 inlet;
#X obj 203 12 inlet;
#X obj 204 313 netsend -u -b;
#X msg 30 57 buzu \$1;
#X obj 30 78 buzuDados;
#X obj 86 60 r \$0-dia;
#X msg 389 211 disconnect;
#X obj 389 12 r stay_connected;
#X msg 204 88 gato_preto;
#X obj 203 68 sel 0;
#X obj 204 214 list prepend send;
#X obj 204 235 list trim;
#X obj 204 144 t a b;
#X msg 231 165 format ss;
#X obj 204 120 list append linha_buzu;
#X obj 204 193 oscformat buzu lcdLeste;
#X msg 389 190 connect 192.168.100.255 8888;
#X obj 203 33 change;
#X connect 0 0 3 0;
#X connect 1 0 17 0;
#X connect 3 0 4 0;
#X connect 4 0 14 0;
#X connect 5 0 4 1;
#X connect 6 0 2 0;
#X connect 7 0 16 0;
#X connect 8 0 14 0;
#X connect 9 0 8 0;
#X connect 10 0 11 0;
#X connect 11 0 2 0;
#X connect 12 0 15 0;
#X connect 12 1 13 0;
#X connect 13 0 15 0;
#X connect 14 0 12 0;
#X connect 15 0 10 0;
#X connect 16 0 2 0;
#X connect 17 0 9 0;
#X restore 267 86 pd send-lcdLeste;
#N canvas 506 102 608 372 send-lcdOeste 0;
#X obj 30 6 inlet;
#X obj 203 6 inlet;
#X obj 204 313 netsend -u -b;
#X msg 30 57 buzu \$1;
#X obj 30 78 buzuDados;
#X obj 86 60 r \$0-dia;
#X msg 389 211 disconnect;
#X obj 389 12 r stay_connected;
#X msg 204 78 gato_preto;
#X obj 203 58 sel 0;
#X obj 204 214 list prepend send;
#X obj 204 235 list trim;
#X obj 204 144 t a b;
#X msg 231 165 format ss;
#X obj 204 120 list append linha_buzu;
#X obj 204 193 oscformat buzu lcdOeste;
#X msg 389 190 connect 192.168.100.255 8888;
#X obj 203 27 change;
#X connect 0 0 3 0;
#X connect 1 0 17 0;
#X connect 3 0 4 0;
#X connect 4 0 14 0;
#X connect 5 0 4 1;
#X connect 6 0 2 0;
#X connect 7 0 16 0;
#X connect 8 0 14 0;
#X connect 9 0 8 0;
#X connect 10 0 11 0;
#X connect 11 0 2 0;
#X connect 12 0 15 0;
#X connect 12 1 13 0;
#X connect 13 0 15 0;
#X connect 14 0 12 0;
#X connect 15 0 10 0;
#X connect 16 0 2 0;
#X connect 17 0 9 0;
#X restore 503 86 pd send-lcdOeste;
#N canvas 506 102 593 373 send-lcdNorte 0;
#X obj 30 9 inlet;
#X obj 203 12 inlet;
#X obj 204 313 netsend -u -b;
#X msg 30 57 buzu \$1;
#X obj 30 78 buzuDados;
#X obj 86 60 r \$0-dia;
#X msg 389 211 disconnect;
#X obj 389 12 r stay_connected;
#X msg 204 88 gato_preto;
#X obj 203 68 sel 0;
#X obj 204 214 list prepend send;
#X obj 204 235 list trim;
#X obj 204 144 t a b;
#X msg 231 165 format ss;
#X obj 204 120 list append linha_buzu;
#X obj 204 193 oscformat buzu lcdNorte;
#X msg 389 190 connect 192.168.100.255 8888;
#X obj 203 33 change;
#X connect 0 0 3 0;
#X connect 1 0 17 0;
#X connect 3 0 4 0;
#X connect 4 0 14 0;
#X connect 5 0 4 1;
#X connect 6 0 2 0;
#X connect 7 0 16 0;
#X connect 8 0 14 0;
#X connect 9 0 8 0;
#X connect 10 0 11 0;
#X connect 11 0 2 0;
#X connect 12 0 15 0;
#X connect 12 1 13 0;
#X connect 13 0 15 0;
#X connect 14 0 12 0;
#X connect 15 0 10 0;
#X connect 16 0 2 0;
#X connect 17 0 9 0;
#X restore 733 87 pd send-lcdNorte;
#X connect 0 0 21 0;
#X connect 1 0 22 0;
#X connect 2 0 23 0;
#X connect 3 0 24 0;
#X connect 4 0 21 1;
#X connect 5 0 24 1;
#X connect 6 0 23 1;
#X connect 7 0 22 1;
#X connect 8 0 13 0;
#X connect 9 0 14 0;
#X connect 10 0 15 0;
#X connect 11 0 16 0;
#X connect 13 0 17 0;
#X connect 14 0 18 0;
#X connect 15 0 19 0;
#X connect 16 0 20 0;
#X connect 17 0 12 0;
#X connect 18 0 12 0;
#X connect 19 0 12 0;
#X connect 20 0 12 0;
#X restore 59 388 pd LCDs;
#X f 13;
#X obj 47 148 unpack f f;
#X obj 328 147 unpack f f;
#X obj 622 157 unpack f f;
#X obj 930 152 unpack f f;
#X obj 1007 534 t f b;
#X obj 95 303 t a b;
#X obj 378 303 t a b;
#X obj 672 303 t a b;
#X obj 973 303 t a b;
#X obj 295 523 list prepend set;
#X obj 295 544 list trim;
#X obj 493 545 list prepend set;
#X obj 493 566 list trim;
#X obj 493 526 oscparse;
#X msg 122 322 format ff;
#X msg 405 322 format ff;
#X msg 699 322 format ff;
#X msg 1000 322 format ff;
#X obj 1029 254 f;
#X obj 930 224 f;
#X obj 728 249 f;
#X obj 622 219 f;
#X obj 434 249 f;
#X obj 328 219 f;
#X obj 147 245 f;
#X obj 47 215 f;
#X msg 1034 553 format f;
#X msg 493 587;
#X msg 295 565;
#X obj 47 189 cyclone/scale 0 1000 768 0;
#X obj 328 193 cyclone/scale 0 1000 768 0;
#X obj 622 193 cyclone/scale 0 1000 768 0;
#X obj 930 198 cyclone/scale 0 1000 768 0;
#X obj 1124 375 loadbang;
#X obj 1138 447 del 35000;
#X obj 147 223 cyclone/scale 0 1000 896 128;
#X obj 433 227 cyclone/scale 0 1000 896 128;
#X obj 727 227 cyclone/scale 0 1000 896 128;
#X obj 1028 232 cyclone/scale 0 1000 896 128;
#X connect 0 0 2 0;
#X connect 1 0 34 0;
#X connect 3 0 2 0;
#X connect 4 0 35 0;
#X connect 7 0 36 0;
#X connect 10 0 2 0;
#X connect 11 0 37 0;
#X connect 14 0 2 0;
#X connect 15 0 29 0;
#X connect 16 0 30 0;
#X connect 17 0 31 0;
#X connect 18 0 32 0;
#X connect 19 0 2 0;
#X connect 20 0 33 0;
#X connect 21 0 22 0;
#X connect 22 0 23 0;
#X connect 22 0 27 0;
#X connect 23 0 20 0;
#X connect 24 0 20 0;
#X connect 25 0 26 0;
#X connect 25 1 24 0;
#X connect 26 0 20 0;
#X connect 27 0 25 0;
#X connect 28 0 2 0;
#X connect 29 0 64 0;
#X connect 29 1 58 0;
#X connect 30 0 65 0;
#X connect 30 1 59 0;
#X connect 31 0 66 0;
#X connect 31 1 60 0;
#X connect 32 0 67 0;
#X connect 32 1 61 0;
#X connect 33 0 19 0;
#X connect 33 1 55 0;
#X connect 34 0 0 0;
#X connect 34 1 43 0;
#X connect 35 0 3 0;
#X connect 35 1 44 0;
#X connect 36 0 10 0;
#X connect 36 1 45 0;
#X connect 37 0 14 0;
#X connect 37 1 46 0;
#X connect 38 0 39 0;
#X connect 39 0 57 0;
#X connect 40 0 41 0;
#X connect 41 0 56 0;
#X connect 42 0 40 0;
#X connect 43 0 0 0;
#X connect 44 0 3 0;
#X connect 45 0 10 0;
#X connect 46 0 14 0;
#X connect 47 0 12 0;
#X connect 47 0 11 0;
#X connect 48 0 13 0;
#X connect 48 0 11 1;
#X connect 49 0 8 0;
#X connect 49 0 7 0;
#X connect 50 0 9 0;
#X connect 50 0 7 1;
#X connect 51 0 5 0;
#X connect 51 0 4 0;
#X connect 52 0 6 0;
#X connect 52 0 4 1;
#X connect 53 0 1 0;
#X connect 54 0 1 1;
#X connect 55 0 19 0;
#X connect 58 0 54 0;
#X connect 59 0 52 0;
#X connect 60 0 50 0;
#X connect 61 0 48 0;
#X connect 62 0 63 0;
#X connect 62 0 27 0;
#X connect 63 0 25 0;
#X connect 64 0 53 0;
#X connect 65 0 51 0;
#X connect 66 0 49 0;
#X connect 67 0 47 0;
#X restore 278 337 pd video;
#X obj 396 405 r stay_connected;
#X obj 236 84 t f f;
#X obj 438 122 * 3.6;
#X obj 687 29 del 35000;
#X msg 396 433 connect 192.168.100.255 13000;
#X msg 70 515 connect 192.168.100.255 12000;
#X msg 236 63 400;
#X connect 3 0 4 0;
#X connect 5 0 6 0;
#X connect 6 0 4 0;
#X connect 7 0 5 0;
#X connect 8 0 9 0;
#X connect 8 1 12 0;
#X connect 8 2 13 0;
#X connect 8 3 14 0;
#X connect 8 4 15 0;
#X connect 10 0 11 0;
#X connect 11 0 8 0;
#X connect 26 0 5 0;
#X connect 27 0 7 0;
#X connect 28 0 7 1;
#X connect 30 0 26 1;
#X connect 31 0 26 0;
#X connect 32 0 26 2;
#X connect 35 0 26 0;
#X connect 35 0 27 0;
#X connect 36 0 37 0;
#X connect 37 0 39 0;
#X connect 38 0 39 0;
#X connect 40 0 56 0;
#X connect 42 0 43 0;
#X connect 43 0 41 0;
#X connect 44 0 41 0;
#X connect 44 0 54 0;
#X connect 45 0 46 0;
#X connect 46 0 49 0;
#X connect 46 1 48 0;
#X connect 46 2 47 0;
#X connect 46 3 57 0;
#X connect 47 0 30 0;
#X connect 48 0 31 0;
#X connect 49 0 35 0;
#X connect 50 0 36 0;
#X connect 51 0 55 0;
#X connect 52 0 32 0;
#X connect 52 1 53 0;
#X connect 53 0 28 0;
#X connect 54 0 41 0;
#X connect 55 0 39 0;
#X connect 56 0 4 0;
#X connect 57 0 52 0;
