#N struct 1011-point float x0 float y0 float s;
#N struct 1011-grid float x0 float y0 float s;
#N struct 1021-point float x0 float y0 float s;
#N struct 1021-grid float x0 float y0 float s;
#N struct 1031-point float x0 float y0 float s;
#N struct 1031-grid float x0 float y0 float s;
#N struct 1041-point float x0 float y0 float s;
#N struct 1041-grid float x0 float y0 float s;
#N canvas 248 98 611 570 10;
#X declare -path ./modulos;
#X declare -path ./biblioteca;
#X obj 6 21 declare -path ./modulos;
#X obj 6 2 declare -path ./biblioteca;
#X text 5 39 Dependências \; Cyclone \; Zexy \; list-abs \; else,
f 14;
#N canvas 72 186 801 445 synth_melodia_das_linhas_de_onibus 0;
#X obj 41 17 inlet netreceive;
#X obj 48 42 oscparse;
#X obj 48 63 list trim;
#X obj 48 84 route buzu;
#X obj 48 105 route melodias_buzin;
#X obj 48 126 route test puts bean anuns, f 78;
#X obj 48 214 gerador_buzin;
#X obj 164 214 gerador_buzin;
#X obj 280 214 gerador_buzin;
#X obj 396 214 gerador_buzin;
#X obj 162 389 outlet~;
#X obj 303 389 outlet~;
#X text 151 389 3;
#X text 289 390 4;
#X obj 626 84 tgl 90 0 empty empty espacialização 3 40 0 10 -262144
-1 -1 0 1;
#X obj 611 68 bng 15 250 50 0 empty empty speaker_1 -17 -7 0 10 -262144
-1 -1;
#X obj 716 68 bng 15 250 50 0 empty empty speaker_2 -17 -7 0 10 -262144
-1 -1;
#X obj 716 175 bng 15 250 50 0 empty empty speaker_4 -17 23 0 10 -262144
-1 -1;
#X obj 610 175 bng 15 250 50 0 empty empty speaker_3 -17 23 0 10 -262144
-1 -1;
#X connect 0 0 1 0;
#X connect 1 0 2 0;
#X connect 2 0 3 0;
#X connect 3 0 4 0;
#X connect 4 0 5 0;
#X connect 5 0 6 0;
#X connect 5 1 7 0;
#X connect 5 2 8 0;
#X connect 5 3 9 0;
#X connect 6 2 10 0;
#X connect 6 3 11 0;
#X connect 7 2 10 0;
#X connect 7 3 11 0;
#X connect 8 2 10 0;
#X connect 8 3 11 0;
#X connect 9 2 10 0;
#X connect 9 3 11 0;
#X restore 49 236 pd synth_melodia_das_linhas_de_onibus;
#N canvas 210 210 910 473 drone 0;
#X obj 49 10 inlet netreceive;
#X obj 49 51 oscparse;
#X obj 49 72 list trim;
#X obj 12 143 route taxa_de_variacao_de_velocidade_media;
#X obj 292 143 route avgspeed_inválido;
#X obj 462 143 route velocidade_do_trajeto_atual;
#X obj 49 93 route buzu;
#X obj 49 114 route drone;
#X obj 292 178 bng 15 250 50 0 empty empty empty 17 7 0 10 -262144
-1 -1;
#X obj 692 143 route velocidade_media_da_linha;
#X obj 432 407 outlet~;
#X floatatom 12 172 7 0 0 0 - - -;
#X floatatom 471 166 7 0 0 0 - - -;
#X obj 431 293 synth_drone;
#X obj 493 407 outlet~;
#X floatatom 700 162 7 0 0 0 - - -;
#X obj 702 188 bng 15 250 50 0 empty empty empty 17 7 0 10 -262144
-1 -1;
#X text 750 162 o dado de velocidade média é atualizado a cada novo
trecho do trajeto, f 22;
#X connect 0 0 1 0;
#X connect 1 0 2 0;
#X connect 2 0 6 0;
#X connect 3 0 11 0;
#X connect 3 0 13 0;
#X connect 3 1 4 0;
#X connect 4 0 8 0;
#X connect 4 1 5 0;
#X connect 5 0 12 0;
#X connect 5 0 13 1;
#X connect 5 1 9 0;
#X connect 6 0 7 0;
#X connect 7 0 3 0;
#X connect 9 0 15 0;
#X connect 9 0 13 2;
#X connect 13 0 10 0;
#X connect 13 1 14 0;
#X connect 15 0 16 0;
#X restore 422 236 pd drone;
#X obj 206 154 netreceive -u -b;
#X msg 153 92 listen 12000;
#X msg 175 112 listen 0;
#X obj 244 368 dac~ 1 2;
#X obj 294 329 *~ 0.8;
#X obj 153 59 loadbang;
#X obj 168 325 *~;
#X msg 342 94 0.8 3000;
#X obj 424 292 line~;
#X obj 444 31 netreceive -b -u 6660;
#X obj 444 52 oscparse;
#X obj 444 73 list trim;
#X obj 444 94 route buzu;
#X obj 444 115 route sensor;
#X obj 444 136 change;
#X obj 514 188 tgl 15 0 empty empty empty 17 7 0 10 -262144 -1 -1 0
1;
#X obj 514 208 sel 1;
#X msg 463 267 0.8 6000;
#X msg 528 266 0 3000;
#X obj 204 320 *~;
#X obj 344 329 *~ 0.8;
#X connect 3 0 11 0;
#X connect 3 1 24 0;
#X connect 4 0 9 0;
#X connect 4 1 25 0;
#X connect 5 0 4 0;
#X connect 5 0 3 0;
#X connect 6 0 5 0;
#X connect 7 0 5 0;
#X connect 9 0 8 0;
#X connect 10 0 6 0;
#X connect 10 0 12 0;
#X connect 11 0 8 0;
#X connect 12 0 13 0;
#X connect 13 0 11 1;
#X connect 13 0 24 1;
#X connect 14 0 15 0;
#X connect 15 0 16 0;
#X connect 16 0 17 0;
#X connect 17 0 18 0;
#X connect 18 0 19 0;
#X connect 19 0 20 0;
#X connect 20 0 21 0;
#X connect 21 0 22 0;
#X connect 21 1 23 0;
#X connect 22 0 13 0;
#X connect 23 0 13 0;
#X connect 24 0 8 1;
#X connect 25 0 8 1;
