#N struct 1010-point float x0 float y0 float xs float ys float fg float in float gridx float gridy;
#N struct 1253-point float x0 float y0 float xs float ys float fg float in float gridx float gridy;
#N struct 1274-point float x0 float y0 float xs float ys float fg float in float gridx float gridy;
#N struct 1295-point float x0 float y0 float xs float ys float fg float in float gridx float gridy;
#N canvas 412 106 611 495 10;
#X declare -path ./modulos;
#X declare -path ./biblioteca;
#X obj 6 21 declare -path ./modulos;
#X obj 6 2 declare -path ./biblioteca;
#X text 5 39 Dependências \; Cyclone \; Zexy \; list-abs \; else, f 14;
#N canvas 184 194 777 445 synth_melodia_das_linhas_de_onibus 0;
#X obj 40 17 inlet netreceive;
#X obj 47 42 oscparse;
#X obj 47 63 list trim;
#X obj 47 84 route buzu;
#X obj 47 105 route melodias_buzin;
#X obj 47 126 route test puts bean anuns, f 78;
#X obj 47 214 gerador_buzin;
#X obj 163 214 gerador_buzin;
#X obj 279 214 gerador_buzin;
#X obj 395 214 gerador_buzin;
#X obj 182 399 outlet~;
#X obj 323 398 outlet~;
#X text 168 401 1;
#X text 310 398 2;
#X obj 598 83 tgl 90 0 empty empty espacialização 3 40 0 10 #fcfcfc #000000 #000000 0 1;
#X obj 583 67 bng 15 250 50 0 empty empty speaker_1 -17 -7 0 10 #fcfcfc #000000 #000000;
#X obj 688 67 bng 15 250 50 0 empty empty speaker_2 -17 -7 0 10 #fcfcfc #000000 #000000;
#X obj 688 174 bng 15 250 50 0 empty empty speaker_4 -17 23 0 10 #fcfcfc #000000 #000000;
#X obj 582 174 bng 15 250 50 0 empty empty speaker_3 -17 23 0 10 #fcfcfc #000000 #000000;
#X connect 0 0 1 0;
#X connect 1 0 2 0;
#X connect 2 0 3 0;
#X connect 3 0 4 0;
#X connect 4 0 5 0;
#X connect 5 0 6 0;
#X connect 5 1 7 0;
#X connect 5 2 8 0;
#X connect 5 3 9 0;
#X connect 6 0 10 0;
#X connect 6 1 11 0;
#X connect 7 0 10 0;
#X connect 7 1 11 0;
#X connect 8 0 10 0;
#X connect 8 1 11 0;
#X connect 9 0 10 0;
#X connect 9 1 11 0;
#X restore 49 236 pd synth_melodia_das_linhas_de_onibus;
#N canvas 133 178 910 473 drone 0;
#X obj 49 10 inlet netreceive;
#X obj 49 51 oscparse;
#X obj 49 72 list trim;
#X obj 12 143 route taxa_de_variacao_de_velocidade_media;
#X obj 292 143 route avgspeed_inválido;
#X obj 462 143 route velocidade_do_trajeto_atual;
#X obj 49 93 route buzu;
#X obj 49 114 route drone;
#X obj 292 178 bng 15 250 50 0 empty empty empty 17 7 0 10 #fcfcfc #000000 #000000;
#X obj 692 143 route velocidade_media_da_linha;
#X obj 432 407 outlet~;
#X floatatom 12 172 7 0 0 0 - - - 0;
#X floatatom 471 166 7 0 0 0 - - - 0;
#X obj 431 293 synth_drone;
#X obj 493 407 outlet~;
#X floatatom 700 162 7 0 0 0 - - - 0;
#X obj 702 188 bng 15 250 50 0 empty empty empty 17 7 0 10 #fcfcfc #000000 #000000;
#X text 750 162 o dado de velocidade média é atualizado a cada novo trecho do trajeto, f 22;
#X connect 0 0 1 0;
#X connect 1 0 2 0;
#X connect 2 0 6 0;
#X connect 3 0 11 0;
#X connect 3 0 13 0;
#X connect 3 1 4 0;
#X connect 4 0 8 0;
#X connect 4 1 5 0;
#X connect 5 0 12 0;
#X connect 5 0 13 1;
#X connect 5 1 9 0;
#X connect 6 0 7 0;
#X connect 7 0 3 0;
#X connect 9 0 15 0;
#X connect 9 0 13 2;
#X connect 13 0 10 0;
#X connect 13 1 14 0;
#X connect 15 0 16 0;
#X restore 422 236 pd drone;
#X obj 206 154 netreceive -u -b;
#X msg 153 92 listen 12000;
#X msg 175 112 listen 0;
#X obj 244 368 dac~ 1 2;
#X obj 221 332 *~ 0.8;
#X obj 294 329 *~ 0.8;
#X obj 152 60 loadbang;
#X connect 3 0 9 0;
#X connect 3 1 10 0;
#X connect 4 0 9 0;
#X connect 4 1 10 0;
#X connect 5 0 4 0;
#X connect 5 0 3 0;
#X connect 6 0 5 0;
#X connect 7 0 5 0;
#X connect 9 0 8 0;
#X connect 10 0 8 1;
#X connect 11 0 6 0;
