#N canvas 195 92 755 663 10;
#X obj 632 104 metro 100;
#X obj 560 54 tgl 15 0 empty empty empty 17 7 0 10 -262144 -1 -1 0
1;
#X obj 587 123 realtime;
#X obj 560 77 t f b;
#X obj 587 243 * 1;
#X obj 587 344 t f f, f 16;
#X obj 680 368 mod 1000;
#X floatatom 680 564 5 0 0 0 - - -;
#X obj 567 368 / 1000;
#X obj 503 389 t f f, f 14;
#X obj 493 410 / 60;
#X obj 584 410 mod 60;
#X floatatom 584 564 5 0 0 0 - - -;
#X floatatom 483 564 5 0 0 0 - - -;
#X obj 426 431 t f f, f 10;
#X obj 483 454 mod 60;
#X obj 396 454 / 60;
#X obj 284 475 t f f, f 17;
#X obj 383 497 mod 24;
#X floatatom 383 564 5 0 0 0 - - -;
#X obj 284 496 / 24;
#X floatatom 284 564 5 0 0 0 - - -;
#X text 318 563 dia;
#X text 417 565 hs;
#X text 519 564 min;
#X text 619 566 seg;
#X text 714 565 ms;
#X obj 587 321 + 0;
#X msg 603 155 1;
#X msg 614 174 100;
#X msg 624 192 1000;
#X obj 602 287 * 8.64e+07;
#X msg 269 586 set \$1;
#X obj 282 613 outlet;
#X obj 383 613 outlet;
#X obj 483 613 outlet;
#X obj 584 613 outlet;
#X obj 680 613 outlet;
#X obj 11 11 cnv 15 348 188 empty empty empty 20 12 0 14 -228856 -66577
0;
#X obj 21 57 vradio 15 1 0 8 empty empty empty 0 -8 0 10 -262144 -1
-1 0;
#X text 44 56 Dia 0 - Feriado P치scoa - 13/04/2017;
#X text 44 71 Dia 1 - Domingo - 22/10/2017;
#X text 44 86 Dia 2 - Segunda-feira - 23/10/2017;
#X text 44 101 Dia 3 - Domingo - 22/10/2017;
#X text 44 116 Dia 4 - Quarta feira - 25/10/2017;
#X text 44 132 Dia 5 - Quinta-feira - 26/10/2017;
#X text 44 147 Dia 6 - Sexta-feira - 27/10/2017;
#X text 44 162 Dia 7 - S치bado - 28/10/2017;
#X obj 276 57 cnv 15 65 115 empty empty empty 20 12 0 14 -191407 -66577
0;
#X text 283 61 Passagem do tempo, f 8;
#X msg 634 210 6000;
#X obj 19 21 tgl 18 0 empty empty empty 17 7 0 10 -126103 -258113 -1
0 1;
#X text 40 20 lig/desl;
#X text 143 14 TRANSPORTE;
#X obj 405 14 inlet;
#X obj 440 123 sel 0 1 2 3;
#X obj 288 101 vradio 15 1 0 4 empty empty empty 0 -8 0 10 -262144
-1 -1 2;
#X text 306 101 1x;
#X text 306 116 100x;
#X text 306 132 1000x;
#X text 306 147 6000x;
#X text 11 182 dia;
#X text 88 182 hs;
#X text 174 182 min;
#X text 261 182 seg;
#X text 331 181 mseg;
#X obj 11 198 cnv 1 10 1 empty empty empty 20 12 0 14 -33289 -66577
0;
#X obj 92 198 cnv 1 10 1 empty empty empty 20 12 0 14 -33289 -66577
0;
#X obj 179 198 cnv 1 10 1 empty empty empty 20 12 0 14 -33289 -66577
0;
#X obj 267 198 cnv 1 10 1 empty empty empty 20 12 0 14 -33289 -66577
0;
#X obj 349 198 cnv 1 10 1 empty empty empty 20 12 0 14 -33289 -66577
0;
#X obj 11 11 cnv 1 10 1 empty empty empty 20 12 0 14 -33289 -66577
0;
#N canvas 284 196 450 348 rel칩gio 0;
#X obj 31 10 cnv 15 75 18 empty \$0-relogio_rcv 11:57:28 4 9 0 14 -204786
-1 0;
#X obj 59 56 inlet;
#X obj 179 56 inlet;
#X obj 328 56 inlet;
#X text 63 36 hs;
#X text 186 36 min;
#X text 333 36 seg;
#X floatatom 33 89 5 0 0 0 - - -;
#X floatatom 171 89 5 0 0 0 - - -;
#X floatatom 311 89 5 0 0 0 - - -;
#X obj 230 121 mod 10;
#X floatatom 230 177 5 0 0 0 - - -;
#X obj 172 121 / 10;
#X floatatom 172 177 5 0 0 0 - - -;
#X obj 172 142 int;
#X obj 371 120 mod 10;
#X floatatom 371 176 5 0 0 0 - - -;
#X obj 313 120 / 10;
#X floatatom 313 176 5 0 0 0 - - -;
#X obj 313 141 int;
#X obj 90 120 mod 10;
#X floatatom 90 176 5 0 0 0 - - -;
#X obj 33 120 / 10;
#X floatatom 33 176 5 0 0 0 - - -;
#X obj 33 141 int;
#X obj 135 218 cyclone/join 6 @triggers -1;
#X obj 33 193 l2s;
#X obj 90 193 l2s;
#X obj 172 194 l2s;
#X obj 230 194 l2s;
#X obj 313 193 l2s;
#X obj 371 193 l2s;
#X msg 135 287 label 11:57:28;
#X obj 135 239 t b l;
#X msg 162 259 set label \$1\$2:\$3\$4:\$5\$6;
#X obj 135 318 s \$0-relogio_rcv;
#X connect 1 0 7 0;
#X connect 2 0 8 0;
#X connect 3 0 9 0;
#X connect 7 0 22 0;
#X connect 7 0 20 0;
#X connect 8 0 12 0;
#X connect 8 0 10 0;
#X connect 9 0 17 0;
#X connect 9 0 15 0;
#X connect 10 0 11 0;
#X connect 11 0 29 0;
#X connect 12 0 14 0;
#X connect 13 0 28 0;
#X connect 14 0 13 0;
#X connect 15 0 16 0;
#X connect 16 0 31 0;
#X connect 17 0 19 0;
#X connect 18 0 30 0;
#X connect 19 0 18 0;
#X connect 20 0 21 0;
#X connect 21 0 27 0;
#X connect 22 0 24 0;
#X connect 23 0 26 0;
#X connect 24 0 23 0;
#X connect 25 0 33 0;
#X connect 26 0 25 0;
#X connect 27 0 25 1;
#X connect 28 0 25 2;
#X connect 29 0 25 3;
#X connect 30 0 25 4;
#X connect 31 0 25 5;
#X connect 32 0 35 0;
#X connect 33 0 32 0;
#X connect 33 1 34 0;
#X connect 34 0 32 0;
#X coords 0 -1 1 1 77 20 1 30 9;
#X restore 265 22 pd rel칩gio;
#X obj 284 517 mod 7;
#X obj 284 538 + 1;
#X connect 0 0 2 1;
#X connect 1 0 3 0;
#X connect 2 0 4 0;
#X connect 3 0 0 0;
#X connect 3 1 2 0;
#X connect 4 0 27 0;
#X connect 5 0 8 0;
#X connect 5 1 6 0;
#X connect 6 0 7 0;
#X connect 7 0 37 0;
#X connect 8 0 9 0;
#X connect 9 0 10 0;
#X connect 9 1 11 0;
#X connect 10 0 14 0;
#X connect 11 0 12 0;
#X connect 12 0 36 0;
#X connect 12 0 72 2;
#X connect 13 0 35 0;
#X connect 13 0 72 1;
#X connect 14 0 16 0;
#X connect 14 1 15 0;
#X connect 15 0 13 0;
#X connect 16 0 17 0;
#X connect 17 0 20 0;
#X connect 17 1 18 0;
#X connect 18 0 19 0;
#X connect 19 0 34 0;
#X connect 19 0 72 0;
#X connect 20 0 73 0;
#X connect 21 0 32 0;
#X connect 21 0 33 0;
#X connect 27 0 5 0;
#X connect 28 0 4 1;
#X connect 29 0 4 1;
#X connect 30 0 4 1;
#X connect 31 0 27 1;
#X connect 32 0 39 0;
#X connect 39 0 31 0;
#X connect 50 0 4 1;
#X connect 51 0 1 0;
#X connect 54 0 51 0;
#X connect 55 0 28 0;
#X connect 55 1 29 0;
#X connect 55 2 30 0;
#X connect 55 3 50 0;
#X connect 56 0 55 0;
#X connect 73 0 74 0;
#X connect 74 0 21 0;
#X coords 0 -1 1 1 350 190 1 10 10;
