#N canvas 37 106 955 648 10;
#X msg 18 404 1;
#X floatatom 152 469 5 0 0 0 - - -, f 5;
#X obj 48 377 sel 0 1 2 3 4 5 6 7 8 9 10 11;
#X obj 83 24 hsl 128 15 0 200 0 0 empty empty empty -2 -8 0 10 -204786
-1 -1 0 1;
#X msg 548 395 \; pd dsp 1;
#X msg 551 426 \; pd dsp 0;
#X floatatom 98 77 5 0 0 0 - - -, f 5;
#X obj 81 51 i;
#X obj 60 119 moses 12;
#X obj 129 176 - 12;
#X obj 120 119 moses 24;
#X obj 61 145 t f b;
#X msg 83 178 0;
#X obj 283 393 + 1;
#X obj 136 146 t f b;
#X msg 171 180 12;
#X obj 220 148 t f b;
#X obj 204 121 moses 36;
#X obj 213 178 - 24;
#X msg 255 182 24;
#X obj 312 145 t f b;
#X obj 296 118 moses 48;
#X obj 305 175 - 36;
#X msg 347 179 36;
#X obj 398 144 t f b;
#X obj 382 117 moses 60;
#X obj 391 174 - 48;
#X msg 433 178 48;
#X obj 485 144 t f b;
#X obj 469 117 moses 72;
#X obj 478 174 - 60;
#X msg 520 178 60;
#X obj 568 141 t f b;
#X obj 561 171 - 72;
#X msg 603 175 72;
#X obj 661 143 t f b;
#X obj 750 144 t f b;
#X obj 552 114 moses 84;
#X obj 654 173 - 84;
#X obj 645 116 moses 96;
#X msg 696 177 84;
#X obj 743 174 - 96;
#X msg 785 178 96;
#X obj 734 117 moses 108;
#X obj 82 246 t f b;
#X obj 66 219 moses 120;
#X obj 75 276 - 108;
#X msg 120 279 108;
#X obj 165 242 t f b;
#X obj 149 215 moses 132;
#X obj 158 272 - 120;
#X msg 202 271 120;
#X obj 260 240 t f b;
#X obj 244 213 moses 144;
#X obj 253 270 - 132;
#X msg 298 273 132;
#X obj 346 240 t f b;
#X obj 330 213 moses 156;
#X obj 345 274 - 144;
#X msg 384 273 144;
#X obj 427 239 t f b;
#X obj 411 212 moses 168;
#X obj 423 270 - 156;
#X msg 462 273 156;
#X obj 512 237 t f b;
#X obj 496 210 moses 180;
#X obj 509 270 - 168;
#X msg 544 267 168;
#X obj 598 236 t f b;
#X obj 591 266 - 168;
#X msg 630 266 168;
#X obj 582 209 moses 192;
#X obj 680 238 t f b;
#X obj 664 211 moses 204;
#X obj 673 268 - 192;
#X msg 712 268 192;
#X text 28 504 Aqui muda de escala;
#X msg 183 407 10;
#X text 34 538 pentatonica 1 3 4 8 10;
#X obj 315 38 inlet;
#X obj 604 537 outlet;
#X msg 54 406 4;
#X msg 87 408 6;
#X msg 112 408 8;
#X msg 215 405 10;
#X msg 151 408 8;
#X connect 0 0 1 0;
#X connect 1 0 13 0;
#X connect 2 0 0 0;
#X connect 2 1 0 0;
#X connect 2 2 81 0;
#X connect 2 3 81 0;
#X connect 2 4 82 0;
#X connect 2 5 82 0;
#X connect 2 6 83 0;
#X connect 2 7 83 0;
#X connect 2 8 85 0;
#X connect 2 9 85 0;
#X connect 2 10 77 0;
#X connect 2 11 84 0;
#X connect 3 0 7 0;
#X connect 6 0 8 0;
#X connect 7 0 6 0;
#X connect 8 0 11 0;
#X connect 8 1 10 0;
#X connect 9 0 2 0;
#X connect 10 0 14 0;
#X connect 10 1 17 0;
#X connect 11 0 2 0;
#X connect 11 1 12 0;
#X connect 12 0 13 1;
#X connect 13 0 80 0;
#X connect 14 0 9 0;
#X connect 14 1 15 0;
#X connect 15 0 13 1;
#X connect 16 0 18 0;
#X connect 16 1 19 0;
#X connect 17 0 16 0;
#X connect 17 1 21 0;
#X connect 18 0 2 0;
#X connect 19 0 13 1;
#X connect 20 0 22 0;
#X connect 20 1 23 0;
#X connect 21 0 20 0;
#X connect 21 1 25 0;
#X connect 22 0 2 0;
#X connect 23 0 13 1;
#X connect 24 0 26 0;
#X connect 24 1 27 0;
#X connect 25 0 24 0;
#X connect 25 1 29 0;
#X connect 26 0 2 0;
#X connect 27 0 13 1;
#X connect 28 0 30 0;
#X connect 28 1 31 0;
#X connect 29 0 28 0;
#X connect 29 1 37 0;
#X connect 30 0 2 0;
#X connect 31 0 13 1;
#X connect 32 0 33 0;
#X connect 32 1 34 0;
#X connect 33 0 2 0;
#X connect 34 0 13 1;
#X connect 35 0 38 0;
#X connect 35 1 40 0;
#X connect 36 0 41 0;
#X connect 36 1 42 0;
#X connect 37 0 32 0;
#X connect 37 1 39 0;
#X connect 38 0 2 0;
#X connect 39 0 35 0;
#X connect 39 1 43 0;
#X connect 40 0 13 1;
#X connect 41 0 2 0;
#X connect 42 0 13 1;
#X connect 43 0 36 0;
#X connect 43 1 45 0;
#X connect 44 0 46 0;
#X connect 44 1 47 0;
#X connect 45 0 44 0;
#X connect 45 1 49 0;
#X connect 46 0 2 0;
#X connect 47 0 13 1;
#X connect 48 0 50 0;
#X connect 48 1 51 0;
#X connect 49 0 48 0;
#X connect 49 1 53 0;
#X connect 50 0 2 0;
#X connect 51 0 13 1;
#X connect 52 0 54 0;
#X connect 52 1 55 0;
#X connect 53 0 52 0;
#X connect 53 1 57 0;
#X connect 54 0 2 0;
#X connect 55 0 13 1;
#X connect 56 0 58 0;
#X connect 56 1 59 0;
#X connect 57 0 56 0;
#X connect 57 1 61 0;
#X connect 58 0 2 0;
#X connect 59 0 13 1;
#X connect 60 0 62 0;
#X connect 60 1 63 0;
#X connect 61 0 60 0;
#X connect 61 1 65 0;
#X connect 62 0 2 0;
#X connect 63 0 13 1;
#X connect 64 0 66 0;
#X connect 64 1 67 0;
#X connect 65 0 64 0;
#X connect 65 1 71 0;
#X connect 66 0 2 0;
#X connect 67 0 13 1;
#X connect 68 0 69 0;
#X connect 68 1 70 0;
#X connect 69 0 2 0;
#X connect 70 0 13 1;
#X connect 71 0 68 0;
#X connect 71 1 73 0;
#X connect 72 0 74 0;
#X connect 72 1 75 0;
#X connect 73 0 72 0;
#X connect 74 0 2 0;
#X connect 75 0 13 1;
#X connect 77 0 1 0;
#X connect 79 0 7 0;
#X connect 81 0 1 0;
#X connect 82 0 1 0;
#X connect 83 0 1 0;
#X connect 84 0 1 0;
#X connect 85 0 1 0;
