#N canvas 560 67 638 410 10;
#X obj 481 32 inlet dia_da_semana;
#X obj 254 279 outlet coordenadas;
#X obj 28 279 outlet linha_de_ônibus;
#X obj 28 32 inlet bus_id;
#X obj 254 32 inlet tempo_iter;
#N canvas 488 206 682 429 coordenadas_de_cada_stop_de_um_bus-id 0;
#X obj 29 16 inlet id_linha_de_ônibus;
#X obj 536 16 inlet dia_da_semana;
#X obj 333 16 inlet tempo_de_iteração;
#X obj 29 379 outlet linha_de_ônibus;
#X msg 29 48 buzu \$1;
#X obj 29 69 buzuDados;
#X obj 167 144 buzuDados, f 23;
#X obj 167 195 list split 1, f 18;
#X obj 198 219 list;
#X obj 198 173 del 400, f 23;
#X obj 167 123 cyclone/prepend stops;
#X obj 194 278 cyclone/prepend coordenadas;
#X obj 167 247 t b s;
#X obj 194 306 buzuDados, f 29;
#X obj 536 37 s \$0-dia;
#X obj 87 48 r \$0-dia;
#X obj 307 123 r \$0-dia;
#X obj 372 278 r \$0-dia;
#X text 467 157 Retorna os dados (linha_de_ônibus \, coordenadas)
de cada ponto de ônibus em determinado tempo de iteração, f 31
;
#X obj 194 379 outlet par_de_coordenadas;
#X obj 404 379 outlet bang_de_fim;
#X connect 0 0 4 0;
#X connect 1 0 14 0;
#X connect 2 0 9 1;
#X connect 4 0 5 0;
#X connect 5 0 10 0;
#X connect 5 0 3 0;
#X connect 6 0 7 0;
#X connect 7 0 12 0;
#X connect 7 1 8 1;
#X connect 7 2 20 0;
#X connect 8 0 7 0;
#X connect 9 0 8 0;
#X connect 10 0 6 0;
#X connect 11 0 13 0;
#X connect 12 0 9 0;
#X connect 12 1 11 0;
#X connect 13 0 19 0;
#X connect 15 0 5 1;
#X connect 16 0 6 1;
#X connect 17 0 13 1;
#X restore 28 99 pd coordenadas_de_cada_stop_de_um_bus-id;
#X f 76;
#X obj 481 279 outlet bang_de_fim;
#X obj 28 193 list prepend linha_de_onibus;
#X obj 28 212 t a b;
#X msg 55 232 format ss;
#X obj 254 193 list prepend linha_de_onibus;
#X obj 254 212 t a b;
#X msg 281 232 format sff;
#N canvas 784 277 399 300 escalonamento_das_coordenadas 0;
#X floatatom 47 163 5 0 0 0 - - -;
#X obj 54 192 pak;
#X floatatom 81 164 5 0 0 0 - - -;
#X obj 47 87 list split 1;
#X obj 81 113 cyclone/scale 0 1000 0 380;
#X obj 47 137 cyclone/scale 0 1000 380 0;
#X obj 25 24 inlet par_de_coordenadas_de_um_stops;
#X obj 25 229 outlet par_de_coordenadas_escalonada;
#X connect 0 0 1 1;
#X connect 1 0 7 0;
#X connect 2 0 1 0;
#X connect 3 0 5 0;
#X connect 3 1 4 0;
#X connect 4 0 2 0;
#X connect 5 0 0 0;
#X connect 6 0 3 0;
#X restore 254 147 pd escalonamento_das_coordenadas;
#X connect 0 0 5 2;
#X connect 3 0 5 0;
#X connect 4 0 5 1;
#X connect 5 0 7 0;
#X connect 5 1 13 0;
#X connect 5 2 6 0;
#X connect 7 0 8 0;
#X connect 8 0 2 0;
#X connect 8 1 9 0;
#X connect 9 0 2 0;
#X connect 10 0 11 0;
#X connect 11 0 1 0;
#X connect 11 1 12 0;
#X connect 12 0 1 0;
#X connect 13 0 10 0;
