#N canvas 571 116 604 364 10;
#X obj 475 12 inlet dia_da_semana;
#X obj 326 306 outlet coordenadas;
#X obj 39 12 inlet liga_desl~;
#X obj 178 12 inlet bus_id;
#X obj 326 12 inlet tempo_iter;
#N canvas 588 61 682 429 coordenadas_de_cada_stop_de_um_bus-id 1;
#X obj 29 16 inlet id_linha_de_ônibus;
#X obj 536 16 inlet dia_da_semana;
#X obj 333 16 inlet tempo_de_iteração;
#X obj 29 379 outlet linha_de_ônibus;
#X msg 29 48 buzu \$1;
#X obj 29 69 buzuDados;
#X obj 167 144 buzuDados, f 23;
#X obj 167 195 list split 1, f 18;
#X obj 198 219 list;
#X obj 198 173 del 400, f 23;
#X obj 167 123 cyclone/prepend stops;
#X obj 194 278 cyclone/prepend coordenadas;
#X obj 167 247 t b s;
#X obj 194 306 buzuDados, f 29;
#X obj 536 37 s \$0-dia;
#X obj 87 48 r \$0-dia;
#X obj 307 123 r \$0-dia;
#X obj 372 278 r \$0-dia;
#X text 467 157 Retorna os dados (linha_de_ônibus \, coordenadas)
de cada ponto de ônibus em determinado tempo de iteração, f 31
;
#X obj 194 379 outlet par_de_coordenadas;
#X obj 369 379 outlet bang_de_fim;
#X obj 55 125 prepend set;
#X msg 55 146 stops 7023-10-0;
#X obj 38 254 prepend set;
#X msg 38 275 coordenadas 720010607id;
#X obj 166 62 prepend set;
#X msg 166 83 buzu 1918;
#X obj 71 328 prepend set;
#X msg 71 349 698.11 210.13;
#X obj 300 221 bng 15 250 50 0 empty empty empty 17 7 0 10 -262144
-1 -1;
#X connect 0 0 4 0;
#X connect 1 0 14 0;
#X connect 2 0 9 1;
#X connect 4 0 5 0;
#X connect 4 0 25 0;
#X connect 5 0 3 0;
#X connect 5 0 10 0;
#X connect 6 0 7 0;
#X connect 7 0 12 0;
#X connect 7 1 8 1;
#X connect 7 2 20 0;
#X connect 7 2 29 0;
#X connect 8 0 7 0;
#X connect 9 0 8 0;
#X connect 10 0 6 0;
#X connect 10 0 21 0;
#X connect 11 0 13 0;
#X connect 11 0 23 0;
#X connect 12 0 9 0;
#X connect 12 1 11 0;
#X connect 13 0 19 0;
#X connect 13 0 27 0;
#X connect 15 0 5 1;
#X connect 16 0 6 1;
#X connect 17 0 13 1;
#X connect 21 0 22 0;
#X connect 22 0 6 0;
#X connect 23 0 24 0;
#X connect 24 0 13 0;
#X connect 25 0 26 0;
#X connect 26 0 5 0;
#X connect 27 0 28 0;
#X connect 29 0 20 0;
#X restore 178 79 pd coordenadas_de_cada_stop_de_um_bus-id;
#X f 50;
#X obj 39 306 outlet liga_desl~;
#X obj 475 306 outlet bang_de_fim;
#X msg 52 178 list liga_desl~ \$1;
#X obj 52 199 t a b;
#X msg 79 219 format si;
#X obj 175 197 t a b;
#X obj 175 167 list prepend coordenadas;
#X msg 202 217 format sff;
#X obj 341 112 list prepend set;
#X obj 341 133 list trim;
#X msg 341 154 1025-10-1;
#X obj 156 306 outlet OSCmessages;
#X connect 0 0 5 2;
#X connect 2 0 8 0;
#X connect 2 0 6 0;
#X connect 3 0 5 0;
#X connect 4 0 5 1;
#X connect 5 0 14 0;
#X connect 5 1 12 0;
#X connect 5 1 1 0;
#X connect 5 2 7 0;
#X connect 8 0 9 0;
#X connect 9 0 17 0;
#X connect 9 1 10 0;
#X connect 10 0 17 0;
#X connect 11 0 17 0;
#X connect 11 1 13 0;
#X connect 12 0 11 0;
#X connect 13 0 17 0;
#X connect 14 0 15 0;
#X connect 15 0 16 0;
