#N canvas 353 118 926 590 10;
#X declare -path ./biblioteca;
#X obj 25 17 inlet Entradas;
#X obj 251 17 inlet hora_do_transporte;
#X obj 474 17 inlet dia_da_semana;
#X obj 17 406 outlet taxa_de_variação_de_velocidade_média;
#X obj 316 406 outlet bang_de_dado_inválido;
#X obj 735 405 outlet velocidade_média_da_linha;
#X obj 330 163 velocidade_media_de_uma_linha;
#X obj 82 163 velocidades_medias_da_linha;
#X obj 82 95 t f f;
#X floatatom 116 214 10 0 0 0 - - -;
#X obj 82 256 /;
#X floatatom 82 294 10 0 0 0 - - -;
#X obj 82 315 moses 0;
#X floatatom 121 335 10 0 0 0 - - -;
#X obj 25 75 route bang;
#X obj 251 95 t f f;
#X obj 474 95 t f f;
#X obj 503 405 outlet velocidade_do_trajeto_atual;
#X obj 82 184 t f f f b;
#X obj 357 267 f;
#X obj 330 185 t f f;
#X obj 38 37 r pd~_id;
#X obj 259 40 r pd~_hora;
#X obj 484 46 r pd~_dia;
#X obj 308 548 stdout;
#X obj 12 430 list prepend taxa_de_variação_de_velocidade_média
;
#X obj 12 451 list trim;
#X obj 312 451 list trim;
#X obj 312 430 list prepend bang_de_dado_inválido;
#X obj 525 451 list trim;
#X obj 525 430 list prepend velocidade_do_trajeto_atual;
#X obj 775 451 list trim;
#X obj 775 430 list prepend velocidade_média_da_linha;
#X obj 740 24 declare -path ./biblioteca;
#X obj 742 48 dados_interscity;
#X obj 632 138 prepend set;
#X msg 632 159 1185;
#X obj 614 160 bng 15 250 50 0 empty empty empty 17 7 0 10 -262144
-1 -1;
#X obj 484 67 change;
#X obj 259 61 change;
#X connect 0 0 14 0;
#X connect 1 0 15 0;
#X connect 2 0 16 0;
#X connect 6 0 20 0;
#X connect 7 0 18 0;
#X connect 8 0 7 0;
#X connect 8 1 6 0;
#X connect 10 0 11 0;
#X connect 11 0 12 0;
#X connect 12 0 4 0;
#X connect 12 0 28 0;
#X connect 12 1 13 0;
#X connect 13 0 3 0;
#X connect 13 0 25 0;
#X connect 14 0 7 0;
#X connect 14 1 8 0;
#X connect 15 0 7 1;
#X connect 15 1 6 1;
#X connect 16 0 7 2;
#X connect 16 1 6 2;
#X connect 18 0 10 0;
#X connect 18 1 17 0;
#X connect 18 1 30 0;
#X connect 18 2 9 0;
#X connect 18 3 19 0;
#X connect 19 0 5 0;
#X connect 19 0 32 0;
#X connect 20 0 10 1;
#X connect 20 1 19 0;
#X connect 21 0 14 0;
#X connect 21 0 35 0;
#X connect 22 0 39 0;
#X connect 23 0 38 0;
#X connect 25 0 26 0;
#X connect 26 0 24 0;
#X connect 27 0 24 0;
#X connect 28 0 27 0;
#X connect 29 0 24 0;
#X connect 30 0 29 0;
#X connect 31 0 24 0;
#X connect 32 0 31 0;
#X connect 35 0 36 0;
#X connect 35 0 37 0;
#X connect 38 0 16 0;
#X connect 39 0 15 0;
