#N canvas 542 265 635 447 10;
#X obj 22 14 inlet id_da_linha_de_ônibus;
#X obj 425 16 inlet dia_da_semana;
#X obj 67 392 outlet distância_do_trajeto;
#X obj 412 392 outlet bang_de_fim;
#X msg 22 86 buzu \$1;
#X obj 22 107 buzuDados;
#X obj 40 136 gera_id_de_trajeto;
#X obj 40 188 list trim;
#X obj 40 219 buzuDados;
#X obj 425 37 t f f f;
#X obj 40 167 list prepend distancia;
#X obj 67 247 list-abs/list-lastx, f 21;
#X obj 67 268 list-abs/list-rev;
#X obj 67 315 list-abs/list-accum;
#X obj 67 341 t b f;
#X text 393 202 Soma todos os dados de distância dos percursos realizados
por uma linha de ônibus, f 23;
#X obj 238 392 outlet lista_de_distâncias;
#X obj 67 289 t a a, f 29;
#X connect 0 0 4 0;
#X connect 1 0 9 0;
#X connect 4 0 5 0;
#X connect 5 0 6 0;
#X connect 6 0 10 0;
#X connect 6 1 11 1;
#X connect 7 0 8 0;
#X connect 8 0 11 0;
#X connect 9 0 5 1;
#X connect 9 1 6 2;
#X connect 9 2 8 1;
#X connect 10 0 7 0;
#X connect 11 0 12 0;
#X connect 12 0 17 0;
#X connect 13 0 14 0;
#X connect 14 0 3 0;
#X connect 14 1 2 0;
#X connect 17 0 13 0;
#X connect 17 1 16 0;
