#N struct 1010-point float x0 float y0 float s;
#N struct 1010-grid float x0 float y0 float s;
#N canvas 194 74 608 704 10;
#X obj 166 266 else/slider2d;
#X obj 166 398 unpack f f;
#X obj 166 422 / 127;
#X obj 223 422 / 127;
#X floatatom 166 443 5 0 0 0 - - -;
#X floatatom 223 443 5 0 0 0 - - -;
#X obj 89 465 panner~;
#X text 71 472 X;
#X obj 106 521 panner~;
#X text 81 531 Y;
#X obj 288 15 inlet coordenadas;
#X obj 33 13 inlet~;
#X obj 317 85 list trim;
#X msg 317 106 189.56 374.57;
#X obj 317 64 list prepend set;
#X obj 281 184 list-abs/list-map;
#X obj 399 182 cyclone/scale 0 1000 0 127;
#X obj 417 345 list trim;
#X msg 417 367 46.1467 46.1467;
#X obj 417 324 list prepend set;
#X obj 281 225 list-abs/list-map;
#X obj 405 235 line;
#X msg 405 216 \$1 90;
#X text 68 605 1;
#X text 175 601 2;
#X text 264 607 3;
#X text 366 604 4;
#X obj 101 648 outlet~;
#X obj 191 648 outlet~;
#X obj 89 604 *~ 0.05;
#X obj 187 604 *~ 0.05;
#X obj 279 604 *~ 0.05;
#X obj 377 604 *~ 0.05;
#X text 149 245 1;
#X text 296 252 2;
#X text 144 383 3;
#X text 300 385 4;
#X obj 282 646 outlet~;
#X obj 372 646 outlet~;
#X obj 447 457 tgl 90 0 empty empty espacialização 3 40 0 10 -262144
-1 -1 0 1;
#X obj 432 441 bng 15 250 50 0 empty empty speaker_1 -17 -7 0 10 -262144
-1 -1;
#X obj 537 441 bng 15 250 50 0 empty empty speaker_2 -17 -7 0 10 -262144
-1 -1;
#X obj 537 548 bng 15 250 50 0 empty empty speaker_4 -17 23 0 10 -262144
-1 -1;
#X obj 431 548 bng 15 250 50 0 empty empty speaker_3 -17 23 0 10 -262144
-1 -1;
#X floatatom 146 152 5 0 127 0 - - -;
#X floatatom 191 152 5 0 127 0 - - -;
#X obj 146 172 pak f f;
#X obj 277 523 panner~;
#X text 252 533 Y;
#X obj 86 351 sig~ 1;
#X obj 16 559 else/numbox~;
#X obj 157 562 else/numbox~;
#X obj 281 580 else/numbox~;
#X obj 422 583 else/numbox~;
#X connect 0 0 1 0;
#X connect 1 0 2 0;
#X connect 1 1 3 0;
#X connect 2 0 4 0;
#X connect 3 0 5 0;
#X connect 4 0 6 1;
#X connect 5 0 8 1;
#X connect 5 0 47 1;
#X connect 6 0 8 0;
#X connect 6 1 47 0;
#X connect 8 0 31 0;
#X connect 8 0 50 0;
#X connect 8 1 29 0;
#X connect 8 1 51 0;
#X connect 10 0 14 0;
#X connect 10 0 15 0;
#X connect 11 0 6 0;
#X connect 12 0 13 0;
#X connect 14 0 12 0;
#X connect 15 0 20 0;
#X connect 15 1 16 0;
#X connect 16 0 15 1;
#X connect 17 0 18 0;
#X connect 19 0 17 0;
#X connect 20 0 19 0;
#X connect 20 0 0 0;
#X connect 20 1 22 0;
#X connect 21 0 20 1;
#X connect 22 0 21 0;
#X connect 29 0 27 0;
#X connect 30 0 28 0;
#X connect 31 0 37 0;
#X connect 32 0 38 0;
#X connect 44 0 46 0;
#X connect 45 0 46 1;
#X connect 46 0 0 0;
#X connect 47 0 32 0;
#X connect 47 0 52 0;
#X connect 47 1 30 0;
#X connect 47 1 53 0;
#X connect 49 0 6 0;
