#N canvas 548 186 573 476 10;
#X obj 40 25 inlet linha_de_ônibus;
#X obj 23 424 outlet id_de_trajeto;
#X obj 60 229 list split 1, f 21;
#X obj 100 253 list;
#X obj 201 25 inlet Velocidade_de_iteração;
#X obj 433 424 outlet bang_de_fim;
#X obj 60 132 buzuDados;
#X obj 60 64 list prepend stops;
#X obj 60 85 list trim;
#X obj 398 25 inlet dia_da_semana;
#X obj 100 274 t a a;
#X obj 127 305 list split 1, f 35;
#X obj 17 251 t b s, f 9;
#X obj 23 352 pack s s;
#X msg 23 373 \$2-\$1;
#X text 68 149 lista de stops;
#X text 70 376 id de trajeto;
#X obj 201 148 t f;
#X obj 17 269 del;
#X obj 60 172 t a a, f 13;
#X obj 220 218 list length;
#X obj 220 239 - 1;
#X obj 220 424 outlet quantidade_de_pares_gerados;
#X connect 0 0 7 0;
#X connect 2 0 12 0;
#X connect 2 1 3 1;
#X connect 3 0 10 0;
#X connect 4 0 17 0;
#X connect 6 0 19 0;
#X connect 7 0 8 0;
#X connect 8 0 6 0;
#X connect 9 0 6 1;
#X connect 10 0 2 0;
#X connect 10 1 11 0;
#X connect 11 0 13 0;
#X connect 11 2 5 0;
#X connect 12 0 18 0;
#X connect 12 1 13 1;
#X connect 13 0 14 0;
#X connect 14 0 1 0;
#X connect 17 0 18 1;
#X connect 18 0 3 0;
#X connect 19 0 2 0;
#X connect 19 1 20 0;
#X connect 20 0 21 0;
#X connect 21 0 22 0;
