#N canvas 0 22 1276 756 10;
#X obj 526 930 dac~;
#X obj 93 487 cycle~;
#X obj 539 828 hsl 128 15 0.01 1 0 0 empty empty empty -2 -8 0 10 -262144
-1 -1 9400 1;
#X obj 526 848 *~;
#X obj 585 848 tgl 15 0 empty empty empty 17 7 0 10 -262144 -1 -1 1
1;
#N canvas 0 0 450 300 (subpatch) 0;
#X array \$0-osc 2756 float 0;
#X coords 0 1 2755 -1 400 100 1 0 0;
#X restore 804 847 graph;
#X obj 585 879 metro 100;
#X obj 177 614 hsl 128 15 0.01 2.5 0 0 empty empty empty -2 -8 0 10
-262144 -1 -1 0 1;
#X obj 156 336 vsnapshot~;
#X obj 156 309 cycle~;
#X msg 34 312 bang;
#X obj 125 17 tgl 15 0 empty empty empty 17 7 0 10 -262144 -1 -1 1
1;
#X obj 70 417 mtof;
#X obj 156 381 +;
#X obj 156 427 *;
#X floatatom 171 401 5 0 0 0 - - -;
#X floatatom 171 355 5 0 0 0 - - -;
#X obj 222 336 vsnapshot~;
#X obj 222 309 cycle~;
#X obj 222 381 +;
#X obj 222 427 *;
#X floatatom 237 401 5 0 0 0 - - -;
#X floatatom 237 355 5 0 0 0 - - -;
#X obj 288 335 vsnapshot~;
#X obj 288 309 cycle~;
#X obj 288 381 +;
#X obj 288 427 *;
#X floatatom 303 401 5 0 0 0 - - -;
#X floatatom 303 355 5 0 0 0 - - -;
#X obj 354 336 vsnapshot~;
#X obj 354 309 cycle~;
#X obj 354 381 +;
#X obj 354 427 *;
#X floatatom 369 401 5 0 0 0 - - -;
#X floatatom 369 355 5 0 0 0 - - -;
#X obj 420 336 vsnapshot~;
#X obj 420 309 cycle~;
#X obj 420 381 +;
#X obj 420 427 *;
#X floatatom 435 401 5 0 0 0 - - -;
#X floatatom 435 355 5 0 0 0 - - -;
#X obj 486 336 vsnapshot~;
#X obj 486 309 cycle~;
#X obj 486 381 +;
#X obj 486 427 *;
#X floatatom 501 401 5 0 0 0 - - -;
#X floatatom 501 355 5 0 0 0 - - -;
#X obj 552 336 vsnapshot~;
#X obj 552 309 cycle~;
#X obj 552 381 +;
#X obj 552 427 *;
#X floatatom 567 401 5 0 0 0 - - -;
#X floatatom 567 355 5 0 0 0 - - -;
#X obj 618 336 vsnapshot~;
#X obj 618 309 cycle~;
#X obj 618 381 +;
#X obj 618 427 *;
#X floatatom 633 401 5 0 0 0 - - -;
#X floatatom 633 355 5 0 0 0 - - -;
#X obj 684 336 vsnapshot~;
#X obj 684 309 cycle~;
#X obj 684 381 +;
#X obj 684 427 *;
#X floatatom 699 401 5 0 0 0 - - -;
#X floatatom 699 355 5 0 0 0 - - -;
#X obj 750 336 vsnapshot~;
#X obj 750 309 cycle~;
#X obj 750 381 +;
#X obj 750 427 *;
#X floatatom 765 401 5 0 0 0 - - -;
#X floatatom 765 355 5 0 0 0 - - -;
#X obj 125 42 metro 0;
#X msg 454 270 0;
#X text 685 828 Master;
#X text 926 814 Oscilloscope;
#X text 802 401 Gain;
#X text 802 355 Offset;
#X text 778 204 Mod Freq;
#X obj 750 183 vsl 25 100 0 20 0 0 empty empty empty 0 -9 0 10 -262144
-1 -1 0 1;
#X msg 454 118 0;
#X obj 156 183 vsl 25 100 0 20 0 0 empty empty empty 0 -9 0 10 -262144
-1 -1 0 1;
#X obj 223 183 vsl 25 100 0 20 0 0 empty empty empty 0 -9 0 10 -262144
-1 -1 0 1;
#X obj 290 183 vsl 25 100 0 20 0 0 empty empty empty 0 -9 0 10 -262144
-1 -1 0 1;
#X obj 357 183 vsl 25 100 0 20 0 0 empty empty empty 0 -9 0 10 -262144
-1 -1 0 1;
#X obj 422 183 vsl 25 100 0 20 0 0 empty empty empty 0 -9 0 10 -262144
-1 -1 0 1;
#X obj 489 183 vsl 25 100 0 20 0 0 empty empty empty 0 -9 0 10 -262144
-1 -1 0 1;
#X obj 555 183 vsl 25 100 0 20 0 0 empty empty empty 0 -9 0 10 -262144
-1 -1 0 1;
#X obj 622 183 vsl 25 100 0 20 0 0 empty empty empty 0 -9 0 10 -262144
-1 -1 0 1;
#X obj 685 183 vsl 25 100 0 20 0 0 empty empty empty 0 -9 0 10 -262144
-1 -1 0 1;
#X obj 750 455 vsl 25 100 -1 1 0 0 empty empty empty 0 -9 0 10 -262144
-1 -1 4950 1;
#X obj 156 455 vsl 25 100 -1 1 0 0 empty empty empty 0 -9 0 10 -262144
-1 -1 4950 1;
#X obj 222 455 vsl 25 100 -1 1 0 0 empty empty empty 0 -9 0 10 -262144
-1 -1 4950 1;
#X obj 288 455 vsl 25 100 -1 1 0 0 empty empty empty 0 -9 0 10 -262144
-1 -1 4950 1;
#X obj 354 455 vsl 25 100 -1 1 0 0 empty empty empty 0 -9 0 10 -262144
-1 -1 4950 1;
#X obj 420 455 vsl 25 100 -1 1 0 0 empty empty empty 0 -9 0 10 -262144
-1 -1 4950 1;
#X obj 486 455 vsl 25 100 -1 1 0 0 empty empty empty 0 -9 0 10 -262144
-1 -1 4950 1;
#X obj 552 455 vsl 25 100 -1 1 0 0 empty empty empty 0 -9 0 10 -262144
-1 -1 4950 1;
#X obj 618 455 vsl 25 100 -1 1 0 0 empty empty empty 0 -9 0 10 -262144
-1 -1 4950 1;
#X obj 684 455 vsl 25 100 -1 1 0 0 empty empty empty 0 -9 0 10 -262144
-1 -1 4950 1;
#X text 610 848 Oscilloscope ON;
#X obj 125 69 s snaptrig;
#X obj 34 277 r snaptrig;
#X text 153 17 Mod ON;
#X obj 965 569 vsl 25 100 0 500 0 0 empty empty empty 0 -9 0 10 -262144
-1 -1 0 1;
#X obj 808 569 vsl 25 100 0 1 0 0 empty empty empty 0 -9 0 10 -262144
-1 -1 0 1;
#X obj 874 569 vsl 25 100 0 1 0 0 empty empty empty 0 -9 0 10 -262144
-1 -1 0 1;
#X text 963 60 Reset Synth;
#X msg 934 60 0;
#X obj 1127 536 cycle~;
#X obj 1201 672 *~;
#X obj 1160 613 hsl 128 15 0.01 2.5 0 0 empty empty empty -2 -8 0 10
-262144 -1 -1 0 1;
#X obj 1190 335 vsnapshot~;
#X obj 1190 308 cycle~;
#X msg 1068 311 bang;
#X obj 1190 380 +;
#X obj 1190 426 *;
#X floatatom 1205 400 5 0 0 0 - - -;
#X floatatom 1205 354 5 0 0 0 - - -;
#X obj 1256 335 vsnapshot~;
#X obj 1256 308 cycle~;
#X obj 1256 380 +;
#X obj 1256 426 *;
#X floatatom 1271 400 5 0 0 0 - - -;
#X floatatom 1271 354 5 0 0 0 - - -;
#X obj 1322 335 vsnapshot~;
#X obj 1322 308 cycle~;
#X obj 1322 380 +;
#X obj 1322 426 *;
#X floatatom 1337 400 5 0 0 0 - - -;
#X floatatom 1337 354 5 0 0 0 - - -;
#X obj 1388 335 vsnapshot~;
#X obj 1388 308 cycle~;
#X obj 1388 380 +;
#X obj 1388 426 *;
#X floatatom 1403 400 5 0 0 0 - - -;
#X floatatom 1403 354 5 0 0 0 - - -;
#X obj 1454 335 vsnapshot~;
#X obj 1454 308 cycle~;
#X obj 1454 380 +;
#X obj 1454 426 *;
#X floatatom 1469 400 5 0 0 0 - - -;
#X floatatom 1469 354 5 0 0 0 - - -;
#X obj 1520 335 vsnapshot~;
#X obj 1520 308 cycle~;
#X obj 1520 380 +;
#X obj 1520 426 *;
#X floatatom 1535 400 5 0 0 0 - - -;
#X floatatom 1535 354 5 0 0 0 - - -;
#X obj 1586 335 vsnapshot~;
#X obj 1586 308 cycle~;
#X obj 1586 380 +;
#X obj 1586 426 *;
#X floatatom 1601 400 5 0 0 0 - - -;
#X floatatom 1601 354 5 0 0 0 - - -;
#X obj 1652 335 vsnapshot~;
#X obj 1652 308 cycle~;
#X obj 1652 380 +;
#X obj 1652 426 *;
#X floatatom 1667 400 5 0 0 0 - - -;
#X floatatom 1667 354 5 0 0 0 - - -;
#X obj 1718 335 vsnapshot~;
#X obj 1718 308 cycle~;
#X obj 1718 380 +;
#X obj 1718 426 *;
#X floatatom 1733 400 5 0 0 0 - - -;
#X floatatom 1733 354 5 0 0 0 - - -;
#X obj 1784 335 vsnapshot~;
#X obj 1784 308 cycle~;
#X obj 1784 380 +;
#X obj 1784 426 *;
#X floatatom 1799 400 5 0 0 0 - - -;
#X floatatom 1800 355 5 0 0 0 - - -;
#X msg 1488 269 0;
#X text 1836 400 Gain;
#X text 1836 354 Offset;
#X text 1812 203 Mod Freq;
#X obj 1784 183 vsl 25 100 0 20 0 0 empty empty empty 0 -9 0 10 -262144
-1 -1 0 1;
#X msg 1488 118 0;
#X obj 1190 183 vsl 25 100 0 20 0 0 empty empty empty 0 -9 0 10 -262144
-1 -1 0 1;
#X obj 1257 183 vsl 25 100 0 20 0 0 empty empty empty 0 -9 0 10 -262144
-1 -1 0 1;
#X obj 1324 183 vsl 25 100 0 20 0 0 empty empty empty 0 -9 0 10 -262144
-1 -1 0 1;
#X obj 1391 183 vsl 25 100 0 20 0 0 empty empty empty 0 -9 0 10 -262144
-1 -1 0 1;
#X obj 1456 183 vsl 25 100 0 20 0 0 empty empty empty 0 -9 0 10 -262144
-1 -1 0 1;
#X obj 1523 183 vsl 25 100 0 20 0 0 empty empty empty 0 -9 0 10 -262144
-1 -1 0 1;
#X obj 1589 183 vsl 25 100 0 20 0 0 empty empty empty 0 -9 0 10 -262144
-1 -1 0 1;
#X obj 1656 183 vsl 25 100 0 20 0 0 empty empty empty 0 -9 0 10 -262144
-1 -1 0 1;
#X obj 1719 183 vsl 25 100 0 20 0 0 empty empty empty 0 -9 0 10 -262144
-1 -1 0 1;
#X obj 1784 454 vsl 25 100 -1 1 0 0 empty empty empty 0 -9 0 10 -262144
-1 -1 4950 1;
#X obj 1190 454 vsl 25 100 -1 1 0 0 empty empty empty 0 -9 0 10 -262144
-1 -1 4950 1;
#X obj 1256 454 vsl 25 100 -1 1 0 0 empty empty empty 0 -9 0 10 -262144
-1 -1 4950 1;
#X obj 1322 454 vsl 25 100 -1 1 0 0 empty empty empty 0 -9 0 10 -262144
-1 -1 4950 1;
#X obj 1388 454 vsl 25 100 -1 1 0 0 empty empty empty 0 -9 0 10 -262144
-1 -1 4950 1;
#X obj 1454 454 vsl 25 100 -1 1 0 0 empty empty empty 0 -9 0 10 -262144
-1 -1 4950 1;
#X obj 1520 454 vsl 25 100 -1 1 0 0 empty empty empty 0 -9 0 10 -262144
-1 -1 4950 1;
#X obj 1586 454 vsl 25 100 -1 1 0 0 empty empty empty 0 -9 0 10 -262144
-1 -1 4950 1;
#X obj 1652 454 vsl 25 100 -1 1 0 0 empty empty empty 0 -9 0 10 -262144
-1 -1 4950 1;
#X obj 1718 454 vsl 25 100 -1 1 0 0 empty empty empty 0 -9 0 10 -262144
-1 -1 4950 1;
#X obj 1068 276 r snaptrig;
#X obj 1128 697 *~;
#X obj 1216 642 r mod;
#X obj 93 697 *~;
#X text 1302 613 Voodoo;
#X obj 965 687 s mod;
#X obj 16 43 stripnote;
#X obj 16 13 notein 1, f 9;
#X obj 16 70 s midi;
#X obj 48 358 r midi;
#X obj 70 398 +;
#X floatatom 85 381 5 0 0 0 - - -;
#X text 88 361 Transpose;
#X obj 108 676 r car2dac;
#X obj 1142 672 r mod2dac;
#X obj 874 687 s mod2dac;
#X obj 808 687 s car2dac;
#X obj 1201 704 s~ 2car;
#X text 82 28 MIDI;
#X obj 187 672 *~;
#X obj 187 704 s~ 2mod;
#X obj 202 642 r crossmod;
#X obj 80 464 +~;
#X obj 96 444 r~ 2car;
#X obj 1127 513 +~;
#X obj 1142 488 r~ 2mod;
#X obj 1031 569 vsl 25 100 0 500 0 0 empty empty empty 0 -9 0 10 -262144
-1 -1 0 1;
#X obj 1031 684 s crossmod;
#X text 797 703 Carrier;
#X text 890 703 Modulator;
#X text 840 703 <To DAC>;
#X text 957 703 Modulator & XMOD Feedback;
#X obj 461 808 r~ daca;
#X obj 93 727 s~ daca;
#X obj 1128 727 s~ dacb;
#X obj 510 808 r~ dacb;
#X text 319 614 Voodoo;
#X obj 70 439 +;
#X obj 124 407 vsl 12 25 -1 1 0 0 empty empty empty 0 -9 0 10 -262144
-1 -1 1200 1;
#X text 116 390 Detune;
#X obj 1117 462 mtof;
#X obj 1085 373 r midi;
#X obj 1117 425 +;
#X floatatom 1132 396 5 0 0 0 - - -;
#X text 1125 376 Transpose;
#X obj 1118 487 +;
#X obj 1151 443 vsl 12 25 -1 1 0 0 empty empty empty 0 -9 0 10 -262144
-1 -1 1200 1;
#X text 1141 419 Detune;
#X obj 934 21 loadbang;
#X text 1470 604 MODULATOR;
#X text 432 604 CARRIER;
#X text 1439 729 NOTES FOR THIS PATCH:;
#X text 1337 860 OFFSET AND GAIN CONTROL MIN/MAX FUNCTIONALITY. FOR
EXAMPLE A LOWER GAIN REQUIRES A HIGHER OFFSET TO APPLY MODULATION TO
A LIMITED AMPLITUDE RANGE. THIS IS SCALED FROM -1 TO +1., f 62;
#X text 1337 924 https://www.youtube.com/user/systematika, f 62;
#X text 1337 905 GET YOUR NOISE ON :-) - JM, f 62;
#X text 1337 943 jmoorebnc@gmail.com, f 62;
#X text 1337 962 https://www.facebook.com/TEKSCIENZE;
#X text 1337 757 THIS IS A TWO OPERATOR FM OSCILLATOR DESIGN WITH CROSS
MODULATION THAT CAN ALSO FUNCTION AS AN ADDITIVE SYNTH SINCE IT USES
SINE HARMONIC TABLES TO DETERMINE WAVESHAPE.;
#X text 1337 802 THE SINE HARMONICS ARE CONTROLLED BY THREE PARAMETERS:
MOD FREQUENCY \, OFFSET \, AND GAIN. MOD FREQUENCY CONTROLS THE LFOS
CONNECTED TO EACH HARMONIC. THIS ALLOWS TO MORPH WAVESHAPES OVER TIME.
;
#X obj 93 581 sigpack/harmgen~, f 110;
#X obj 1127 580 sigpack/harmgen~, f 110;
#X obj 1127 639 sigpack/diode~;
#X obj 93 640 sigpack/diode~;
#X floatatom 79 71 5 0 0 0 - - -;
#X floatatom 1226 558 5 0 0 0 - - -;
#X obj 585 930 tabwrite~ \$0-osc;
#X connect 1 0 256 0;
#X connect 2 0 3 1;
#X connect 3 0 0 1;
#X connect 3 0 0 0;
#X connect 3 0 262 0;
#X connect 4 0 6 0;
#X connect 6 0 262 0;
#X connect 7 0 259 1;
#X connect 8 0 13 0;
#X connect 9 0 8 0;
#X connect 10 0 8 0;
#X connect 10 0 17 0;
#X connect 10 0 23 0;
#X connect 10 0 29 0;
#X connect 10 0 35 0;
#X connect 10 0 41 0;
#X connect 10 0 47 0;
#X connect 10 0 53 0;
#X connect 10 0 65 0;
#X connect 10 0 59 0;
#X connect 11 0 71 0;
#X connect 12 0 234 0;
#X connect 13 0 14 0;
#X connect 14 0 90 0;
#X connect 15 0 14 1;
#X connect 16 0 13 1;
#X connect 17 0 19 0;
#X connect 18 0 17 0;
#X connect 19 0 20 0;
#X connect 20 0 91 0;
#X connect 21 0 20 1;
#X connect 22 0 19 1;
#X connect 23 0 25 0;
#X connect 24 0 23 0;
#X connect 25 0 26 0;
#X connect 26 0 92 0;
#X connect 27 0 26 1;
#X connect 28 0 25 1;
#X connect 29 0 31 0;
#X connect 30 0 29 0;
#X connect 31 0 32 0;
#X connect 32 0 93 0;
#X connect 33 0 32 1;
#X connect 34 0 31 1;
#X connect 35 0 37 0;
#X connect 36 0 35 0;
#X connect 37 0 38 0;
#X connect 38 0 94 0;
#X connect 39 0 38 1;
#X connect 40 0 37 1;
#X connect 41 0 43 0;
#X connect 42 0 41 0;
#X connect 43 0 44 0;
#X connect 44 0 95 0;
#X connect 45 0 44 1;
#X connect 46 0 43 1;
#X connect 47 0 49 0;
#X connect 48 0 47 0;
#X connect 49 0 50 0;
#X connect 50 0 96 0;
#X connect 51 0 50 1;
#X connect 52 0 49 1;
#X connect 53 0 55 0;
#X connect 54 0 53 0;
#X connect 55 0 56 0;
#X connect 56 0 97 0;
#X connect 57 0 56 1;
#X connect 58 0 55 1;
#X connect 59 0 61 0;
#X connect 60 0 59 0;
#X connect 61 0 62 0;
#X connect 62 0 98 0;
#X connect 63 0 62 1;
#X connect 64 0 61 1;
#X connect 65 0 67 0;
#X connect 66 0 65 0;
#X connect 67 0 68 0;
#X connect 68 0 89 0;
#X connect 69 0 68 1;
#X connect 70 0 67 1;
#X connect 71 0 100 0;
#X connect 72 0 16 0;
#X connect 72 0 15 0;
#X connect 72 0 22 0;
#X connect 72 0 28 0;
#X connect 72 0 34 0;
#X connect 72 0 40 0;
#X connect 72 0 46 0;
#X connect 72 0 52 0;
#X connect 72 0 58 0;
#X connect 72 0 64 0;
#X connect 72 0 70 0;
#X connect 72 0 21 0;
#X connect 72 0 27 0;
#X connect 72 0 33 0;
#X connect 72 0 39 0;
#X connect 72 0 45 0;
#X connect 72 0 51 0;
#X connect 72 0 57 0;
#X connect 72 0 63 0;
#X connect 72 0 69 0;
#X connect 72 0 90 0;
#X connect 72 0 91 0;
#X connect 72 0 92 0;
#X connect 72 0 93 0;
#X connect 72 0 94 0;
#X connect 72 0 95 0;
#X connect 72 0 96 0;
#X connect 72 0 97 0;
#X connect 72 0 98 0;
#X connect 72 0 89 0;
#X connect 78 0 66 0;
#X connect 79 0 72 0;
#X connect 79 0 78 0;
#X connect 79 0 88 0;
#X connect 79 0 87 0;
#X connect 79 0 86 0;
#X connect 79 0 85 0;
#X connect 79 0 84 0;
#X connect 79 0 83 0;
#X connect 79 0 82 0;
#X connect 79 0 81 0;
#X connect 79 0 80 0;
#X connect 80 0 9 0;
#X connect 81 0 18 0;
#X connect 82 0 24 0;
#X connect 83 0 30 0;
#X connect 84 0 36 0;
#X connect 85 0 42 0;
#X connect 86 0 48 0;
#X connect 87 0 54 0;
#X connect 88 0 60 0;
#X connect 89 0 256 10;
#X connect 90 0 256 1;
#X connect 91 0 256 2;
#X connect 92 0 256 3;
#X connect 93 0 256 4;
#X connect 94 0 256 5;
#X connect 95 0 256 6;
#X connect 96 0 256 7;
#X connect 97 0 256 8;
#X connect 98 0 256 9;
#X connect 101 0 10 0;
#X connect 103 0 202 0;
#X connect 104 0 213 0;
#X connect 105 0 212 0;
#X connect 107 0 79 0;
#X connect 107 0 177 0;
#X connect 107 0 104 0;
#X connect 107 0 105 0;
#X connect 107 0 103 0;
#X connect 107 0 110 0;
#X connect 107 0 7 0;
#X connect 107 0 223 0;
#X connect 107 0 240 0;
#X connect 107 0 243 0;
#X connect 107 0 208 0;
#X connect 107 0 235 0;
#X connect 108 0 257 0;
#X connect 109 0 214 0;
#X connect 110 0 258 1;
#X connect 111 0 114 0;
#X connect 112 0 111 0;
#X connect 113 0 111 0;
#X connect 113 0 118 0;
#X connect 113 0 124 0;
#X connect 113 0 130 0;
#X connect 113 0 136 0;
#X connect 113 0 142 0;
#X connect 113 0 148 0;
#X connect 113 0 154 0;
#X connect 113 0 166 0;
#X connect 113 0 160 0;
#X connect 114 0 115 0;
#X connect 115 0 188 0;
#X connect 116 0 115 1;
#X connect 117 0 114 1;
#X connect 118 0 120 0;
#X connect 119 0 118 0;
#X connect 120 0 121 0;
#X connect 121 0 189 0;
#X connect 122 0 121 1;
#X connect 123 0 120 1;
#X connect 124 0 126 0;
#X connect 125 0 124 0;
#X connect 126 0 127 0;
#X connect 127 0 190 0;
#X connect 128 0 127 1;
#X connect 129 0 126 1;
#X connect 130 0 132 0;
#X connect 131 0 130 0;
#X connect 132 0 133 0;
#X connect 133 0 191 0;
#X connect 134 0 133 1;
#X connect 135 0 132 1;
#X connect 136 0 138 0;
#X connect 137 0 136 0;
#X connect 138 0 139 0;
#X connect 139 0 192 0;
#X connect 140 0 139 1;
#X connect 141 0 138 1;
#X connect 142 0 144 0;
#X connect 143 0 142 0;
#X connect 144 0 145 0;
#X connect 145 0 193 0;
#X connect 146 0 145 1;
#X connect 147 0 144 1;
#X connect 148 0 150 0;
#X connect 149 0 148 0;
#X connect 150 0 151 0;
#X connect 151 0 194 0;
#X connect 152 0 151 1;
#X connect 153 0 150 1;
#X connect 154 0 156 0;
#X connect 155 0 154 0;
#X connect 156 0 157 0;
#X connect 157 0 195 0;
#X connect 158 0 157 1;
#X connect 159 0 156 1;
#X connect 160 0 162 0;
#X connect 161 0 160 0;
#X connect 162 0 163 0;
#X connect 163 0 196 0;
#X connect 164 0 163 1;
#X connect 165 0 162 1;
#X connect 166 0 168 0;
#X connect 167 0 166 0;
#X connect 168 0 169 0;
#X connect 169 0 187 0;
#X connect 170 0 169 1;
#X connect 171 0 168 1;
#X connect 172 0 117 0;
#X connect 172 0 116 0;
#X connect 172 0 123 0;
#X connect 172 0 129 0;
#X connect 172 0 135 0;
#X connect 172 0 141 0;
#X connect 172 0 147 0;
#X connect 172 0 153 0;
#X connect 172 0 159 0;
#X connect 172 0 165 0;
#X connect 172 0 171 0;
#X connect 172 0 122 0;
#X connect 172 0 128 0;
#X connect 172 0 134 0;
#X connect 172 0 140 0;
#X connect 172 0 146 0;
#X connect 172 0 152 0;
#X connect 172 0 158 0;
#X connect 172 0 164 0;
#X connect 172 0 170 0;
#X connect 172 0 188 0;
#X connect 172 0 189 0;
#X connect 172 0 190 0;
#X connect 172 0 191 0;
#X connect 172 0 192 0;
#X connect 172 0 193 0;
#X connect 172 0 194 0;
#X connect 172 0 195 0;
#X connect 172 0 196 0;
#X connect 172 0 187 0;
#X connect 176 0 167 0;
#X connect 177 0 172 0;
#X connect 177 0 176 0;
#X connect 177 0 186 0;
#X connect 177 0 185 0;
#X connect 177 0 184 0;
#X connect 177 0 183 0;
#X connect 177 0 182 0;
#X connect 177 0 181 0;
#X connect 177 0 180 0;
#X connect 177 0 179 0;
#X connect 177 0 178 0;
#X connect 178 0 112 0;
#X connect 179 0 119 0;
#X connect 180 0 125 0;
#X connect 181 0 131 0;
#X connect 182 0 137 0;
#X connect 183 0 143 0;
#X connect 184 0 149 0;
#X connect 185 0 155 0;
#X connect 186 0 161 0;
#X connect 187 0 257 10;
#X connect 188 0 257 1;
#X connect 188 0 261 0;
#X connect 189 0 257 2;
#X connect 190 0 257 3;
#X connect 191 0 257 4;
#X connect 192 0 257 5;
#X connect 193 0 257 6;
#X connect 194 0 257 7;
#X connect 195 0 257 8;
#X connect 196 0 257 9;
#X connect 197 0 113 0;
#X connect 198 0 231 0;
#X connect 199 0 109 1;
#X connect 200 0 230 0;
#X connect 203 0 205 0;
#X connect 204 0 203 0;
#X connect 204 1 203 1;
#X connect 206 0 207 0;
#X connect 207 0 12 0;
#X connect 208 0 207 1;
#X connect 210 0 200 1;
#X connect 211 0 198 1;
#X connect 216 0 217 0;
#X connect 218 0 216 1;
#X connect 219 0 1 0;
#X connect 220 0 219 1;
#X connect 221 0 108 0;
#X connect 222 0 221 1;
#X connect 223 0 224 0;
#X connect 229 0 3 0;
#X connect 232 0 3 0;
#X connect 234 0 219 0;
#X connect 235 0 234 1;
#X connect 237 0 242 0;
#X connect 238 0 239 0;
#X connect 239 0 237 0;
#X connect 240 0 239 1;
#X connect 242 0 221 0;
#X connect 243 0 242 1;
#X connect 245 0 107 0;
#X connect 256 0 259 0;
#X connect 257 0 258 0;
#X connect 258 0 109 0;
#X connect 258 0 198 0;
#X connect 259 0 200 0;
#X connect 259 0 216 0;
#X connect 260 0 205 0;
