#N canvas 379 43 607 687 10;
#X floatatom 130 347 5 0 0 0 - - -;
#X msg 187 227 stop;
#X obj 276 304 buzuDados;
#X msg 276 276 buzu -1;
#X floatatom 276 331 5 0 0 0 - - -;
#N canvas 116 209 247 228 contador 0;
#X obj 32 117 f;
#X obj 32 49 inlet;
#X obj 32 188 outlet;
#X obj 75 117 + 1;
#X msg 141 84 -1;
#X obj 141 49 inlet;
#X text 67 47 entrada;
#X text 181 48 reset;
#X text 76 191 saída;
#X text 69 5 CONTADOR COM RESET;
#X connect 0 0 2 0;
#X connect 0 0 3 0;
#X connect 1 0 0 0;
#X connect 3 0 0 1;
#X connect 4 0 3 0;
#X connect 5 0 4 0;
#X restore 130 323 pd contador;
#X obj 292 82 inlet;
#X obj 130 131 bng 15 250 50 0 empty empty empty 17 7 0 10 -262144
-1 -1;
#X text 312 327 total de linhas de ônibus no dia, f 16;
#X obj 130 637 outlet;
#X obj 427 82 inlet;
#X obj 240 360 sel 10;
#N canvas 667 298 399 318 seletor 0;
#X obj 109 60 inlet;
#X obj 109 143 f;
#X obj 147 143 + 1;
#X obj 129 185 sel 1 2, f 15;
#X obj 109 112 bng 15 250 50 0 empty empty empty 17 7 0 10 -262144
-1 -1;
#X obj 89 217 bng 15 250 50 0 empty empty empty 17 7 0 10 -262144 -1
-1;
#X obj 172 217 bng 15 250 50 0 empty empty empty 17 7 0 10 -262144
-1 -1;
#X msg 214 102 1;
#X obj 89 282 outlet;
#X obj 172 282 outlet;
#X text 241 104 reseta contagem;
#X text 20 12 SELETOR - A cada bang recebido \, alterna bangs pelas
saídas.;
#X obj 214 81 loadbang;
#X connect 0 0 4 0;
#X connect 1 0 2 0;
#X connect 1 0 3 0;
#X connect 2 0 1 1;
#X connect 3 0 5 0;
#X connect 3 1 6 0;
#X connect 4 0 1 0;
#X connect 5 0 8 0;
#X connect 6 0 7 0;
#X connect 6 0 9 0;
#X connect 7 0 1 1;
#X connect 12 0 7 0;
#X restore 130 171 pd seletor;
#X obj 193 282 bng 15 250 50 0 empty empty empty 17 7 0 10 -262144
-1 -1;
#X obj 130 226 t b b b;
#X text 268 375 ao atingir o total de linhas de ônibus no dia \, o
[metro] é interrompido, f 22;
#X text 32 83 liga/desl;
#X text 192 83 tempo de leitura;
#X text 463 84 dia a ser analizado;
#X msg 130 481 buzu \$1;
#X obj 130 522 buzuDados;
#X text 64 350 índice da linha a ser recuperada, f 11;
#X obj 90 82 inlet;
#X text 125 71 1;
#X text 327 71 2;
#X text 463 71 3;
#X text 175 630 código da linha de ônibus;
#X text 12 16 MÁQUINA - Retorna um a um todos os códigos das linhas
de ônibus em um dia determinado com 1 bang, f 96;
#X obj 130 293 metro 180;
#X obj 277 201 list length;
#X obj 277 179 buzuDados, f 13;
#X obj 427 103 t f f f;
#X msg 277 154 buzu \$1;
#X obj 277 134 + 1;
#X obj 277 115 loadbang;
#X obj 277 226 * 5;
#X text 301 227 calcula tempo de leitura necessário para analizar
cada código, f 35;
#X obj 277 247 + 1;
#X connect 0 0 11 0;
#X connect 0 0 19 0;
#X connect 1 0 28 0;
#X connect 2 0 4 0;
#X connect 3 0 2 0;
#X connect 4 0 11 1;
#X connect 5 0 0 0;
#X connect 6 0 35 1;
#X connect 7 0 12 0;
#X connect 10 0 31 0;
#X connect 11 0 7 0;
#X connect 12 0 14 0;
#X connect 12 1 1 0;
#X connect 13 0 5 1;
#X connect 14 0 28 0;
#X connect 14 1 13 0;
#X connect 14 2 3 0;
#X connect 19 0 20 0;
#X connect 20 0 9 0;
#X connect 22 0 7 0;
#X connect 28 0 5 0;
#X connect 29 0 35 0;
#X connect 30 0 29 0;
#X connect 31 0 20 1;
#X connect 31 1 2 1;
#X connect 31 2 30 1;
#X connect 32 0 30 0;
#X connect 33 0 32 0;
#X connect 34 0 33 0;
#X connect 35 0 37 0;
#X connect 37 0 28 1;
