#N canvas 0 22 1245 672 10;
#X obj 89 182 spigot;
#X obj 122 157 tgl 15 0 empty \$0-LOOP_1 LOOP_1 17 7 0 10 -262144 -1
-1 0 1;
#X floatatom 89 268 5 0 0 0 - - -;
#X obj 223 380 bng 15 250 50 0 empty empty empty 17 7 0 10 -262144
-1 -1;
#X obj 22 154 tgl 11 0 empty \$0-Som_ON/OFF_1 Som_ON/OFF_1 17 7 0 10
-258113 -1 -1 0 1;
#X obj 89 244 urn 2120;
#X floatatom 156 227 5 0 0 1 tempo_de_interação #0-tempo_de_interação
-;
#X obj 382 615 outlet mensagem_oscformat;
#X obj 223 342 r \$0-dia;
#X obj 89 453 oscformat /buzu/melodias_buzin/test;
#X obj 382 453 oscformat /buzu/melodias_buzin/puts;
#X obj 682 453 oscformat /buzu/melodias_buzin/bean;
#X obj 950 453 oscformat /buzu/melodias_buzin/anuns;
#X obj 382 192 spigot;
#X obj 415 167 tgl 15 0 empty \$0-LOOP_2 LOOP_2 17 7 0 10 -262144 -1
-1 0 1;
#X floatatom 382 268 5 0 0 0 - - -;
#X obj 516 379 bng 15 250 50 0 empty empty empty 17 7 0 10 -262144
-1 -1;
#X obj 315 164 tgl 11 0 empty \$0-Som_ON/OFF_2 Som_ON/OFF_2 17 7 0
10 -258113 -1 -1 0 1;
#X obj 382 244 urn 2120;
#X floatatom 449 237 5 0 0 1 tempo_de_interação #0-tempo_de_interação
-;
#X obj 516 342 r \$0-dia;
#X obj 682 189 spigot;
#X obj 715 164 tgl 15 0 empty \$0-LOOP_3 LOOP_3 17 7 0 10 -262144 -1
-1 0 1;
#X floatatom 682 265 5 0 0 0 - - -;
#X obj 816 376 bng 15 250 50 0 empty empty empty 17 7 0 10 -262144
-1 -1;
#X obj 615 161 tgl 11 0 empty \$0-Som_ON/OFF_3 Som_ON/OFF_3 17 7 0
10 -258113 -1 -1 0 1;
#X obj 682 241 urn 2120;
#X floatatom 749 234 5 0 0 1 tempo_de_interação #0-tempo_de_interação
-;
#X obj 816 339 r \$0-dia;
#X obj 950 188 spigot;
#X obj 983 163 tgl 15 0 empty \$0-LOOP_4 LOOP_4 17 7 0 10 -262144 -1
-1 0 1;
#X floatatom 950 264 5 0 0 0 - - -;
#X obj 1084 375 bng 15 250 50 0 empty empty empty 17 7 0 10 -262144
-1 -1;
#X obj 883 160 tgl 11 0 empty \$0-Som_ON/OFF_4 Som_ON/OFF_4 17 7 0
10 -258113 -1 -1 0 1;
#X obj 950 240 urn 2120;
#X floatatom 1017 233 5 0 0 1 tempo_de_interação #0-tempo_de_interação
-;
#X obj 1084 338 r \$0-dia;
#X obj 21 12 inlet On/Off;
#X obj 166 11 inlet loop;
#X obj 296 13 inlet tempo_de_iteração;
#X obj 315 361 dados_para_melodia_buzin, f 34;
#X obj 615 358 dados_para_melodia_buzin, f 34;
#X obj 22 361 dados_para_melodia_buzin, f 34;
#X obj 883 357 dados_para_melodia_buzin, f 34;
#X obj 34 221 r \$0-melodiasbang;
#X obj 343 219 r \$0-melodiasbang;
#X obj 624 220 r \$0-melodiasbang;
#X obj 895 217 r \$0-melodiasbang;
#X obj 296 54 s \$0-tempo_de_interação;
#N canvas 271 341 638 367 densidade 0;
#X obj 34 39 r \$0-hora;
#X obj 275 93 moses 10;
#X obj 344 94 moses 17;
#X obj 34 95 moses 2;
#X obj 105 98 moses 3;
#X obj 405 94 moses 22;
#X obj 473 93 moses 22;
#X obj 540 93 moses 24;
#X obj 162 97 moses 5;
#X obj 217 95 moses 6;
#X msg 80 166 0 0 0 0;
#X msg 148 169 1 0 0 0;
#X msg 216 169 1 1 0 0;
#X msg 285 167 1 1 1 0;
#X msg 394 162 1 1 1 1;
#X obj 148 215 unpack 0 0 0 0;
#X obj 63 285 t f f;
#X obj 184 285 t f f;
#X obj 305 285 t f f;
#X obj 426 285 t f f;
#X obj 90 307 s \$0-LOOP_1;
#X obj 63 328 s \$0-Som_ON/OFF_1;
#X obj 211 307 s \$0-LOOP_2;
#X obj 184 328 s \$0-Som_ON/OFF_2;
#X obj 332 307 s \$0-LOOP_3;
#X obj 305 328 s \$0-Som_ON/OFF_3;
#X obj 453 307 s \$0-LOOP_4;
#X obj 426 328 s \$0-Som_ON/OFF_4;
#X connect 0 0 3 0;
#X connect 1 0 14 0;
#X connect 1 1 2 0;
#X connect 2 0 13 0;
#X connect 2 1 5 0;
#X connect 3 0 11 0;
#X connect 3 1 4 0;
#X connect 4 0 10 0;
#X connect 4 1 8 0;
#X connect 5 1 6 0;
#X connect 6 0 13 0;
#X connect 6 1 7 0;
#X connect 7 0 12 0;
#X connect 8 0 11 0;
#X connect 8 1 9 0;
#X connect 9 0 12 0;
#X connect 9 1 1 0;
#X connect 10 0 15 0;
#X connect 11 0 15 0;
#X connect 12 0 15 0;
#X connect 13 0 15 0;
#X connect 14 0 15 0;
#X connect 15 0 16 0;
#X connect 15 1 17 0;
#X connect 15 2 18 0;
#X connect 15 3 19 0;
#X connect 16 0 21 0;
#X connect 16 1 20 0;
#X connect 17 0 23 0;
#X connect 17 1 22 0;
#X connect 18 0 25 0;
#X connect 18 1 24 0;
#X connect 19 0 27 0;
#X connect 19 1 26 0;
#X restore 698 64 pd densidade;
#N canvas 455 415 450 300 route_messages 0;
#X obj 31 14 inlet On/Off;
#X obj 31 62 route bang, f 20;
#X obj 31 93 s \$0-melodiasbang;
#X obj 148 118 t b b b b;
#X obj 208 137 s \$0-Som_ON/OFF_1;
#X obj 208 156 s \$0-Som_ON/OFF_2;
#X obj 208 175 s \$0-Som_ON/OFF_3;
#X obj 208 194 s \$0-Som_ON/OFF_4;
#X connect 0 0 1 0;
#X connect 1 0 2 0;
#X connect 1 1 3 0;
#X connect 3 0 4 0;
#X connect 3 1 5 0;
#X connect 3 2 6 0;
#X connect 3 3 7 0;
#X restore 21 55 pd route_messages;
#N canvas 455 415 450 300 route_messages 0;
#X obj 111 78 s \$0-LOOP_1;
#X obj 111 108 s \$0-LOOP_2;
#X obj 111 138 s \$0-LOOP_3;
#X obj 111 168 s \$0-LOOP_4;
#X obj 32 59 t f f f f;
#X obj 31 14 inlet LOOP;
#X connect 4 0 0 0;
#X connect 4 1 1 0;
#X connect 4 2 2 0;
#X connect 4 3 3 0;
#X connect 5 0 4 0;
#X restore 166 53 pd route_messages;
#X obj 156 421 s coordenadas_test;
#X obj 449 421 s coordenadas_puts;
#X obj 1017 418 s coordenadas_anuns;
#X obj 749 418 s coordenadas_bean;
#X obj 98 294 s id_linha_test;
#X obj 398 294 s id_linha_puts;
#X obj 695 294 s id_linha_bean;
#X obj 958 294 s id_linha_anuns;
#X obj 180 398 s endbang_test;
#X obj 473 398 s endbang_puts;
#X obj 773 395 s endbang_bean;
#X obj 1041 395 s endbang_anuns;
#X connect 0 0 5 0;
#X connect 1 0 0 1;
#X connect 2 0 42 1;
#X connect 2 0 56 0;
#X connect 3 0 0 0;
#X connect 3 0 60 0;
#X connect 4 0 42 0;
#X connect 5 0 2 0;
#X connect 6 0 42 2;
#X connect 8 0 42 3;
#X connect 9 0 7 0;
#X connect 10 0 7 0;
#X connect 11 0 7 0;
#X connect 12 0 7 0;
#X connect 13 0 18 0;
#X connect 14 0 13 1;
#X connect 15 0 57 0;
#X connect 15 0 40 1;
#X connect 16 0 13 0;
#X connect 16 0 61 0;
#X connect 17 0 40 0;
#X connect 18 0 15 0;
#X connect 19 0 40 2;
#X connect 20 0 40 3;
#X connect 21 0 26 0;
#X connect 22 0 21 1;
#X connect 23 0 58 0;
#X connect 23 0 41 1;
#X connect 24 0 21 0;
#X connect 24 0 62 0;
#X connect 25 0 41 0;
#X connect 26 0 23 0;
#X connect 27 0 41 2;
#X connect 28 0 41 3;
#X connect 29 0 34 0;
#X connect 30 0 29 1;
#X connect 31 0 59 0;
#X connect 31 0 43 1;
#X connect 32 0 29 0;
#X connect 32 0 63 0;
#X connect 33 0 43 0;
#X connect 34 0 31 0;
#X connect 35 0 43 2;
#X connect 36 0 43 3;
#X connect 37 0 50 0;
#X connect 38 0 51 0;
#X connect 39 0 48 0;
#X connect 40 1 10 0;
#X connect 40 2 53 0;
#X connect 40 3 16 0;
#X connect 41 1 11 0;
#X connect 41 2 55 0;
#X connect 41 3 24 0;
#X connect 42 1 9 0;
#X connect 42 2 52 0;
#X connect 42 3 3 0;
#X connect 43 1 12 0;
#X connect 43 2 54 0;
#X connect 43 3 32 0;
#X connect 44 0 5 0;
#X connect 45 0 18 0;
#X connect 46 0 26 0;
#X connect 47 0 34 0;
