#N canvas 369 211 838 518 10;
#N canvas 784 340 399 459 table 0;
#X obj 17 17 cnv 15 298 198 empty empty empty 20 12 0 14 -233017 -66577
0;
#N canvas 0 22 450 278 (subpatch) 0;
#X array \$0-table 1027 float 0;
#X coords 0 1 1026 -1 300 200 1 0 0;
#X restore 16 17 graph;
#X obj 20 354 list trim;
#X obj 20 334 list prepend set;
#X obj 20 315 list prepend \$0-table sinesum;
#X floatatom 171 264 10 0 0 0 - - -;
#X obj 20 375 t b a, f 6;
#N canvas 0 22 512 277 waveshape 0;
#X msg 200 103 1219-table sinesum 1024 188 531.13 342.24 0;
#X obj 200 124 cyclone/prepend add2;
#X msg 145 111 addsemi;
#X msg 87 168, f 7;
#X msg 58 106 set;
#X obj 58 71 t b b b b a, f 20;
#X obj 58 31 inlet mensagem;
#X connect 0 0 1 0;
#X connect 1 0 3 0;
#X connect 2 0 3 0;
#X connect 4 0 3 0;
#X connect 5 0 4 0;
#X connect 5 1 3 0;
#X connect 5 2 0 0;
#X connect 5 3 2 0;
#X connect 5 4 0 0;
#X connect 6 0 5 0;
#X restore 53 400 pd waveshape;
#N canvas 487 256 450 255 wave_normalize 0;
#X obj 189 136 list trim;
#X obj 189 115 list store add2 \$0-table normalize;
#X msg 88 121 addsemi;
#X msg 48 122 set;
#X msg 147 178;
#X obj 129 90 t b b b b;
#X obj 129 24 inlet bang;
#X connect 0 0 4 0;
#X connect 1 0 0 0;
#X connect 2 0 4 0;
#X connect 3 0 4 0;
#X connect 5 0 3 0;
#X connect 5 1 4 0;
#X connect 5 2 1 0;
#X connect 5 3 2 0;
#X connect 6 0 5 0;
#X restore 20 423 pd wave_normalize;
#X floatatom 247 264 10 0 0 0 - - -;
#X floatatom 323 264 10 0 0 0 - - -;
#X floatatom 95 264 10 0 0 0 - - -;
#X obj 20 294 cyclone/pak 1024 f f f f, f 51;
#X obj 17 226 else/initmess \; \$0-table sinesum 1024 188 531.13 342.24
0 \, normalize;
#X connect 2 0 6 0;
#X connect 3 0 2 0;
#X connect 4 0 3 0;
#X connect 5 0 12 2;
#X connect 6 0 8 0;
#X connect 6 1 7 0;
#X connect 9 0 12 3;
#X connect 10 0 12 4;
#X connect 11 0 12 1;
#X connect 12 0 4 0;
#X restore 5 5 pd table;
#X obj 275 319 outlet~;
#N canvas 423 286 562 498 subwoof 0;
#X msg 47 229 interp \$1;
#X obj 47 202 tgl 16 0 empty empty empty 17 7 0 10 -228856 -1 -1 1
1;
#X msg 47 181 1;
#X obj 28 91 loadbang;
#X obj 334 459 outlet~;
#X obj 333 331 *~;
#X floatatom 367 81 5 0 3 0 - - -;
#X obj 333 350 else/fold~;
#X obj 192 278 else/brickwall~ 66;
#X obj 192 113 *~ 666;
#X obj 414 309 else/fold~;
#X floatatom 291 240 5 0 0 0 - - -;
#X msg 67 136 seed 639;
#X obj 192 299 else/hip.bw~ 33;
#X obj 415 287 *~ 3.36;
#X obj 415 244 phasor~ 0.63;
#X floatatom 227 94 5 0 0 0 - - -;
#X floatatom 415 207 5 0 0 0 - - -;
#X obj 192 257 else/lfnoise~ 900;
#X obj 120 44 inlet~;
#X obj 367 43 inlet intensidade_0-3;
#X obj 367 154 line 1 100;
#X msg 367 101 \$1 100;
#X obj 334 402 *~ 0.5;
#X msg 28 259 0.5;
#X obj 28 280 s \$0-vol_subwoof;
#X obj 28 112 t b b b;
#X obj 415 265 osc~;
#X connect 0 0 18 0;
#X connect 1 0 0 0;
#X connect 2 0 1 0;
#X connect 3 0 26 0;
#X connect 5 0 7 0;
#X connect 6 0 22 0;
#X connect 7 0 23 0;
#X connect 8 0 13 0;
#X connect 9 0 18 0;
#X connect 10 0 5 1;
#X connect 11 0 18 1;
#X connect 12 0 18 0;
#X connect 13 0 5 0;
#X connect 14 0 10 0;
#X connect 15 0 27 0;
#X connect 16 0 9 1;
#X connect 17 0 15 0;
#X connect 18 0 8 0;
#X connect 19 0 9 0;
#X connect 20 0 6 0;
#X connect 21 0 23 1;
#X connect 22 0 21 0;
#X connect 23 0 4 0;
#X connect 24 0 25 0;
#X connect 26 0 24 0;
#X connect 26 1 2 0;
#X connect 26 2 12 0;
#X connect 27 0 14 0;
#X restore 125 154 pd subwoof;
#X obj 182 87 vsl 12 60 0 2 0 0 empty \$0-vol_subwoof empty 0 -9 0
10 -232576 -1 -1 1327 1;
#X obj 100 16 loadbang;
#N canvas 81 59 1486 1058 harmonicos 0;
#X obj 745 610 +~ 1;
#X obj 745 568 phasor~ 60;
#X obj 745 589 else/tabreader~ \$0-table;
#X floatatom 832 530 5 0 1 0 - - -;
#X obj 324 746 +~;
#X obj 358 993 outlet~;
#X obj 652 155 s \$0-initphasor_1;
#X msg 652 134 0;
#X obj 802 549 r \$0-initphasor_1;
#X obj 565 610 +~ 1;
#X obj 565 568 phasor~ 60;
#X obj 565 589 else/tabreader~ \$0-table;
#X floatatom 652 530 5 0 1 0 - - -;
#X obj 622 549 r \$0-initphasor_1;
#X obj 385 610 +~ 1;
#X obj 385 568 phasor~ 60;
#X obj 385 589 else/tabreader~ \$0-table;
#X floatatom 472 530 5 0 1 0 - - -;
#X obj 442 549 r \$0-initphasor_1;
#X obj 215 610 +~ 1;
#X obj 215 568 phasor~ 60;
#X obj 215 589 else/tabreader~ \$0-table;
#X floatatom 302 530 5 0 1 0 - - -;
#X obj 272 549 r \$0-initphasor_1;
#X obj 35 610 +~ 1;
#X obj 35 568 phasor~ 60;
#X obj 35 589 else/tabreader~ \$0-table;
#X floatatom 122 530 5 0 1 0 - - -;
#X obj 92 549 r \$0-initphasor_1;
#X obj 925 610 +~ 1;
#X obj 925 568 phasor~ 60;
#X obj 925 589 else/tabreader~ \$0-table;
#X floatatom 1012 530 5 0 1 0 - - -;
#X obj 982 549 r \$0-initphasor_1;
#X floatatom 102 224 7 0 0 0 - - -;
#X floatatom 706 215 7 0 0 0 - - -;
#X obj 421 398 +;
#X obj 421 419 *;
#X obj 461 398 +;
#X obj 461 419 *;
#X obj 501 398 +;
#X obj 501 419 *;
#X obj 541 398 +;
#X obj 541 419 *;
#X obj 581 398 +;
#X obj 581 419 *;
#X obj 621 398 +;
#X obj 621 419 *;
#X obj 653 317 +;
#X obj 694 317 +;
#X obj 731 318 +;
#X obj 771 318 +;
#X obj 811 318 +;
#X obj 851 318 +;
#X obj 175 318 *;
#X obj 215 318 *;
#X obj 255 318 *;
#X obj 295 318 *;
#X obj 335 318 *;
#X obj 135 318 * 1;
#X obj 105 118 hsl 128 15 0.985 0.998 0 0 empty empty empty -2 -8 0
10 -262144 -1 -1 9607 1;
#X obj 1102 610 +~ 1;
#X obj 1102 568 phasor~ 60;
#X obj 1102 589 else/tabreader~ \$0-table;
#X floatatom 1189 530 5 0 1 0 - - -;
#X obj 1159 549 r \$0-initphasor_1;
#X obj 1282 610 +~ 1;
#X obj 1282 568 phasor~ 60;
#X obj 1282 589 else/tabreader~ \$0-table;
#X floatatom 1369 530 5 0 1 0 - - -;
#X obj 1339 549 r \$0-initphasor_1;
#X obj 658 398 +;
#X obj 658 419 *;
#X obj 698 398 +;
#X obj 698 419 *;
#X obj 888 318 +;
#X obj 928 318 +;
#X obj 372 318 *;
#X obj 412 318 *;
#X obj 102 254 t b f f f f f f f f, f 30;
#X obj 698 254 t b f f f f f f f f, f 30;
#X obj 102 12 inlet taxa_de_velocidade_média;
#X floatatom 102 33 5 0 0 0 - - -;
#X obj 102 71 cyclone/scale 0 1.5 0.985 0.998;
#X obj 102 199 line;
#X obj 438 12 inlet velocidade_do_trajeto_atual;
#X floatatom 438 33 5 0 0 0 - - -;
#X obj 510 88 loadbang;
#X obj 102 145 spigot;
#X floatatom 438 74 5 0 0 0 - - -;
#X obj 438 53 != -1;
#X obj 477 62 sel 0;
#X msg 430 149 1;
#X obj 438 115 change;
#X msg 517 318 111;
#X msg 543 149 0.01;
#X obj 490 121 bng 15 250 50 0 empty empty empty 17 7 0 10 -262144
-1 -1;
#X obj 438 94 t f f;
#X msg 560 46 -1;
#X obj 35 631 *~ 0.6, f 15;
#X obj 215 631 *~ 0.366, f 15;
#X obj 385 631 *~ 0.036, f 15;
#X obj 565 631 *~ 0.06, f 15;
#X obj 745 631 *~ 0.03, f 15;
#X obj 925 631 *~ 0.3, f 15;
#X obj 1102 631 *~ 0.6, f 15;
#X obj 1282 631 *~ 0.69, f 15;
#X msg 102 178 \$1 980;
#X obj 541 854 else/fbdelay~ 99 33;
#X obj 611 891 else/fbdelay~ 69 99;
#X obj 576 950 else/fbdelay~ 18 33;
#X obj 542 809 else/fbdelay~ 18 36;
#X obj 324 767 *~ 0.015;
#X connect 0 0 103 0;
#X connect 1 0 2 0;
#X connect 2 0 0 0;
#X connect 3 0 103 1;
#X connect 4 0 112 0;
#X connect 7 0 6 0;
#X connect 8 0 1 1;
#X connect 9 0 102 0;
#X connect 10 0 11 0;
#X connect 11 0 9 0;
#X connect 12 0 102 1;
#X connect 13 0 10 1;
#X connect 14 0 101 0;
#X connect 15 0 16 0;
#X connect 16 0 14 0;
#X connect 17 0 101 1;
#X connect 18 0 15 1;
#X connect 19 0 100 0;
#X connect 20 0 21 0;
#X connect 21 0 19 0;
#X connect 22 0 100 1;
#X connect 23 0 20 1;
#X connect 24 0 99 0;
#X connect 25 0 26 0;
#X connect 26 0 24 0;
#X connect 27 0 99 1;
#X connect 28 0 25 1;
#X connect 29 0 104 0;
#X connect 30 0 31 0;
#X connect 31 0 29 0;
#X connect 32 0 104 1;
#X connect 33 0 30 1;
#X connect 34 0 79 0;
#X connect 35 0 80 0;
#X connect 36 0 37 0;
#X connect 37 0 25 0;
#X connect 38 0 39 0;
#X connect 39 0 20 0;
#X connect 40 0 41 0;
#X connect 41 0 15 0;
#X connect 42 0 43 0;
#X connect 43 0 10 0;
#X connect 44 0 45 0;
#X connect 45 0 1 0;
#X connect 46 0 47 0;
#X connect 47 0 30 0;
#X connect 48 0 49 0;
#X connect 48 0 36 1;
#X connect 49 0 50 0;
#X connect 49 0 38 1;
#X connect 50 0 51 0;
#X connect 50 0 40 1;
#X connect 51 0 52 0;
#X connect 51 0 42 1;
#X connect 52 0 53 0;
#X connect 52 0 44 1;
#X connect 53 0 46 1;
#X connect 53 0 75 0;
#X connect 54 0 55 0;
#X connect 54 0 39 1;
#X connect 55 0 56 0;
#X connect 55 0 41 1;
#X connect 56 0 57 0;
#X connect 56 0 43 1;
#X connect 57 0 58 0;
#X connect 57 0 45 1;
#X connect 58 0 47 1;
#X connect 58 0 77 0;
#X connect 59 0 54 0;
#X connect 59 0 37 1;
#X connect 60 0 88 0;
#X connect 61 0 105 0;
#X connect 62 0 63 0;
#X connect 63 0 61 0;
#X connect 64 0 105 1;
#X connect 65 0 62 1;
#X connect 66 0 106 0;
#X connect 67 0 68 0;
#X connect 68 0 66 0;
#X connect 69 0 106 1;
#X connect 70 0 67 1;
#X connect 71 0 72 0;
#X connect 72 0 62 0;
#X connect 73 0 74 0;
#X connect 74 0 67 0;
#X connect 75 0 76 0;
#X connect 75 0 71 1;
#X connect 76 0 73 1;
#X connect 77 0 78 0;
#X connect 77 0 72 1;
#X connect 78 0 74 1;
#X connect 79 0 94 0;
#X connect 79 1 59 0;
#X connect 79 2 54 1;
#X connect 79 3 55 1;
#X connect 79 4 56 1;
#X connect 79 5 57 1;
#X connect 79 6 58 1;
#X connect 79 7 77 1;
#X connect 79 8 78 1;
#X connect 80 0 94 0;
#X connect 80 1 48 0;
#X connect 80 2 49 1;
#X connect 80 3 50 1;
#X connect 80 4 51 1;
#X connect 80 5 52 1;
#X connect 80 6 53 1;
#X connect 80 7 75 1;
#X connect 80 8 76 1;
#X connect 81 0 82 0;
#X connect 82 0 83 0;
#X connect 83 0 60 0;
#X connect 84 0 34 0;
#X connect 85 0 86 0;
#X connect 86 0 90 0;
#X connect 87 0 96 0;
#X connect 88 0 107 0;
#X connect 89 0 97 0;
#X connect 90 0 89 0;
#X connect 91 0 96 0;
#X connect 92 0 107 0;
#X connect 93 0 91 0;
#X connect 94 0 36 0;
#X connect 94 0 46 0;
#X connect 94 0 44 0;
#X connect 94 0 42 0;
#X connect 94 0 40 0;
#X connect 94 0 38 0;
#X connect 94 0 71 0;
#X connect 94 0 73 0;
#X connect 95 0 35 0;
#X connect 96 0 92 0;
#X connect 96 0 95 0;
#X connect 96 0 7 0;
#X connect 97 0 93 0;
#X connect 97 1 88 1;
#X connect 98 0 86 0;
#X connect 99 0 4 0;
#X connect 100 0 4 0;
#X connect 101 0 4 0;
#X connect 102 0 4 0;
#X connect 103 0 4 0;
#X connect 104 0 4 0;
#X connect 105 0 4 0;
#X connect 106 0 4 0;
#X connect 107 0 84 0;
#X connect 108 0 109 0;
#X connect 108 0 110 0;
#X connect 109 0 110 0;
#X connect 111 0 108 0;
#X connect 111 0 110 0;
#X connect 112 0 5 0;
#X restore 223 154 pd harmonicos;
#X obj 369 322 outlet~;
#X obj 223 16 inlet taxa_de_velocidade_média;
#N canvas 706 404 429 345 noise 0;
#X obj 73 177 else/dust~;
#X floatatom 225 75 5 0 0 0 - - -;
#X obj 225 93 cyclone/scale 5 30 5 45;
#X obj 9 16 inlet velocidade_do_trajeto_atual;
#X obj 9 77 == -1;
#X floatatom 9 98 5 0 0 0 - - -;
#X msg 73 109 0;
#X obj 9 118 sel 0 1;
#X obj 73 145 spigot 0;
#X obj 225 114 / 2;
#X obj 75 297 outlet~;
#X obj 75 266 *~ 0.02;
#X obj 225 14 inlet velocidade_media_da_linha;
#X text 228 225 Quando recebe -1 na velocidade do trajeto atual (falha
na amostragem de dados) libera noise baseado na velocidade média da
linha no trajeto completo, f 29;
#X obj 74 205 else/fbdelay~ 363 636;
#X connect 0 0 14 0;
#X connect 1 0 2 0;
#X connect 2 0 9 0;
#X connect 3 0 4 0;
#X connect 4 0 5 0;
#X connect 5 0 7 0;
#X connect 5 0 8 1;
#X connect 6 0 8 0;
#X connect 7 0 6 0;
#X connect 8 0 0 0;
#X connect 9 0 8 0;
#X connect 11 0 10 0;
#X connect 12 0 1 0;
#X connect 14 0 11 0;
#X restore 575 161 pd noise;
#X obj 620 16 inlet velocidade_media_da_linha;
#X obj 411 16 inlet velocidade_do_trajeto_atual;
#X obj 98 97 osc~ 66;
#X msg 114 49 0.45;
#X connect 2 0 1 0;
#X connect 2 0 6 0;
#X connect 3 0 2 1;
#X connect 4 0 12 0;
#X connect 5 0 1 0;
#X connect 5 0 6 0;
#X connect 7 0 5 0;
#X connect 8 0 1 0;
#X connect 8 0 6 0;
#X connect 9 0 8 1;
#X connect 10 0 8 0;
#X connect 10 0 5 1;
#X connect 11 0 2 0;
#X connect 12 0 3 0;
