#N canvas 560 67 604 364 10;
#X obj 116 309 dac~;
#X obj 415 12 inlet dia_da_semana;
#X obj 455 269 outlet coordenadas;
#X obj 178 269 outlet linha_de_ônibus;
#X obj 39 12 inlet liga_desl~;
#X obj 178 12 inlet bus_id;
#X obj 296 12 inlet tempo_iter;
#N canvas 588 61 682 429 coordenadas_de_cada_stop_de_um_bus-id 0;
#X obj 29 16 inlet id_linha_de_ônibus;
#X obj 536 16 inlet dia_da_semana;
#X obj 333 16 inlet tempo_de_iteração;
#X obj 29 379 outlet linha_de_ônibus;
#X msg 29 48 buzu \$1;
#X obj 29 69 buzuDados;
#X obj 167 144 buzuDados, f 23;
#X obj 167 195 list split 1, f 18;
#X obj 198 219 list;
#X obj 198 173 del 400, f 23;
#X obj 167 123 cyclone/prepend stops;
#X obj 194 278 cyclone/prepend coordenadas;
#X obj 167 247 t b s;
#X obj 194 306 buzuDados, f 29;
#X obj 536 37 s \$0-dia;
#X obj 87 48 r \$0-dia;
#X obj 307 123 r \$0-dia;
#X obj 372 278 r \$0-dia;
#X text 467 157 Retorna os dados (linha_de_ônibus \, coordenadas)
de cada ponto de ônibus em determinado tempo de iteração, f 31
;
#X obj 194 379 outlet par_de_coordenadas;
#X connect 0 0 4 0;
#X connect 1 0 14 0;
#X connect 2 0 9 1;
#X connect 4 0 5 0;
#X connect 5 0 10 0;
#X connect 5 0 3 0;
#X connect 6 0 7 0;
#X connect 7 0 12 0;
#X connect 7 1 8 1;
#X connect 8 0 7 0;
#X connect 9 0 8 0;
#X connect 10 0 6 0;
#X connect 11 0 13 0;
#X connect 12 0 9 0;
#X connect 12 1 11 0;
#X connect 13 0 19 0;
#X connect 15 0 5 1;
#X connect 16 0 6 1;
#X connect 17 0 13 1;
#X restore 178 79 pd coordenadas_de_cada_stop_de_um_bus-id;
#X obj 330 269 outlet bang_de_fim;
#N canvas 557 265 651 379 som_linha_de_ônibus 0;
#X obj 195 207 *~;
#X obj 399 180 bob~, f 16;
#X floatatom 519 118 5 0 0 0 - - -;
#X obj 195 300 *~, f 9;
#X obj 195 63 unpack, f 45;
#X obj 195 14 inlet coordenadas_de_um_stops;
#X obj 24 14 inlet liga_desl~;
#X obj 464 333 outlet bang_de_fim;
#N canvas 443 256 344 300 gerador_de_altura 0;
#X obj 50 21 inlet coordenada_eixo_X_de_stops;
#X obj 63 253 outlet notaMIDI;
#X obj 63 197 mtof;
#X floatatom 80 92 5 0 0 0 - - -;
#X obj 63 131 i;
#X obj 63 153 cromatic_to_scales;
#X obj 63 175 + 12;
#X obj 63 70 cyclone/scale 0 1000 0 127;
#X connect 0 0 7 0;
#X connect 2 0 1 0;
#X connect 4 0 5 0;
#X connect 5 0 6 0;
#X connect 6 0 2 0;
#X connect 7 0 3 0;
#X connect 7 0 4 0;
#X restore 195 103 pd gerador_de_altura;
#N canvas 369 88 755 364 parâmetros_para_filtro 0;
#X obj 32 11 inlet nota_MIDI;
#X obj 287 13 inlet coordenada_eixo_Y_de_stops;
#X obj 287 138 mtof;
#X obj 287 215 line~;
#X floatatom 287 161 7 0 0 0 - - -;
#X obj 226 64 loadbang;
#X obj 110 161 min~;
#X obj 146 117 -~ 1;
#X obj 146 142 *~ -50;
#X obj 110 95 phasor~ 220;
#X obj 32 96 osc~ 220;
#X obj 32 185 +~, f 13;
#X floatatom 581 171 5 0 200 0 - - -;
#X obj 581 189 / 25;
#X msg 452 147 33;
#X obj 452 81 moses 500, f 22;
#X obj 581 233 line~;
#X obj 287 190 pack 0 50;
#X obj 581 211 pack 0 50;
#X floatatom 287 115 5 0 0 0 - - -;
#X msg 226 82 70;
#X obj 452 106 scale 0 500 145 70;
#X obj 287 88 scale 0 1000 145 70;
#X obj 581 106 scale 500 1000 33 90;
#X obj 287 55 t f f, f 28;
#X obj 32 72 t f f;
#X obj 32 300 outlet~ sinal_de_entrada_do_filtro;
#X obj 287 300 outlet~ cutoff;
#X obj 581 300 outlet~ resonance;
#X obj 452 127 t b;
#X connect 0 0 25 0;
#X connect 1 0 24 0;
#X connect 2 0 4 0;
#X connect 3 0 27 0;
#X connect 4 0 17 0;
#X connect 5 0 20 0;
#X connect 6 0 11 1;
#X connect 7 0 8 0;
#X connect 8 0 6 1;
#X connect 9 0 7 0;
#X connect 9 0 6 0;
#X connect 10 0 11 0;
#X connect 11 0 26 0;
#X connect 12 0 13 0;
#X connect 13 0 18 0;
#X connect 14 0 12 0;
#X connect 15 0 21 0;
#X connect 15 1 23 0;
#X connect 16 0 28 0;
#X connect 17 0 3 0;
#X connect 18 0 16 0;
#X connect 19 0 2 0;
#X connect 20 0 19 0;
#X connect 21 0 29 0;
#X connect 22 0 19 0;
#X connect 23 0 12 0;
#X connect 24 0 15 0;
#X connect 24 1 22 0;
#X connect 25 0 10 0;
#X connect 25 1 9 0;
#X connect 29 0 14 0;
#X restore 372 147 pd parâmetros_para_filtro;
#X obj 195 126 t b f, f 28;
#X obj 195 334 outlet~ sinal_de_audio;
#N canvas 0 22 459 480 enveloSynth 0;
#X msg 366 204 1;
#X msg 232 211 0;
#X floatatom 309 206 5 0 0 0 - - -;
#X obj 205 166 bng 20 250 50 0 empty empty empty 17 7 0 10 -261234
-1 -1;
#X obj 232 245 adsr 0.12 5 700 20 100;
#X obj 72 54 random 20;
#X obj 112 86 * 0.025;
#X obj 378 133 + 0.5;
#X obj 205 191 t b b;
#X obj 205 394 outlet bang_de_fim;
#X obj 51 20 inlet bang_de_início;
#X obj 309 153 pak 600 1, f 12;
#X obj 309 176 unpack 0 0;
#X obj 43 394 outlet~ sinal_de_controle;
#X connect 0 0 4 0;
#X connect 1 0 4 0;
#X connect 2 0 4 3;
#X connect 3 0 8 0;
#X connect 4 0 13 0;
#X connect 4 1 8 0;
#X connect 5 0 6 0;
#X connect 6 0 7 0;
#X connect 7 0 11 1;
#X connect 8 0 9 0;
#X connect 8 1 1 0;
#X connect 10 0 5 0;
#X connect 11 0 12 0;
#X connect 12 0 2 0;
#X connect 12 1 0 0;
#X restore 195 177 pd enveloSynth;
#X f 16;
#X text 146 206 síntese;
#X text 256 301 gate de sinal~;
#X text 169 80 eixo_X;
#X text 450 80 eixo_Y;
#N canvas 0 22 450 300 efeitos 0;
#X obj 55 17 inlet~ sinal_de_entrada;
#X obj 58 262 outlet~ sinal_de_entrada;
#X connect 0 0 1 0;
#X restore 195 265 pd efeitos;
#X connect 0 0 17 0;
#X connect 1 0 0 1;
#X connect 2 0 9 1;
#X connect 3 0 11 0;
#X connect 4 0 8 0;
#X connect 4 1 2 0;
#X connect 5 0 4 0;
#X connect 6 0 3 1;
#X connect 8 0 10 0;
#X connect 9 0 1 0;
#X connect 9 1 1 1;
#X connect 9 2 1 2;
#X connect 10 0 12 0;
#X connect 10 1 9 0;
#X connect 12 0 0 0;
#X connect 12 1 7 0;
#X connect 17 0 3 0;
#X restore 39 134 pd som_linha_de_ônibus;
#X f 49;
#N canvas 783 226 450 337 espacializador_estéreo 0;
#X obj 221 147 hsl 128 15 0 1 0 0 empty empty VOL_L 45 7 0 10 -262130
-1 -1 0 1;
#X obj 227 200 hsl 128 15 0 1 0 0 empty empty VOL_R 45 7 0 10 -262130
-1 -1 0 1;
#X obj 224 168 expr 1 -$f1;
#X obj 218 74 cyclone/scale 0 1000 0 1;
#X obj 22 28 inlet~ sinal_de_entrada;
#X obj 218 30 inlet coordenada_do_eixo_Y_de_stops;
#X obj 22 248 *~;
#X obj 209 248 *~;
#X obj 209 299 outlet~ R;
#X obj 22 299 outlet~ L;
#X connect 0 0 2 0;
#X connect 0 0 6 1;
#X connect 1 0 7 1;
#X connect 2 0 1 0;
#X connect 3 0 0 0;
#X connect 4 0 6 0;
#X connect 4 0 7 0;
#X connect 5 0 3 0;
#X connect 6 0 9 0;
#X connect 7 0 8 0;
#X restore 39 209 pd espacializador_estéreo;
#X f 31;
#X obj 415 100 t a a a, f 14;
#X msg 496 120 \$2;
#X text 480 137 eixo_Y;
#X connect 1 0 7 2;
#X connect 4 0 9 0;
#X connect 5 0 7 0;
#X connect 6 0 7 1;
#X connect 7 0 3 0;
#X connect 7 1 11 0;
#X connect 9 0 10 0;
#X connect 9 1 8 0;
#X connect 10 0 0 0;
#X connect 10 1 0 1;
#X connect 11 0 9 1;
#X connect 11 1 2 0;
#X connect 11 2 12 0;
#X connect 12 0 10 1;
