#N struct 1660-point float x0 float y0 float s;
#N struct 1660-grid float x0 float y0 float s;
#N canvas 465 237 471 364 10;
#X obj 40 12 inlet liga_desl~;
#N canvas 207 327 651 379 som_linha_de_ônibus 0;
#X obj 195 207 *~;
#X obj 399 180 bob~, f 16;
#X floatatom 519 118 5 0 0 0 - - -;
#X obj 195 300 *~, f 9;
#X obj 195 63 unpack, f 45;
#X obj 195 14 inlet coordenadas_de_um_stops;
#X obj 24 14 inlet liga_desl~;
#X obj 464 333 outlet bang_de_fim;
#N canvas 443 283 344 300 gerador_de_altura 0;
#X obj 50 21 inlet coordenada_eixo_X_de_stops;
#X obj 63 253 outlet notaMIDI;
#X obj 63 197 mtof;
#X floatatom 80 92 5 0 0 0 - - -;
#X obj 63 131 i;
#X obj 63 153 cromatic_to_scales;
#X obj 63 175 + 12;
#X obj 63 70 cyclone/scale 0 1000 0 127;
#X connect 0 0 7 0;
#X connect 2 0 1 0;
#X connect 4 0 5 0;
#X connect 5 0 6 0;
#X connect 6 0 2 0;
#X connect 7 0 3 0;
#X connect 7 0 4 0;
#X restore 195 103 pd gerador_de_altura;
#N canvas 369 88 755 364 parâmetros_para_filtro 0;
#X obj 32 11 inlet nota_MIDI;
#X obj 287 13 inlet coordenada_eixo_Y_de_stops;
#X obj 287 138 mtof;
#X obj 287 215 line~;
#X floatatom 287 161 7 0 0 0 - - -;
#X obj 226 64 loadbang;
#X obj 110 161 min~;
#X obj 146 117 -~ 1;
#X obj 146 142 *~ -50;
#X obj 110 95 phasor~ 220;
#X obj 32 96 osc~ 220;
#X obj 32 185 +~, f 13;
#X floatatom 581 171 5 0 200 0 - - -;
#X obj 581 189 / 25;
#X msg 452 147 33;
#X obj 452 81 moses 500, f 22;
#X obj 581 233 line~;
#X obj 287 190 pack 0 50;
#X obj 581 211 pack 0 50;
#X floatatom 287 115 5 0 0 0 - - -;
#X msg 226 82 70;
#X obj 452 106 scale 0 500 145 70;
#X obj 287 88 scale 0 1000 145 70;
#X obj 581 106 scale 500 1000 33 90;
#X obj 287 55 t f f, f 28;
#X obj 32 72 t f f;
#X obj 32 300 outlet~ sinal_de_entrada_do_filtro;
#X obj 287 300 outlet~ cutoff;
#X obj 581 300 outlet~ resonance;
#X obj 452 127 t b;
#X connect 0 0 25 0;
#X connect 1 0 24 0;
#X connect 2 0 4 0;
#X connect 3 0 27 0;
#X connect 4 0 17 0;
#X connect 5 0 20 0;
#X connect 6 0 11 1;
#X connect 7 0 8 0;
#X connect 8 0 6 1;
#X connect 9 0 7 0;
#X connect 9 0 6 0;
#X connect 10 0 11 0;
#X connect 11 0 26 0;
#X connect 12 0 13 0;
#X connect 13 0 18 0;
#X connect 14 0 12 0;
#X connect 15 0 21 0;
#X connect 15 1 23 0;
#X connect 16 0 28 0;
#X connect 17 0 3 0;
#X connect 18 0 16 0;
#X connect 19 0 2 0;
#X connect 20 0 19 0;
#X connect 21 0 29 0;
#X connect 22 0 19 0;
#X connect 23 0 12 0;
#X connect 24 0 15 0;
#X connect 24 1 22 0;
#X connect 25 0 10 0;
#X connect 25 1 9 0;
#X connect 29 0 14 0;
#X restore 372 147 pd parâmetros_para_filtro;
#X obj 195 126 t b f, f 28;
#X obj 195 334 outlet~ sinal_de_audio;
#N canvas 0 22 459 480 enveloSynth 0;
#X msg 366 204 1;
#X msg 232 211 0;
#X floatatom 309 206 5 0 0 0 - - -;
#X obj 205 166 bng 20 250 50 0 empty empty empty 17 7 0 10 -261234
-1 -1;
#X obj 232 245 adsr 0.12 5 700 20 100;
#X obj 72 54 random 20;
#X obj 112 86 * 0.025;
#X obj 378 133 + 0.5;
#X obj 205 191 t b b;
#X obj 205 394 outlet bang_de_fim;
#X obj 51 20 inlet bang_de_início;
#X obj 309 153 pak 600 1, f 12;
#X obj 309 176 unpack 0 0;
#X obj 43 394 outlet~ sinal_de_controle;
#X connect 0 0 4 0;
#X connect 1 0 4 0;
#X connect 2 0 4 3;
#X connect 3 0 8 0;
#X connect 4 0 13 0;
#X connect 4 1 8 0;
#X connect 5 0 6 0;
#X connect 6 0 7 0;
#X connect 7 0 11 1;
#X connect 8 0 9 0;
#X connect 8 1 1 0;
#X connect 10 0 5 0;
#X connect 11 0 12 0;
#X connect 12 0 2 0;
#X connect 12 1 0 0;
#X restore 195 177 pd enveloSynth;
#X f 16;
#X text 146 206 síntese;
#X text 256 301 gate de sinal~;
#X text 169 80 eixo_X;
#X text 450 80 eixo_Y;
#N canvas 472 366 776 601 efeitos 0;
#X obj 55 17 inlet~ sinal_de_entrada;
#X obj 61 553 outlet~ sinal_de_entrada;
#N canvas 0 0 450 300 init 0;
#X obj 214 41 loadbang;
#X msg 217 77 \; del-sin 1 \; fb-sin 1 \; gain-flat 1 \; lp-freq 220
\; slope -0.04 \; crossfade 0.5 \;;
#X connect 0 0 1 0;
#X restore 824 18 pd init;
#N canvas 0 0 612 483 equal_power_crossfade 0;
#X obj 33 48 inlet~;
#X obj 244 58 inlet;
#X obj 33 332 outlet~;
#X obj 319 54 loadbang;
#X msg 319 74 0.5;
#X obj 49 194 expr cos($f1 * 3.14159 / 2);
#X obj 244 194 expr sin($f1 * 3.14159 / 2);
#X obj 244 134 clip 0 1;
#N canvas 0 0 450 300 pan_core 0;
#X obj 21 106 inlet~;
#X obj 226 126 inlet;
#X obj 80 453 *~;
#X obj 144 497 outlet~;
#X obj 210 452 *~;
#X obj 226 428 line~;
#X obj 96 428 line~;
#X obj 96 127 inlet;
#X obj 179 104 inlet~;
#X text 244 544 comment;
#X obj 96 389 pack f 5;
#X obj 226 389 pack f 5;
#X text 223 540 Hans-Christoph Steiner \, 2004;
#X text 223 526 Adapted from [pan_core~];
#X connect 0 0 2 0;
#X connect 1 0 11 0;
#X connect 2 0 3 0;
#X connect 4 0 3 0;
#X connect 5 0 4 1;
#X connect 6 0 2 1;
#X connect 7 0 10 0;
#X connect 8 0 4 0;
#X connect 10 0 6 0;
#X connect 11 0 5 0;
#X restore 39 266 pd pan_core;
#X text 256 437 Adapted from [equal_power_pan~] \, Hans-Christoph Steiner
\, 2004;
#X text 411 449 comment;
#X obj 128 46 inlet~;
#X connect 0 0 8 0;
#X connect 1 0 7 0;
#X connect 3 0 4 0;
#X connect 4 0 7 0;
#X connect 5 0 8 1;
#X connect 6 0 8 3;
#X connect 7 0 5 0;
#X connect 7 0 6 0;
#X connect 8 0 2 0;
#X connect 11 0 8 2;
#X restore 106 484 pd equal_power_crossfade;
#X obj 250 436 hsl 128 25 0 1 0 0 empty crossfade Dry_---_Wet_(crossfade)
-2 -8 0 10 -4034 -1 -1 6350 1;
#X obj 163 50 Guitar_specdelay~;
#X obj 162 437 *~ 10;
#N canvas 0 0 450 300 init 0;
#X obj 214 41 loadbang;
#X msg 217 77 \; del-sin 13 \; fb-sin 13 \; gain-flat 1 \; lp-freq
220 \; slope -0.04 \; crossfade 0.5 \;;
#X connect 0 0 1 0;
#X restore 676 7 pd init;
#X msg 494 12 \; del-sin \$1;
#X obj 336 12 inlet vel;
#X connect 0 0 5 0;
#X connect 0 0 3 0;
#X connect 3 0 1 0;
#X connect 4 0 3 2;
#X connect 5 0 6 0;
#X connect 6 0 3 1;
#X connect 9 0 8 0;
#X restore 195 265 pd efeitos;
#X obj 111 71 inlet vel;
#X floatatom 24 35 5 0 0 0 - - -;
#X connect 0 0 17 0;
#X connect 1 0 0 1;
#X connect 2 0 9 1;
#X connect 3 0 11 0;
#X connect 4 0 8 0;
#X connect 4 1 2 0;
#X connect 5 0 4 0;
#X connect 6 0 3 1;
#X connect 6 0 19 0;
#X connect 8 0 10 0;
#X connect 9 0 1 0;
#X connect 9 1 1 1;
#X connect 9 2 1 2;
#X connect 10 0 12 0;
#X connect 10 1 9 0;
#X connect 12 0 0 0;
#X connect 12 1 7 0;
#X connect 17 0 3 0;
#X connect 18 0 17 1;
#X restore 40 134 pd som_linha_de_ônibus;
#X f 49;
#X msg 371 128 \$2;
#X text 355 145 eixo_Y;
#X obj 40 314 outlet~;
#X obj 115 313 outlet~;
#X obj 331 12 inlet coordenadas;
#X obj 96 208 espacializador~;
#X obj 194 30 inlet vel;
#X obj 331 100 t a a a, f 14;
#X obj 190 314 outlet~;
#X obj 265 313 outlet~;
#X connect 0 0 1 0;
#X connect 1 0 7 0;
#X connect 6 0 9 0;
#X connect 7 0 4 0;
#X connect 7 1 5 0;
#X connect 7 2 10 0;
#X connect 7 3 11 0;
#X connect 8 0 1 1;
#X connect 9 0 1 2;
#X connect 9 1 2 0;
#X connect 9 2 7 1;
