#N canvas 473 293 516 349 10;
#X obj 15 9 inlet índice_da_linha_de_ônibus;
#X obj 17 309 outlet velocidade_média_da_linha;
#N canvas 524 231 604 506 validação_de_dados 0;
#X obj 18 14 inlet lista_de_velocidade_média;
#X obj 344 13 inlet lista_de_distâncias;
#X obj 18 454 outlet lista_de_velocidades_médias_válidas;
#X obj 287 454 outlet lista_de_distâncias_válidas;
#X obj 287 284 list-abs/list-idx;
#X obj 287 194 list store;
#X obj 18 272 list-abs/list-lastx, f 21;
#X obj 18 154 list store;
#X obj 18 66 t a a b, f 37;
#N canvas 153 270 485 300 novos_elementos_da_lista 0;
#X obj 37 11 inlet lista;
#X obj 30 260 outlet elemento;
#X obj 170 260 outlet lista_com_se_devo_usar_e_índice_inicial;
#X obj 37 69 list-abs/list-iter;
#X obj 37 115 route -1;
#X msg 37 138 0;
#X obj 82 136 t f b;
#X msg 109 154 1;
#X obj 37 89 t a b;
#X obj 256 166 f 0;
#X msg 271 138 0, f 1;
#X msg 215 138 1, f 1;
#X obj 170 205 pack f f;
#X obj 37 45 t a b;
#X obj 215 166 + -1;
#X obj 236 114 t b b;
#X msg 236 138 -1, f 2;
#X msg 170 226 \$2 \$1;
#X text 337 68 e;
#X text 256 30 Retorna os elementos diferentes de -1 de uma lista pelo
primeiro outlet, f 26;
#X text 310 84 Envia uma análise elemento a elemento se deve ser utilizado
ou não para montar uma nova lista pelo segundo outlet, f 26;
#X connect 0 0 13 0;
#X connect 3 0 8 0;
#X connect 4 0 5 0;
#X connect 4 1 6 0;
#X connect 5 0 12 0;
#X connect 6 0 1 0;
#X connect 6 1 7 0;
#X connect 7 0 12 0;
#X connect 8 0 4 0;
#X connect 8 1 11 0;
#X connect 9 0 14 1;
#X connect 10 0 9 1;
#X connect 10 0 14 1;
#X connect 11 0 14 0;
#X connect 12 0 17 0;
#X connect 13 0 3 0;
#X connect 13 1 15 0;
#X connect 14 0 9 0;
#X connect 14 0 12 1;
#X connect 15 0 16 0;
#X connect 15 1 10 0;
#X connect 16 0 14 1;
#X connect 17 0 2 0;
#X restore 18 175 pd novos_elementos_da_lista;
#X obj 18 293 list-abs/list-rev;
#X obj 287 333 spigot;
#X obj 287 359 list-abs/list-lastx, f 21;
#X obj 287 380 list-abs/list-rev;
#X obj 177 204 unpack;
#X obj 177 225 t b f;
#X text 374 99 Retorna listas de velocidade média e distâncias com
erros de amostragem eliminados, f 35;
#X obj 141 142 t f f;
#N canvas 64 154 385 438 novo_tamanho_de_lista 0;
#X obj 36 17 inlet list;
#X obj 233 22 inlet reset;
#X obj 63 389 outlet new_length;
#X obj 63 168 expr if($f1 == -1 \, 1 \, 0);
#X obj 94 215 f 0;
#X obj 63 215 +;
#X floatatom 63 236 5 0 0 0 - - -;
#X msg 233 52 0;
#X obj 36 97 list split 1, f 24;
#X obj 85 137 list;
#X obj 36 118 t b a;
#X obj 241 391 outlet bang_de_fim;
#X text 193 238 calculo de quantos elementos diferentes de -1 existem
na lista, f 22;
#X obj 94 192 t f f, f 10;
#X obj 36 144 del 0;
#X obj 36 38 t a a, f 15;
#X obj 129 58 list length;
#X obj 114 311 f;
#X obj 75 335 -;
#X obj 63 290 t b f;
#X obj 75 356 t b f;
#X obj 84 261 f;
#X connect 0 0 15 0;
#X connect 1 0 7 0;
#X connect 3 0 5 0;
#X connect 4 0 5 1;
#X connect 5 0 4 0;
#X connect 5 0 6 0;
#X connect 6 0 21 1;
#X connect 7 0 13 0;
#X connect 8 0 10 0;
#X connect 8 1 9 1;
#X connect 8 2 21 0;
#X connect 9 0 8 0;
#X connect 10 0 14 0;
#X connect 10 1 3 0;
#X connect 13 0 4 0;
#X connect 14 0 9 0;
#X connect 15 0 8 0;
#X connect 15 1 16 0;
#X connect 16 0 17 1;
#X connect 17 0 18 0;
#X connect 18 0 20 0;
#X connect 19 0 17 0;
#X connect 19 1 18 1;
#X connect 20 0 11 0;
#X connect 20 1 2 0;
#X connect 21 0 19 0;
#X restore 96 92 pd novo_tamanho_de_lista;
#X connect 0 0 8 0;
#X connect 1 0 5 1;
#X connect 4 0 11 0;
#X connect 5 0 4 0;
#X connect 6 0 10 0;
#X connect 7 0 9 0;
#X connect 8 0 7 1;
#X connect 8 1 18 0;
#X connect 8 2 18 1;
#X connect 9 0 6 0;
#X connect 9 1 14 0;
#X connect 10 0 2 0;
#X connect 11 0 12 0;
#X connect 12 0 13 0;
#X connect 13 0 3 0;
#X connect 14 0 15 0;
#X connect 14 1 11 1;
#X connect 15 0 5 0;
#X connect 15 1 4 1;
#X connect 17 0 6 1;
#X connect 17 1 12 1;
#X connect 18 0 17 0;
#X connect 18 1 7 0;
#X restore 94 168 pd validação_de_dados;
#X obj 258 120 distancia_total_do_percurso;
#X obj 15 120 velocidades_medias_da_linha;
#X obj 15 70 t f f, f 32;
#N canvas 573 39 598 435 calculo_da_média_harmônica_ponderada 0;
#X obj 22 16 inlet lista_de_velocidade_média;
#X obj 261 16 inlet lista_de_distâncias;
#X obj 246 352 outlet média_harmônica_ponderada;
#X obj 261 37 t a a, f 7;
#X obj 261 63 list-abs/list-accum;
#X obj 300 193 list-abs/list-emath /;
#X obj 246 268 f;
#X obj 300 213 list-abs/list-accum;
#X obj 246 298 /;
#X obj 300 234 t b f;
#X text 26 403 https://pt.wikipedia.org/wiki/M%C3%A9dia_harm%C3%B4nica#M%C3%A9dia_harm%C3%B4nica_ponderada
, f 91;
#X text 24 383 FONTE:;
#X obj 300 151 list store;
#X obj 396 120 t b a;
#X connect 0 0 13 0;
#X connect 1 0 3 0;
#X connect 3 0 12 1;
#X connect 3 1 4 0;
#X connect 4 0 6 1;
#X connect 5 0 7 0;
#X connect 6 0 8 0;
#X connect 7 0 9 0;
#X connect 8 0 2 0;
#X connect 9 0 6 0;
#X connect 9 1 8 1;
#X connect 12 0 5 0;
#X connect 13 0 12 0;
#X connect 13 1 5 1;
#X restore 94 205 pd calculo_da_média_harmônica_ponderada;
#X obj 372 9 inlet dia_da_semana;
#X obj 215 9 inlet hora_do_transporte;
#X obj 372 30 t f f, f 8;
#X text 268 247 Cálculo de uma média de uma linha de ônibus considerando
apenas os dados de avgspeed válidos, f 29;
#X connect 0 0 5 0;
#X connect 2 0 6 0;
#X connect 2 1 6 1;
#X connect 3 1 2 1;
#X connect 4 1 2 0;
#X connect 5 0 4 0;
#X connect 5 1 3 0;
#X connect 6 0 1 0;
#X connect 7 0 9 0;
#X connect 8 0 4 1;
#X connect 9 0 4 2;
#X connect 9 1 3 1;
