#N canvas 575 224 304 333 10;
#X obj 161 18 r resolucao;
#X obj 161 97 unpack;
#X obj 45 126 * 1;
#X obj 102 126 * 1;
#X obj 45 18 inlet message;
#X obj 45 283 outlet coordenadas_centralizadas;
#X obj 45 69 route coordenadas;
#X obj 45 97 unpack f f;
#X obj 45 152 pack f f, f 10;
#X obj 45 234 t a b;
#X msg 72 254 format sff;
#X obj 45 193 list prepend coordenadas;
#X obj 45 39 list trim;
#X connect 0 0 1 0;
#X connect 1 0 2 1;
#X connect 1 1 3 1;
#X connect 2 0 8 0;
#X connect 3 0 8 1;
#X connect 4 0 12 0;
#X connect 6 0 7 0;
#X connect 7 0 2 0;
#X connect 7 1 3 0;
#X connect 8 0 11 0;
#X connect 9 0 5 0;
#X connect 9 1 10 0;
#X connect 10 0 5 0;
#X connect 11 0 9 0;
#X connect 12 0 6 0;
