#N canvas 557 28 701 536 10;
#X declare -path ../externos;
#X obj 26 64 inlet;
#X obj 126 64 inlet;
#X obj 228 64 inlet;
#X obj 328 64 inlet;
#X obj 431 64 inlet;
#X obj 531 64 inlet;
#X text 14 44 Noturno;
#X text 84 44 Primeiro Dígito;
#X text 194 44 Segundo Dígito;
#X text 294 44 Terceiro Dígito;
#X text 404 44 Quarto Dígito;
#X text 504 44 Quarto Dígito Letra;
#X obj 26 95 bng 15 250 50 0 empty empty empty 17 7 0 10 -262144 -1
-1;
#X obj 531 95 bng 15 250 50 0 empty empty empty 17 7 0 10 -262144 -1
-1;
#X floatatom 126 95 5 0 0 0 - - -;
#X floatatom 228 95 5 0 0 0 - - -;
#X floatatom 328 95 5 0 0 0 - - -;
#X floatatom 431 95 5 0 0 0 - - -;
#X obj 228 137 i;
#X obj 328 137 i;
#X obj 431 137 i;
#N canvas 197 95 400 413 eventoMidi 0;
#X obj 37 17 inlet;
#X obj 37 351 outlet;
#X obj 156 351 outlet;
#X text 240 12 Máquina para criação de evento midi (uma nota),
f 24;
#X obj 37 78 t f f;
#X obj 37 129 + 40;
#X obj 37 160 t f f;
#X msg 37 241 \$1 95;
#X obj 177 109 t f f, f 9;
#X obj 177 130 * 45;
#X obj 228 130 * 1.2;
#X obj 177 160 /;
#X obj 177 181 + 102;
#X obj 156 213 pipe;
#X text 218 180 duração do evento;
#X msg 156 241 \$1 0;
#X obj 156 282 t b l;
#X obj 156 315 bng 15 250 50 0 empty empty empty 17 7 0 10 -262144
-1 -1;
#X text 78 234 note on;
#X text 191 234 note off;
#X text 18 375 note on/off;
#X text 148 375 bang de Fim;
#X connect 0 0 4 0;
#X connect 4 0 5 0;
#X connect 4 1 8 0;
#X connect 5 0 6 0;
#X connect 6 0 7 0;
#X connect 6 1 13 0;
#X connect 7 0 1 0;
#X connect 8 0 9 0;
#X connect 8 1 10 0;
#X connect 9 0 11 0;
#X connect 10 0 11 1;
#X connect 11 0 12 0;
#X connect 12 0 13 1;
#X connect 13 0 15 0;
#X connect 15 0 16 0;
#X connect 16 0 17 0;
#X connect 16 1 1 0;
#X connect 17 0 2 0;
#X restore 126 175 pd eventoMidi;
#N canvas 197 95 400 413 eventoMidi 0;
#X obj 37 17 inlet;
#X obj 37 351 outlet;
#X obj 156 351 outlet;
#X text 240 12 Máquina para criação de evento midi (uma nota),
f 24;
#X obj 37 78 t f f;
#X obj 37 160 t f f;
#X msg 37 241 \$1 95;
#X obj 177 109 t f f, f 9;
#X obj 177 130 * 45;
#X obj 228 130 * 1.2;
#X obj 177 160 /;
#X obj 177 181 + 102;
#X obj 156 213 pipe;
#X text 218 180 duração do evento;
#X msg 156 241 \$1 0;
#X obj 156 282 t b l;
#X obj 156 315 bng 15 250 50 0 empty empty empty 17 7 0 10 -262144
-1 -1;
#X text 78 234 note on;
#X text 191 234 note off;
#X text 18 375 note on/off;
#X text 148 375 bang de Fim;
#X obj 37 129 + 46;
#X connect 0 0 4 0;
#X connect 4 0 21 0;
#X connect 4 1 7 0;
#X connect 5 0 6 0;
#X connect 5 1 12 0;
#X connect 6 0 1 0;
#X connect 7 0 8 0;
#X connect 7 1 9 0;
#X connect 8 0 10 0;
#X connect 9 0 10 1;
#X connect 10 0 11 0;
#X connect 11 0 12 1;
#X connect 12 0 14 0;
#X connect 14 0 15 0;
#X connect 15 0 16 0;
#X connect 15 1 1 0;
#X connect 16 0 2 0;
#X connect 21 0 5 0;
#X restore 228 175 pd eventoMidi;
#N canvas 197 95 400 413 eventoMidi 0;
#X obj 37 17 inlet;
#X obj 37 351 outlet;
#X obj 156 351 outlet;
#X text 240 12 Máquina para criação de evento midi (uma nota),
f 24;
#X obj 37 78 t f f;
#X obj 37 160 t f f;
#X msg 37 241 \$1 95;
#X obj 177 109 t f f, f 9;
#X obj 177 130 * 45;
#X obj 228 130 * 1.2;
#X obj 177 160 /;
#X obj 177 181 + 102;
#X obj 156 213 pipe;
#X text 218 180 duração do evento;
#X msg 156 241 \$1 0;
#X obj 156 282 t b l;
#X obj 156 315 bng 15 250 50 0 empty empty empty 17 7 0 10 -262144
-1 -1;
#X text 78 234 note on;
#X text 191 234 note off;
#X text 18 375 note on/off;
#X text 148 375 bang de Fim;
#X obj 37 129 + 44;
#X connect 0 0 4 0;
#X connect 4 0 21 0;
#X connect 4 1 7 0;
#X connect 5 0 6 0;
#X connect 5 1 12 0;
#X connect 6 0 1 0;
#X connect 7 0 8 0;
#X connect 7 1 9 0;
#X connect 8 0 10 0;
#X connect 9 0 10 1;
#X connect 10 0 11 0;
#X connect 11 0 12 1;
#X connect 12 0 14 0;
#X connect 14 0 15 0;
#X connect 15 0 16 0;
#X connect 15 1 1 0;
#X connect 16 0 2 0;
#X connect 21 0 5 0;
#X restore 328 175 pd eventoMidi;
#N canvas 197 95 400 413 eventoMidi 0;
#X obj 37 17 inlet;
#X obj 37 351 outlet;
#X obj 156 351 outlet;
#X text 240 12 Máquina para criação de evento midi (uma nota),
f 24;
#X obj 37 78 t f f;
#X obj 37 160 t f f;
#X msg 37 241 \$1 95;
#X obj 177 109 t f f, f 9;
#X obj 177 130 * 45;
#X obj 228 130 * 1.2;
#X obj 177 160 /;
#X obj 177 181 + 102;
#X obj 156 213 pipe;
#X text 218 180 duração do evento;
#X msg 156 241 \$1 0;
#X obj 156 282 t b l;
#X obj 156 315 bng 15 250 50 0 empty empty empty 17 7 0 10 -262144
-1 -1;
#X text 78 234 note on;
#X text 191 234 note off;
#X text 18 375 note on/off;
#X text 148 375 bang de Fim;
#X obj 37 129 + 46;
#X connect 0 0 4 0;
#X connect 4 0 21 0;
#X connect 4 1 7 0;
#X connect 5 0 6 0;
#X connect 5 1 12 0;
#X connect 6 0 1 0;
#X connect 7 0 8 0;
#X connect 7 1 9 0;
#X connect 8 0 10 0;
#X connect 9 0 10 1;
#X connect 10 0 11 0;
#X connect 11 0 12 1;
#X connect 12 0 14 0;
#X connect 14 0 15 0;
#X connect 15 0 16 0;
#X connect 15 1 1 0;
#X connect 16 0 2 0;
#X connect 21 0 5 0;
#X restore 431 175 pd eventoMidi;
#X obj 530 12 declare -path ../externos;
#X obj 305 264 unpack, f 8;
#X obj 299 315 pack f f f;
#X obj 309 491 *~ 1;
#X obj 412 510 outlet~;
#X obj 65 375 synthBuzinho~;
#X obj 95 393 synthBuzinho~;
#X obj 123 411 synthBuzinho~;
#X obj 151 429 synthBuzinho~;
#X obj 292 336 route 1 2 3 4 5 6 7 8 9 10 11 12 13 14 15 16;
#X obj 215 375 synthBuzinho~;
#X obj 245 393 synthBuzinho~;
#X obj 273 411 synthBuzinho~;
#X obj 301 429 synthBuzinho~;
#X obj 365 375 synthBuzinho~;
#X obj 395 393 synthBuzinho~;
#X obj 423 411 synthBuzinho~;
#X obj 451 429 synthBuzinho~;
#X obj 515 375 synthBuzinho~;
#X obj 545 393 synthBuzinho~;
#X obj 573 411 synthBuzinho~;
#X obj 601 429 synthBuzinho~;
#X obj 305 284 poly 16 1;
#X obj 447 252 clone synthBuzinho~ 18;
#X connect 0 0 12 0;
#X connect 1 0 14 0;
#X connect 2 0 15 0;
#X connect 3 0 16 0;
#X connect 4 0 17 0;
#X connect 5 0 13 0;
#X connect 12 0 18 0;
#X connect 14 0 21 0;
#X connect 15 0 18 0;
#X connect 16 0 19 0;
#X connect 17 0 20 0;
#X connect 18 0 22 0;
#X connect 19 0 23 0;
#X connect 20 0 24 0;
#X connect 21 0 26 0;
#X connect 21 1 18 0;
#X connect 22 0 26 0;
#X connect 22 1 19 0;
#X connect 23 0 26 0;
#X connect 23 1 20 0;
#X connect 24 0 26 0;
#X connect 26 0 47 0;
#X connect 26 1 47 1;
#X connect 27 0 48 0;
#X connect 28 0 29 0;
#X connect 30 0 28 0;
#X connect 31 0 28 0;
#X connect 32 0 28 0;
#X connect 33 0 28 0;
#X connect 34 0 30 0;
#X connect 34 1 31 0;
#X connect 34 2 32 0;
#X connect 34 3 33 0;
#X connect 34 4 35 0;
#X connect 34 5 36 0;
#X connect 34 6 37 0;
#X connect 34 7 38 0;
#X connect 34 8 39 0;
#X connect 34 9 40 0;
#X connect 34 10 41 0;
#X connect 34 11 42 0;
#X connect 34 12 43 0;
#X connect 34 13 44 0;
#X connect 34 14 45 0;
#X connect 34 15 46 0;
#X connect 35 0 28 0;
#X connect 36 0 28 0;
#X connect 37 0 28 0;
#X connect 38 0 28 0;
#X connect 39 0 28 0;
#X connect 40 0 28 0;
#X connect 41 0 28 0;
#X connect 42 0 28 0;
#X connect 43 0 28 0;
#X connect 44 0 28 0;
#X connect 45 0 28 0;
#X connect 46 0 28 0;
#X connect 47 0 27 0;
#X connect 47 1 27 1;
#X connect 47 2 27 2;
#X connect 48 0 29 0;
