#N canvas 117 25 1062 730 10;
#X declare -path ./modulos;
#X declare -path ./biblioteca;
#X obj 911 29 declare -path ./modulos;
#X obj 893 10 declare -path ./biblioteca;
#X obj 953 48 dados_interscity;
#X obj 94 101 spigot;
#X obj 127 38 tgl 15 0 empty empty empty 17 7 0 10 -262144 -1 -1 0
1;
#X msg 27 249 208V-10-1;
#X floatatom 94 147 5 0 0 0 - - -;
#X obj 127 249 bng 15 250 50 0 empty empty empty 17 7 0 10 -262144
-1 -1;
#X obj 27 42 tgl 11 0 empty empty empty 17 7 0 10 -258113 -1 -1 0 1
;
#X obj 94 123 urn 2120;
#X floatatom 228 102 5 0 0 0 - - -;
#X obj 219 158 loadbang;
#X msg 219 176 2;
#X text 263 106 dia_da_semana;
#X floatatom 161 68 5 0 0 0 - - -;
#X msg 871 434 disconnect;
#X obj 820 470 netsend -u -b;
#X obj 820 349 list prepend send;
#X obj 820 368 list trim;
#X obj 228 247 oscformat test;
#X msg 868 415 connect 192.168.2.7 12000;
#X obj 27 200 synth_linhas_de_onibus, f 34;
#N canvas 108 253 399 300 escalonamento_dos_dados 0;
#X floatatom 47 163 5 0 0 0 - - -;
#X obj 54 192 pak;
#X floatatom 81 164 5 0 0 0 - - -;
#X obj 47 87 list split 1;
#X obj 81 113 cyclone/scale 0 1000 0 380;
#X obj 47 137 cyclone/scale 0 1000 380 0;
#X obj 25 24 inlet par_de_coordenadas_de_um_stops;
#X obj 25 229 outlet par_de_coordenadas_escalonada;
#X connect 0 0 1 1;
#X connect 1 0 7 0;
#X connect 2 0 1 0;
#X connect 3 0 5 0;
#X connect 3 1 4 0;
#X connect 4 0 2 0;
#X connect 5 0 0 0;
#X connect 6 0 3 0;
#X restore 228 225 pd escalonamento_dos_dados;
#X text 31 53 Som On/Off, f 6;
#X text 143 21 Sorteador de linhas_de_ônibus, f 16;
#X text 198 57 Tempo de Iteração (ms), f 8;
#X obj 536 93 spigot;
#X obj 569 70 tgl 15 0 empty empty empty 17 7 0 10 -262144 -1 -1 0
1;
#X msg 469 241 208V-10-1;
#X floatatom 536 139 5 0 0 0 - - -;
#X obj 569 241 bng 15 250 50 0 empty empty empty 17 7 0 10 -262144
-1 -1;
#X obj 469 144 tgl 11 0 empty empty empty 17 7 0 10 -258113 -1 -1 0
1;
#X obj 536 115 urn 2120;
#X floatatom 670 124 5 0 0 0 - - -;
#X obj 661 150 loadbang;
#X msg 661 168 2;
#X floatatom 603 141 5 0 0 0 - - -;
#X obj 469 192 synth_linhas_de_onibus, f 34;
#N canvas 108 253 399 300 escalonamento_dos_dados 0;
#X floatatom 47 163 5 0 0 0 - - -;
#X obj 54 192 pak;
#X floatatom 81 164 5 0 0 0 - - -;
#X obj 47 87 list split 1;
#X obj 81 113 cyclone/scale 0 1000 0 380;
#X obj 47 137 cyclone/scale 0 1000 380 0;
#X obj 25 24 inlet par_de_coordenadas_de_um_stops;
#X obj 25 229 outlet par_de_coordenadas_escalonada;
#X connect 0 0 1 1;
#X connect 1 0 7 0;
#X connect 2 0 1 0;
#X connect 3 0 5 0;
#X connect 3 1 4 0;
#X connect 4 0 2 0;
#X connect 5 0 0 0;
#X connect 6 0 3 0;
#X restore 670 217 pd escalonamento_dos_dados;
#X obj 670 239 oscformat puts;
#X obj 116 328 spigot;
#X obj 149 305 tgl 15 0 empty empty empty 17 7 0 10 -262144 -1 -1 0
1;
#X msg 49 476 208V-10-1;
#X floatatom 116 374 5 0 0 0 - - -;
#X obj 149 476 bng 15 250 50 0 empty empty empty 17 7 0 10 -262144
-1 -1;
#X obj 49 379 tgl 11 0 empty empty empty 17 7 0 10 -258113 -1 -1 0
1;
#X obj 116 350 urn 2120;
#X floatatom 250 359 5 0 0 0 - - -;
#X obj 241 385 loadbang;
#X msg 241 403 2;
#X floatatom 183 376 5 0 0 0 - - -;
#X obj 49 427 synth_linhas_de_onibus, f 34;
#N canvas 108 253 399 300 escalonamento_dos_dados 0;
#X floatatom 47 163 5 0 0 0 - - -;
#X obj 54 192 pak;
#X floatatom 81 164 5 0 0 0 - - -;
#X obj 47 87 list split 1;
#X obj 81 113 cyclone/scale 0 1000 0 380;
#X obj 47 137 cyclone/scale 0 1000 380 0;
#X obj 25 24 inlet par_de_coordenadas_de_um_stops;
#X obj 25 229 outlet par_de_coordenadas_escalonada;
#X connect 0 0 1 1;
#X connect 1 0 7 0;
#X connect 2 0 1 0;
#X connect 3 0 5 0;
#X connect 3 1 4 0;
#X connect 4 0 2 0;
#X connect 5 0 0 0;
#X connect 6 0 3 0;
#X restore 250 452 pd escalonamento_dos_dados;
#X obj 400 514 spigot;
#X obj 433 491 tgl 15 0 empty empty empty 17 7 0 10 -262144 -1 -1 0
1;
#X msg 333 662 208V-10-1;
#X floatatom 400 560 5 0 0 0 - - -;
#X obj 433 662 bng 15 250 50 0 empty empty empty 17 7 0 10 -262144
-1 -1;
#X obj 333 565 tgl 11 0 empty empty empty 17 7 0 10 -258113 -1 -1 0
1;
#X obj 400 536 urn 2120;
#X floatatom 534 545 5 0 0 0 - - -;
#X obj 525 571 loadbang;
#X msg 525 589 2;
#X floatatom 467 562 5 0 0 0 - - -;
#X obj 333 613 synth_linhas_de_onibus, f 34;
#N canvas 108 253 399 300 escalonamento_dos_dados 0;
#X floatatom 47 163 5 0 0 0 - - -;
#X obj 54 192 pak;
#X floatatom 81 164 5 0 0 0 - - -;
#X obj 47 87 list split 1;
#X obj 81 113 cyclone/scale 0 1000 0 380;
#X obj 47 137 cyclone/scale 0 1000 380 0;
#X obj 25 24 inlet par_de_coordenadas_de_um_stops;
#X obj 25 229 outlet par_de_coordenadas_escalonada;
#X connect 0 0 1 1;
#X connect 1 0 7 0;
#X connect 2 0 1 0;
#X connect 3 0 5 0;
#X connect 3 1 4 0;
#X connect 4 0 2 0;
#X connect 5 0 0 0;
#X connect 6 0 3 0;
#X restore 534 638 pd escalonamento_dos_dados;
#X obj 250 474 oscformat bean;
#X obj 534 660 oscformat anuns;
#X connect 3 0 9 0;
#X connect 4 0 3 1;
#X connect 6 0 21 1;
#X connect 8 0 21 0;
#X connect 9 0 6 0;
#X connect 10 0 21 3;
#X connect 11 0 12 0;
#X connect 12 0 21 3;
#X connect 14 0 21 2;
#X connect 15 0 16 0;
#X connect 17 0 18 0;
#X connect 18 0 16 0;
#X connect 19 0 17 0;
#X connect 20 0 16 0;
#X connect 21 0 5 0;
#X connect 21 1 7 0;
#X connect 21 1 3 0;
#X connect 21 2 22 0;
#X connect 22 0 19 0;
#X connect 26 0 32 0;
#X connect 27 0 26 1;
#X connect 29 0 37 1;
#X connect 31 0 37 0;
#X connect 32 0 29 0;
#X connect 33 0 37 3;
#X connect 34 0 35 0;
#X connect 35 0 37 3;
#X connect 36 0 37 2;
#X connect 37 0 28 0;
#X connect 37 1 30 0;
#X connect 37 1 26 0;
#X connect 37 2 38 0;
#X connect 38 0 39 0;
#X connect 39 0 17 0;
#X connect 40 0 46 0;
#X connect 41 0 40 1;
#X connect 43 0 51 1;
#X connect 45 0 51 0;
#X connect 46 0 43 0;
#X connect 47 0 51 3;
#X connect 48 0 49 0;
#X connect 49 0 51 3;
#X connect 50 0 51 2;
#X connect 51 0 42 0;
#X connect 51 1 44 0;
#X connect 51 1 40 0;
#X connect 51 2 52 0;
#X connect 52 0 66 0;
#X connect 53 0 59 0;
#X connect 54 0 53 1;
#X connect 56 0 64 1;
#X connect 58 0 64 0;
#X connect 59 0 56 0;
#X connect 60 0 64 3;
#X connect 61 0 62 0;
#X connect 62 0 64 3;
#X connect 63 0 64 2;
#X connect 64 0 55 0;
#X connect 64 1 57 0;
#X connect 64 1 53 0;
#X connect 64 2 65 0;
#X connect 65 0 67 0;
#X connect 66 0 17 0;
#X connect 67 0 17 0;
