#N struct 1704-point float x0 float y0 float s;
#N struct 1704-grid float x0 float y0 float s;
#N canvas 120 26 1154 721 10;
#X declare -path ./modulos;
#X declare -path ./biblioteca;
#X obj 440 10 buzuTempo;
#X obj 440 212 s \$0-dia;
#X obj 329 22 loadbang;
#X msg 329 43 1;
#X text 505 910 comment;
#X obj 6 21 declare -path ./modulos;
#X obj 6 2 declare -path ./biblioteca;
#X obj 525 212 s \$0-hora;
#X obj 611 212 s \$0-min;
#X obj 697 212 s \$0-seg;
#X obj 783 212 s \$0-mseg;
#X obj 6 40 dados_interscity;
#X floatatom 106 201 5 0 0 0 - - -;
#X text 141 196 idx da linha;
#X obj 75 127 tgl 15 0 empty empty empty 17 7 0 10 -262144 -1 -1 1
1;
#X obj 140 284 r \$0-hora;
#X obj 170 302 r \$0-dia;
#X obj 75 320 dados_para_drone;
#X obj 116 357 bng 19 250 50 0 empty empty empty 17 7 0 10 -262144
-1 -1;
#X floatatom 75 383 10 0 0 0 - - -;
#X floatatom 137 359 10 0 0 0 - - -;
#X floatatom 168 339 10 0 0 0 - - -;
#X obj 75 167 metro 1200;
#X obj 922 422 bob~;
#X obj 335 651 output~;
#X obj 189 424 -;
#X floatatom 189 445 5 0 0 0 - - -;
#X obj 231 323 bng 15 250 50 0 empty empty empty 17 7 0 10 -262144
-1 -1;
#X obj 173 469 moses 0;
#X floatatom 215 488 5 0 0 0 - - -;
#X msg 170 497 0;
#N canvas 657 104 450 457 espacializador~ 0;
#X obj 139 419 dac~ 1 2 3 4, f 26;
#X obj 126 16 else/slider2d;
#X obj 126 148 unpack f f;
#X obj 126 172 / 127;
#X obj 183 172 / 127;
#X floatatom 126 193 5 0 0 0 - - -;
#X floatatom 183 193 5 0 0 0 - - -;
#X obj 49 236 panner~;
#X text 143 242 X;
#X obj 199 236 panner~;
#X text 293 242 Y;
#X obj 49 354 *~ 0.5;
#X obj 147 354 *~ 0.5;
#X obj 239 354 *~ 0.5;
#X obj 337 354 *~ 0.5;
#X connect 1 0 2 0;
#X connect 2 0 3 0;
#X connect 2 1 4 0;
#X connect 3 0 5 0;
#X connect 4 0 6 0;
#X connect 5 0 7 1;
#X connect 6 0 9 1;
#X connect 7 0 11 0;
#X connect 7 0 13 0;
#X connect 7 1 12 0;
#X connect 7 1 14 0;
#X connect 9 0 11 0;
#X connect 9 0 12 0;
#X connect 9 1 13 0;
#X connect 9 1 14 0;
#X connect 11 0 0 0;
#X connect 12 0 0 1;
#X connect 13 0 0 2;
#X connect 14 0 0 3;
#X restore 543 515 pd espacializador~;
#X obj 587 430 drone_Buzu;
#X obj 442 352 synth_linhas_de_onibus;
#X text 216 16 Dependências \; Cyclone \; Zexy \; list-abs, f 14
;
#X connect 0 0 1 0;
#X connect 0 1 7 0;
#X connect 0 2 8 0;
#X connect 0 3 9 0;
#X connect 0 4 10 0;
#X connect 2 0 3 0;
#X connect 3 0 0 0;
#X connect 12 0 17 0;
#X connect 14 0 22 0;
#X connect 15 0 17 1;
#X connect 16 0 17 2;
#X connect 17 0 19 0;
#X connect 17 1 18 0;
#X connect 17 2 20 0;
#X connect 17 3 21 0;
#X connect 20 0 25 0;
#X connect 21 0 25 1;
#X connect 22 0 17 0;
#X connect 25 0 26 0;
#X connect 26 0 28 0;
#X connect 27 0 21 0;
#X connect 28 0 30 0;
#X connect 28 1 29 0;
