#N canvas 0 22 450 371 10;
#X floatatom 118 140 5 0 0 0 - - -;
#X floatatom 162 140 5 0 0 0 - - -;
#X obj 75 102 unpack;
#X obj 75 239 *~, f 6;
#X msg 168 85 68 70;
#X obj 168 106 unpack;
#X obj 168 56 loadbang;
#X obj 39 14 inlet;
#X obj 39 332 outlet~;
#X text 263 16 Sintetizador simples com controle de envelope, f 26
;
#N canvas 348 22 800 637 timbre 0;
#X floatatom 312 71 4 0 127 0 - - -;
#X text 258 23 center;
#X obj 312 138 line~;
#X obj 312 115 pack 0 50;
#X floatatom 167 71 4 0 127 0 - - -;
#X text 85 29 fundamental;
#X floatatom 437 71 4 0 127 0 - - -;
#X obj 437 153 line~;
#X obj 172 416 *~;
#X obj 437 130 pack 0 50;
#X obj 172 465 cos~;
#X obj 168 140 mtof;
#X obj 334 163 expr 1/$f1;
#X obj 312 91 mtof;
#X text 257 38 freq.;
#X obj 312 187 *~;
#X text 376 25 bandwidth;
#X obj 437 104 mtof;
#X obj 436 196 *~;
#X text 477 188 divide by fundamental;
#X text 81 45 (MIDI units);
#X obj 119 251 phasor~;
#X obj 511 309 +~ 0.5;
#X obj 511 334 wrap~;
#X text 482 254 second phase signal;
#X text 483 269 out of phase from;
#X text 481 286 first one;
#X obj 172 488 +~ 1;
#X obj 118 352 -~ 0.5;
#X obj 175 522 +~;
#X obj 117 416 *~;
#X obj 117 439 cos~;
#X obj 254 386 samphold~;
#X obj 166 385 samphold~;
#X obj 116 464 *~;
#X obj 172 440 clip~ -0.5 0.5;
#X obj 412 427 *~;
#X obj 412 476 cos~;
#X obj 412 499 +~ 1;
#X obj 358 363 -~ 0.5;
#X obj 357 427 *~;
#X obj 357 450 cos~;
#X obj 494 397 samphold~;
#X obj 406 396 samphold~;
#X obj 356 475 *~;
#X obj 412 451 clip~ -0.5 0.5;
#X obj 436 220 max~ 1;
#X obj 167 115 - 12;
#X obj 167 30 inlet;
#X obj 312 30 inlet;
#X obj 437 30 inlet;
#X obj 175 583 outlet~;
#X text 641 35 AUDIO EXAMPLE F14;
#X connect 0 0 13 0;
#X connect 2 0 15 0;
#X connect 3 0 2 0;
#X connect 4 0 47 0;
#X connect 6 0 17 0;
#X connect 7 0 18 0;
#X connect 8 0 35 0;
#X connect 9 0 7 0;
#X connect 10 0 27 0;
#X connect 11 0 12 0;
#X connect 11 0 21 0;
#X connect 12 0 15 1;
#X connect 12 0 18 1;
#X connect 13 0 3 0;
#X connect 15 0 33 0;
#X connect 15 0 43 0;
#X connect 17 0 9 0;
#X connect 18 0 46 0;
#X connect 21 0 22 0;
#X connect 21 0 28 0;
#X connect 21 0 33 1;
#X connect 21 0 32 1;
#X connect 22 0 23 0;
#X connect 23 0 39 0;
#X connect 23 0 43 1;
#X connect 23 0 42 1;
#X connect 27 0 34 1;
#X connect 28 0 8 0;
#X connect 28 0 30 0;
#X connect 29 0 51 0;
#X connect 30 0 31 0;
#X connect 31 0 34 0;
#X connect 32 0 8 1;
#X connect 33 0 30 1;
#X connect 34 0 29 0;
#X connect 35 0 10 0;
#X connect 36 0 45 0;
#X connect 37 0 38 0;
#X connect 38 0 44 1;
#X connect 39 0 36 0;
#X connect 39 0 40 0;
#X connect 40 0 41 0;
#X connect 41 0 44 0;
#X connect 42 0 36 1;
#X connect 43 0 40 1;
#X connect 44 0 29 1;
#X connect 45 0 37 0;
#X connect 46 0 32 0;
#X connect 46 0 42 0;
#X connect 47 0 11 0;
#X connect 48 0 4 0;
#X connect 49 0 0 0;
#X connect 50 0 6 0;
#X restore 75 161 pd timbre;
#X f 15;
#N canvas 671 442 450 300 envelope 0;
#X obj 89 185 cyclone/slide~;
#X obj 170 120 samplerate~;
#X obj 170 100 r pd-dsp-started;
#X obj 170 140 / 100;
#X floatatom 170 161 5 0 0 0 - - -;
#X obj 89 120 sig~ 1;
#X obj 69 48 inlet;
#X obj 89 100 / 127;
#X obj 69 236 outlet~;
#X connect 0 0 8 0;
#X connect 1 0 3 0;
#X connect 2 0 1 0;
#X connect 3 0 4 0;
#X connect 4 0 0 2;
#X connect 4 0 0 1;
#X connect 5 0 0 0;
#X connect 6 0 7 0;
#X connect 7 0 5 0;
#X restore 108 210 pd envelope;
#X obj 288 145 sel 0, f 10;
#X obj 288 166 del 100;
#X msg 288 187 0;
#X msg 345 187 1;
#X obj 288 221 switch~;
#X connect 0 0 10 1;
#X connect 1 0 10 2;
#X connect 2 0 10 0;
#X connect 2 1 11 0;
#X connect 2 1 12 0;
#X connect 3 0 8 0;
#X connect 4 0 5 0;
#X connect 5 0 0 0;
#X connect 5 1 1 0;
#X connect 6 0 4 0;
#X connect 6 0 14 0;
#X connect 7 0 2 0;
#X connect 10 0 3 0;
#X connect 11 0 3 1;
#X connect 12 0 13 0;
#X connect 12 1 15 0;
#X connect 13 0 14 0;
#X connect 14 0 16 0;
#X connect 15 0 16 0;
