#N canvas 65 81 820 603 10;
#X declare -path ./modulos;
#X obj 10 12 declare -path ./modulos;
#X obj 10 32 dados_interscity;
#X obj 440 10 buzuTempo;
#X obj 440 212 s \$0-dia;
#X obj 329 22 loadbang;
#X msg 329 43 1;
#X text 505 800 comment;
#X obj 87 128 todas_as_coordenadas;
#X obj 204 103 r \$0-dia;
#X obj 87 59 bng 15 250 50 0 empty empty empty 17 7 0 10 -262144 -1
-1;
#X obj 87 170 print DADOS;
#X msg 145 87 5;
#X text 162 148 funcionando porém com uns erros por conta do dataset
do Interscity. Recolher problemas e reportar \, perguntar por dados
disponíveis., f 23;
#X obj 171 309 buzuDados;
#X msg 124 269 buzu \$1;
#X floatatom 124 250 5 0 9000 0 - - -;
#X obj 222 288 r \$0-dia;
#X obj 116 696 gestoBuzin~, f 23;
#X obj 133 389 list fromsymbol;
#X obj 133 410 list split 1;
#X obj 167 430 list split 1;
#X obj 201 450 list split 1;
#X obj 235 470 list split 1;
#X obj 95 742 output~;
#X msg 234 242 234;
#X obj 171 330 list prepend symbol;
#X obj 171 351 list trim;
#X obj 308 380 print;
#X obj 66 617 route symbol;
#X obj 235 617 route float;
#N canvas 0 22 450 300 volta 0;
#X obj 181 42 inlet;
#X obj 181 200 outlet;
#X obj 181 63 list tosymbol;
#X obj 181 84 t b a;
#X msg 181 155 G;
#X msg 213 108 set \$1;
#X connect 0 0 2 0;
#X connect 2 0 3 0;
#X connect 3 0 4 0;
#X connect 3 1 5 0;
#X connect 4 0 1 0;
#X connect 5 0 4 0;
#X restore 254 529 pd volta;
#N canvas 0 22 450 300 volta 0;
#X obj 181 42 inlet;
#X obj 181 200 outlet;
#X obj 181 63 list tosymbol;
#X obj 181 84 t b a;
#X msg 181 155 5;
#X msg 213 108 set \$1;
#X connect 0 0 2 0;
#X connect 2 0 3 0;
#X connect 3 0 4 0;
#X connect 3 1 5 0;
#X connect 4 0 1 0;
#X connect 5 0 4 0;
#X restore 198 529 pd volta;
#N canvas 0 22 450 300 volta 0;
#X obj 181 42 inlet;
#X obj 181 200 outlet;
#X obj 181 63 list tosymbol;
#X obj 181 84 t b a;
#X msg 181 155 7;
#X msg 213 108 set \$1;
#X connect 0 0 2 0;
#X connect 2 0 3 0;
#X connect 3 0 4 0;
#X connect 3 1 5 0;
#X connect 4 0 1 0;
#X connect 5 0 4 0;
#X restore 142 529 pd volta;
#N canvas 0 22 450 300 volta 0;
#X obj 181 42 inlet;
#X obj 181 200 outlet;
#X obj 181 63 list tosymbol;
#X obj 181 84 t b a;
#X msg 181 155 6;
#X msg 213 108 set \$1;
#X connect 0 0 2 0;
#X connect 2 0 3 0;
#X connect 3 0 4 0;
#X connect 3 1 5 0;
#X connect 4 0 1 0;
#X connect 5 0 4 0;
#X restore 86 529 pd volta;
#X msg 461 374 set \$1;
#X msg 461 395 675G-10-1;
#X connect 2 0 3 0;
#X connect 4 0 5 0;
#X connect 5 0 2 0;
#X connect 7 0 10 0;
#X connect 8 0 7 2;
#X connect 9 0 7 0;
#X connect 11 0 7 1;
#X connect 13 0 25 0;
#X connect 14 0 13 0;
#X connect 15 0 14 0;
#X connect 16 0 13 1;
#X connect 17 0 23 0;
#X connect 17 0 23 1;
#X connect 18 0 19 0;
#X connect 19 0 33 0;
#X connect 19 1 20 0;
#X connect 20 0 32 0;
#X connect 20 1 21 0;
#X connect 21 0 31 0;
#X connect 21 1 22 0;
#X connect 22 0 30 0;
#X connect 24 0 14 0;
#X connect 25 0 26 0;
#X connect 26 0 18 0;
#X connect 26 0 34 0;
#X connect 28 0 17 0;
#X connect 28 1 17 1;
#X connect 29 0 17 4;
#X connect 29 1 17 5;
#X connect 30 0 29 0;
#X connect 31 0 17 3;
#X connect 32 0 17 2;
#X connect 33 0 28 0;
#X connect 34 0 35 0;
