#N canvas 366 73 820 603 10;
#X declare -path ./modulos;
#X obj 10 12 declare -path ./modulos;
#X obj 10 32 dados_interscity;
#X obj 440 10 buzuTempo;
#X obj 440 212 s \$0-dia;
#X obj 329 22 loadbang;
#X msg 329 43 1;
#X obj 92 745 buzuDados_new;
#X obj 167 723 r \$0-dia;
#X obj 187 142 buzuDados;
#X obj 177 788 bng 15 250 50 0 empty empty empty 17 7 0 10 -262144
-1 -1;
#X msg 104 341 buzu \$1;
#X floatatom 104 314 5 0 0 0 - - -;
#X msg 112 380 start_time 917H-10-1;
#X msg 242 258 interval 917H-10-0;
#X msg 149 471 stops 917H-10-0;
#X msg 173 528 coordenadas 390000292id;
#X msg 187 634 avgspeed 610016845id-610016751id;
#X msg 172 564 zona 390000292id;
#X msg 164 318 -1;
#X obj 90 821 print buzuDados;
#X msg 183 589 trajeto 917H-10-0;
#X msg 90 270 linhas 0;
#X text 203 786 bang quando finaliza arecuperação de dados;
#X obj 200 821 print FIM;
#X msg 254 279 interval 917H-10-0 250;
#X msg 163 491 stops 917H-10-0 250;
#X msg 96 289 linhas 50;
#X msg 221 669 avgspeed 610016845id-610016751id 250;
#X obj 403 432 t a;
#X msg 561 285 interval 917H-10-1;
#X msg 573 306 interval 917H-10-1 250;
#X floatatom 318 298 5 0 0 0 - - -;
#X floatatom 581 326 5 0 0 0 - - -;
#X msg 309 315 interval 917H-10-0 \$1;
#X msg 573 343 interval 917H-10-1 \$1;
#X msg 337 334 interval 917H-10-0 -1;
#X msg 612 366 interval 917H-10-1 -1;
#X obj 543 652 t a;
#X floatatom 458 518 5 0 0 0 - - -;
#X floatatom 721 546 5 0 0 0 - - -;
#X msg 382 478 stops 917H-10-0;
#X msg 394 499 stops 917H-10-0 250;
#X msg 449 535 stops 917H-10-0 \$1;
#X msg 477 554 stops 917H-10-0 -1;
#X msg 701 505 stops 917H-10-1;
#X msg 713 526 stops 917H-10-1 250;
#X msg 713 563 stops 917H-10-1 \$1;
#X msg 752 586 stops 917H-10-1 -1;
#X connect 2 0 3 0;
#X connect 4 0 5 0;
#X connect 5 0 2 0;
#X connect 6 0 19 0;
#X connect 6 1 9 0;
#X connect 7 0 6 1;
#X connect 9 0 23 0;
#X connect 10 0 6 0;
#X connect 11 0 10 0;
#X connect 12 0 6 0;
#X connect 13 0 28 0;
#X connect 14 0 6 0;
#X connect 15 0 6 0;
#X connect 16 0 6 0;
#X connect 17 0 6 0;
#X connect 18 0 10 0;
#X connect 20 0 6 0;
#X connect 21 0 6 0;
#X connect 24 0 28 0;
#X connect 25 0 6 0;
#X connect 26 0 6 0;
#X connect 27 0 6 0;
#X connect 28 0 6 0;
#X connect 29 0 28 0;
#X connect 30 0 28 0;
#X connect 31 0 33 0;
#X connect 32 0 34 0;
#X connect 33 0 28 0;
#X connect 34 0 28 0;
#X connect 35 0 28 0;
#X connect 36 0 28 0;
#X connect 37 0 6 0;
#X connect 38 0 42 0;
#X connect 39 0 46 0;
#X connect 40 0 37 0;
#X connect 41 0 37 0;
#X connect 42 0 37 0;
#X connect 43 0 37 0;
#X connect 44 0 37 0;
#X connect 45 0 37 0;
#X connect 46 0 37 0;
#X connect 47 0 37 0;
