#N canvas 1315 25 750 742 12;
#X obj 4 4 cnv 15 740 95 empty empty empty 20 12 0 14 #e0e0e0 #404040 0;
#X obj 4 710 cnv 15 740 25 empty empty empty 20 12 0 14 #e0e0e0 #404040 0;
#X obj 4 101 cnv 15 740 612 empty empty empty 20 12 0 14 #f0f4ec #404040 0;
#X obj 200 660 bng 15 250 50 0 empty empty empty 17 7 0 10 #fcfcfc #000000 #000000;
#X msg 56 193 buzu \$1;
#X floatatom 56 166 5 0 0 0 - - - 0;
#X msg 73 230 start_time 917H-10-1;
#X msg 78 268 interval 917H-10-0;
#X msg 99 337 stops 917H-10-0;
#X msg 110 412 coordenadas 390000292id;
#X msg 108 554 avgspeed 610016845id-610016751id;
#X msg 112 453 zona 390000292id;
#X msg 116 170 -1;
#X obj 42 684 print buzuDados;
#X msg 109 501 trajeto 917H-10-0;
#X msg 42 122 linhas 0;
#X text 116 125 Lista todas as linhas de ônibus do sistema relacionadas ao dia da semana \, o argumento numérico corresponde ao intervalo em milissegundos entre o retorno de cada dado, f 85;
#X text 146 170 Retorna o nome de uma linha de onibus a partir de um index \, indexadores negativos retornam o total de linhas de ônibus cadastradas, f 74;
#X text 227 227 Retorna o dado de start_time referente a uma linha de ônibus;
#X text 221 259 Retorna uma lista com os dados de interval referente a uma linha de ônibus, f 66;
#X text 221 335 Retorna uma lista com os dados de stops referente a uma linha de ônibus, f 71;
#X text 289 402 Retorna um par de coordenadas x y para um identificador recuperado de stops;
#X text 241 445 Retorna a região da cidade referente ao ponto de parada de ônibus recuperado de stops;
#X text 226 658 bang quando finaliza arecuperação de dados;
#X text 239 497 Retorna um identificador com os dados referente ao primeiro e último ponto de parada de uma linha de ônibus. Necessário para recuperação de dados de velocidade média;
#X text 265 295 Itera a lista com os dados de interval a um tempo definido em ms, f 40;
#X obj 200 684 print FIM;
#X msg 93 298 interval 917H-10-0 250;
#X msg 106 372 stops 917H-10-0 250;
#X msg 48 141 linhas 50;
#X text 254 371 itera lista com dados de stops a um tempo definido em ms, f 61;
#X text 346 552 Retorna uma lista com as velocidades médias referentes a um trajeto cadastrado, f 43;
#X msg 102 596 distancia 610016845id-610016751id;
#X text 353 598 Retorna a distância do trajeto em metros, f 41;
#X text 46 48 Este objeto recupera dados da API Olho Vivo da SP Trans, f 56;
#X text 606 20 Dependências:;
#X text 669 40 ELSE;
#X text 662 59 Py4Pd;
#X obj 42 633 buzuDados_agora, f 23;
#X obj 14 12 cnv 5 5 5 empty empty [buzuDados_agora] 0 12 0 18 #e0e0e0 #404040 0;
#X connect 3 0 26 0;
#X connect 4 0 38 0;
#X connect 5 0 4 0;
#X connect 6 0 38 0;
#X connect 7 0 38 0;
#X connect 8 0 38 0;
#X connect 9 0 38 0;
#X connect 10 0 38 0;
#X connect 11 0 38 0;
#X connect 12 0 4 0;
#X connect 14 0 38 0;
#X connect 15 0 38 0;
#X connect 27 0 38 0;
#X connect 28 0 38 0;
#X connect 29 0 38 0;
#X connect 32 0 38 0;
#X connect 38 0 13 0;
#X connect 38 1 3 0;
