#N canvas 1284 925 749 618 12;
#X obj 4 4 cnv 15 740 95 empty empty empty 20 12 0 14 #e0e0e0 #404040 0;
#X obj 12 13 cnv 5 5 5 empty empty [buzu.linha] 0 12 0 18 #e0e0e0 #404040 0;
#X text 46 48 Recupera informações de uma linha de ônibus ou de linhas relacionadas com a pesquisa, f 84;
#X obj 5 101 cnv 15 740 512 empty empty empty 20 12 0 14 #f0f4ec #404040 0;
#X symbolatom 179 239 32 0 0 0 - - - 0;
#X obj 170 319 buzu.linha;
#X msg 174 190 Cidade Universitária;
#X msg 148 126 Universitária;
#X obj 237 365 print VOLTA;
#X obj 170 393 print IDA;
#X msg 162 154 8040;
#X text 138 482 Código da linha | Circular | N. da Linha | Nome da Linha;
#X text 255 126 Pode realizar uma busca por nome da linha;
#X text 203 154 capaz de realizar a busca pelo número da linha de ônibus;
#X text 329 189 algumas buscas podem falhar;
#X text 409 238 faça a sua busca aqui;
#X text 123 456 Formato da saída:;
#X connect 4 0 5 0;
#X connect 5 0 9 0;
#X connect 5 1 8 0;
#X connect 6 0 5 0;
#X connect 7 0 5 0;
#X connect 10 0 5 0;
