#N canvas 551 25 737 509 12;
#N canvas 1348 25 560 359 init 0;
#X obj 29 15 py4pd -lib buzuDados;
#X obj 50 272 py4pd;
#X obj 30 85 else/initmess \; packages /Users/esteban.viveros/miniconda3/envs/buzu, f 53;
#X obj 161 269 else;
#X msg 112 178 packages;
#X msg 53 128 pip install requests;
#X msg 146 217 reload;
#X msg 80 150 pip install python-dotenv;
#X obj 355 206 bng 19 250 50 0 empty empty empty 0 -10 0 12 #fcfcfc #000000 #000000;
#X obj 377 206 autenticar_OlhoVivoAPI;
#X obj 377 176 loadbang;
#X obj 390 268 else/display;
#X connect 2 0 1 0;
#X connect 4 0 1 0;
#X connect 5 0 1 0;
#X connect 6 0 1 0;
#X connect 7 0 1 0;
#X connect 8 0 9 0;
#X connect 9 0 11 0;
#X connect 10 0 9 0;
#X restore 662 14 pd init;
#X text 621 44 Dependências:;
#X text 684 64 ELSE;
#X text 677 83 Py4Pd;
#X obj 92 29 inlet;
#X obj 90 443 outlet;
#X obj 286 446 outlet;
#X obj 166 59 else/display;
#X obj 74 157 init_teste;
#X obj 82 112 bng 19 250 50 0 empty empty empty 0 -10 0 12 #fcfcfc #000000 #000000;
#X obj 83 199 else/display;
#X symbolatom 243 176 32 0 0 0 - - - 0;
#X obj 250 219 buzu.linha;
#X obj 250 249 else/display;
#X obj 250 282 else/display;
#X msg 268 92 Cidade Universitária;
#X msg 314 130 Universitária;
#X obj 243 341 print VOLTA;
#X obj 144 315 print IDA;
#X msg 442 112 8040;
#X text 333 216 Código da linha | Circular | N. da Linha | Nome da Linha;
#X connect 4 0 7 0;
#X connect 8 0 10 0;
#X connect 9 0 8 0;
#X connect 11 0 12 0;
#X connect 12 0 13 0;
#X connect 12 0 18 0;
#X connect 12 1 14 0;
#X connect 12 1 17 0;
#X connect 15 0 12 0;
#X connect 16 0 12 0;
#X connect 19 0 12 0;
