#N canvas 551 25 791 763 12;
#N canvas 1348 25 560 359 init 0;
#X obj 29 15 py4pd -lib buzuDados;
#X obj 50 272 py4pd;
#X obj 30 85 else/initmess \; packages /Users/esteban.viveros/miniconda3/envs/buzu, f 53;
#X obj 161 269 else;
#X msg 112 178 packages;
#X msg 53 128 pip install requests;
#X msg 146 217 reload;
#X msg 80 150 pip install python-dotenv;
#X obj 355 206 bng 19 250 50 0 empty empty empty 0 -10 0 12 #fcfcfc #000000 #000000;
#X obj 377 206 autenticar_OlhoVivoAPI;
#X obj 377 176 loadbang;
#X obj 390 268 else/display;
#X connect 2 0 1 0;
#X connect 4 0 1 0;
#X connect 5 0 1 0;
#X connect 6 0 1 0;
#X connect 7 0 1 0;
#X connect 8 0 9 0;
#X connect 9 0 11 0;
#X connect 10 0 9 0;
#X restore 662 14 pd init;
#X text 621 44 Dependências:;
#X text 684 64 ELSE;
#X text 677 83 Py4Pd;
#X obj 92 29 inlet;
#X obj 128 646 outlet;
#X obj 324 649 outlet;
#X obj 166 59 else/display;
#X obj 74 157 init_teste;
#X obj 82 112 bng 19 250 50 0 empty empty empty 0 -10 0 12 #fcfcfc #000000 #000000;
#X obj 83 199 else/display;
#N canvas 1124 239 749 620 buzu.linha 0;
#X obj 4 4 cnv 15 740 95 empty empty empty 20 12 0 14 #e0e0e0 #404040 0;
#X obj 12 13 cnv 5 5 5 empty empty [buzu.linha] 0 12 0 18 #e0e0e0 #404040 0;
#X text 46 48 Recupera informações de uma linha de ônibus ou de linhas relacionadas com a pesquisa, f 84;
#X obj 5 101 cnv 15 740 512 empty empty empty 20 12 0 14 #f0f4ec #404040 0;
#X symbolatom 179 239 32 0 0 0 - - - 0;
#X obj 170 319 buzu.linha;
#X msg 174 190 Cidade Universitária;
#X msg 148 126 Universitária;
#X obj 237 365 print VOLTA;
#X obj 170 393 print IDA;
#X msg 162 154 8040;
#X text 138 482 Código da linha | Circular | N. da Linha | Nome da Linha;
#X text 255 126 Pode realizar uma busca por nome da linha;
#X text 203 154 capaz de realizar a busca pelo número da linha de ônibus;
#X text 329 189 algumas buscas podem falhar;
#X text 409 238 faça a sua busca aqui;
#X text 123 456 Formato da saída:;
#X connect 4 0 5 0;
#X connect 5 0 9 0;
#X connect 5 1 8 0;
#X connect 6 0 5 0;
#X connect 7 0 5 0;
#X connect 10 0 5 0;
#X restore 617 143 pd buzu.linha;
#X obj 337 349 buzu.linha.sentido;
#X msg 334 251 8040 1;
#X obj 319 405 print INFOS_linha;
#X text 400 253 Tenho que entender como usar listas aqui;
#N canvas 1326 231 749 620 buzu.linha.sentido 0;
#X obj 4 4 cnv 15 740 95 empty empty empty 20 12 0 14 #e0e0e0 #404040 0;
#X obj 22 13 cnv 5 5 5 empty empty [buzu.linha.sentido] 0 12 0 18 #e0e0e0 #404040 0;
#X text 46 48 Recupera informações de uma linha de ônibus ou de linhas relacionadas com a pesquisa, f 84;
#X obj 5 101 cnv 15 740 512 empty empty empty 20 12 0 14 #f0f4ec #404040 0;
#X symbolatom 191 193 32 0 0 0 - - - 0;
#X text 138 482 Código da linha | Circular | N. da Linha | Nome da Linha;
#X text 421 192 faça a sua busca aqui;
#X text 123 456 Formato da saída:;
#X msg 162 154 8040 1;
#X text 222 152 Número da linha e sentido (1- Ida \, 2- Volta);
#X obj 170 318 buzu.linha.sentido;
#X obj 170 393 print [buzu.linha.sentido];
#X connect 4 0 10 0;
#X connect 8 0 10 0;
#X connect 10 0 11 0;
#X restore 562 170 pd buzu.linha.sentido;
#X connect 4 0 7 0;
#X connect 8 0 10 0;
#X connect 9 0 8 0;
#X connect 12 0 14 0;
#X connect 13 0 12 0;
